<?xml version="1.0" encoding="utf-8"?>
<!-- Generator: Adobe Illustrator 15.0.0, SVG Export Plug-In . SVG Version: 6.00 Build 0)  -->
<!DOCTYPE svg PUBLIC "-//W3C//DTD SVG 1.1//EN" "http://www.w3.org/Graphics/SVG/1.1/DTD/svg11.dtd">
<svg version="1.1" id="Layer_1" xmlns="http://www.w3.org/2000/svg" xmlns:xlink="http://www.w3.org/1999/xlink" x="0px" y="0px"
	 width="583.875px" height="184.062px" viewBox="0 0 583.875 184.062" enable-background="new 0 0 583.875 184.062"
	 xml:space="preserve">
<g>
	<path d="M75.125,49.5c-0.167,0.417-0.625,0.812-1.375,1.188c0.583,1.292,0.875,2.062,0.875,2.312l-0.25,5.125l0.25,4.062
		l-0.75,2.938l0.25,4.125L73.75,75l0.375,3.312L73.75,80.5L74,86.375l-0.125,1.688L73.5,87.438c-0.709,0.542-1.062,1.042-1.062,1.5
		c0,0.834,0.604,1.646,1.812,2.438c0.333,1.5,0.5,2.646,0.5,3.438c0,1.667-0.323,3.24-0.969,4.719
		c-0.646,1.479-1.823,3.553-3.531,6.219l-0.875,1.375l-2.438,1.438l-0.5-1.438l-2.938-4.5l-3.75-4.688l-2.812-4.875l-1-1.312
		l0.25-1.375c0-1-0.729-2.062-2.188-3.188c-2.042-1.708-3.188-2.75-3.438-3.125l-3.438-6.125l-1.812-2.188l-1.125-3.188
		c-0.709-1.708-2.042-2.562-4-2.562l-0.75-1.5l-3.625-5.938l-1-3.312l-2.062-2.312l-0.375,0.5l-1-0.625
		c-2.875-4.875-5.604-7.979-8.188-9.312c0.333-1.041,0.5-1.812,0.5-2.312c0-1.041-0.396-1.562-1.188-1.562l-1.375,0.5
		c-0.667-0.666-1.229-1-1.688-1l-1.25,0.625l1.375,2.938l-1.5,0.562l0.375,1l-0.5,2.688l0.25,5.375l-0.375,1.812l-1.062,0.5
		l0.125,1.5l1.062,3.625c0.083,0.084,0.125,0.136,0.125,0.156c0,0.021,0,0.053,0,0.094c0,0.667-0.521,1.688-1.562,3.062l0.5,2.562
		l0.562,1.438v18.375l0.75,5.375c0,0.042,0,0.084,0,0.125c0,0.042-0.042,0.146-0.125,0.312l-0.75,3.562l0.125,0.75
		c0.75,0.417,1.125,0.896,1.125,1.438c0,0.542-1.021,2.292-3.062,5.25l-0.75,1.125l-1.438-0.125
		c-0.792,0.958-1.438,1.438-1.938,1.438h-0.125L10,108.562l-1.062,0.25l0.125-1.562c0.125-1.166,0.312-1.938,0.562-2.312l1.375-1.75
		l1.062-1.562l-1.438-1.25L11,98.938l0.75-1.812c-0.417-1.25-0.625-1.958-0.625-2.125c0.041-0.083,0.072-0.156,0.094-0.219
		c0.021-0.062,0.031-0.135,0.031-0.219l0.938-3.312l-0.312-7.188c0.375-0.625,1.021-1.041,1.938-1.25v-0.625L12.438,80.5l0.25-1.375
		l-0.25-1.312l0.375-3.562c0-0.041-0.011-0.083-0.031-0.125c-0.021-0.041-0.053-0.083-0.094-0.125l-0.812-2.688l0.438-3.625
		l-0.25-2.562c0-0.833,0.583-1.646,1.75-2.438l-0.125-1.5l-0.875-2.062c0-0.416,0.125-1.021,0.375-1.812
		c-0.75-0.625-1.125-1.291-1.125-2c0-0.75,0.25-2.041,0.75-3.875l-0.625-0.875l-0.125-1.812L11.5,44.438
		c0-0.291,0.188-0.896,0.562-1.812v-1.438c0-2.541-0.229-4.104-0.688-4.688L8.562,33l0.5-1.375l1.562-0.938
		c1.041-0.583,1.771-1.062,2.188-1.438c0.416-0.375,0.75-0.916,1-1.625L14.875,27l2.938-3.438c0.166-0.166,0.416-0.25,0.75-0.25
		c0.958,0,1.688,0.584,2.188,1.75l2.812,5.5L24.688,32l1.062,1.938l-0.375,0.375c1,1,2.312,2.875,3.938,5.625l3.188,5.375
		c0.708,1.25,1.062,1.979,1.062,2.188c0,0.5-0.188,0.959-0.562,1.375l2.562,1.438l-0.375,1.125l1.062,1.312l2.562,3.688l1.875,1.812
		l0.688,2.062l5.625,6l-1.188,0.625c0.208,0.834,0.479,1.386,0.812,1.656c0.333,0.271,1,0.49,2,0.656l2.938,4.062l-0.875,0.125
		l1.688,1.188c1.166,0.834,1.916,1.5,2.25,2c0.333,0.5,0.562,1.292,0.688,2.375l0.875,0.875l-0.125,0.875
		c0,0.917,0.291,1.896,0.875,2.938l1.438,0.938c1.791,0.792,2.729,1.25,2.812,1.375l2.688,4.125L65.25,91l1.812,1.562l0.625-1.438
		l-0.125-7.562l1.312-3.062c-0.875-0.916-1.312-1.729-1.312-2.438c0-0.416,0.041-0.708,0.125-0.875l0.812-2.562l0.375-8.938l1-1.938
		l-0.75-1.938l0.5-2.938V58.75c0-0.541-0.5-1.021-1.5-1.438l-0.312-16.25c0.583-0.041,0.969-0.197,1.156-0.469
		c0.188-0.271,0.322-0.822,0.406-1.656L67.438,37.5l-0.25-2.188c-0.209-1.833-0.469-3.041-0.781-3.625
		c-0.312-0.583-0.948-0.875-1.906-0.875c-0.167-0.666-0.25-1.166-0.25-1.5c0-1.541,1.791-2.771,5.375-3.688
		c0.583-0.875,1.094-1.479,1.531-1.812C71.594,23.479,72.541,23,74,22.375c0.5,0.834,0.75,1.604,0.75,2.312L74.5,26.5l0.375,1.375
		l-0.125,2.438l0.125,5.25c0,1.042-0.125,1.938-0.375,2.688L74,40.812v0.125l1,4.125l-0.25,3.062L75.125,49.5z"/>
	<path d="M149,94.062c0,0.542-0.104,1.021-0.312,1.438l-1.25,2.188l-2.938,5.062l-2.688,0.188l-1.688,1.375
		c-0.375,0.375-1.021,0.625-1.938,0.75l-11.25,2.188l-1.75,0.625l-4-0.375l-5.75,0.5l-6.5-0.375h-1.812
		c-0.917-0.709-1.479-1.125-1.688-1.25l-6.125-2.188l-2.062-1.938l-4.062-2.812l-3.25-4.312l-1.25-1.062
		c0.5-1,0.75-1.896,0.75-2.688c0-0.333-0.084-0.583-0.25-0.75L87.5,87.938l-0.375-3.562L87,81.5c0-0.958,0.229-2.229,0.688-3.812
		c0.708-2.5,1.291-4,1.75-4.5l2.312-2.938l1.188-2.688l2.938-2.812l3.188-4.188L101.875,59l4.062-2.812l2.688-1.812l0.938-0.625
		l1.875-0.375l5.688-1.812l4.438-0.5l2.688-1.125l1.312-0.125c2.125,0,3.916,1.146,5.375,3.438c0.791-0.083,1.375-0.521,1.75-1.312
		l1.688,1.438l2.312,1.25l5.25,5.125c0.666,0.834,1.177,1.553,1.531,2.156c0.354,0.604,0.708,1.24,1.062,1.906
		c0.354,0.667,0.666,1.396,0.938,2.188c0.271,0.792,0.677,2,1.219,3.625l0.5,1.562l-0.625,0.25l-2.438-0.5l-2.688,0.875
		l-2.062-0.375l-2.312,0.625l-4.375-0.5l-4.188,0.25l-4.375-0.75L117,71.188l-3.5-0.125l-8.438,1.125L102,72.062l-4.25,1.25
		l-1.5,0.312l-0.25,1.5c-0.084,1.042-0.229,1.75-0.438,2.125c-0.209,0.375-0.667,0.812-1.375,1.312l0.125,1.188
		c1.375,1.042,2.104,1.688,2.188,1.938l1.625,6.375l0.812,1.562c-0.417,0.417-0.625,0.792-0.625,1.125
		c0.041,0.084,0.083,0.167,0.125,0.25l2.375,0.75l0.562,1.562c0.416,1.459,0.958,2.354,1.625,2.688l3.375,1.375l1.125,2.438
		c0.583,0.292,1.521,0.521,2.812,0.688l0.875,1.625l1.938,0.25l5.375,1.938l4.5-0.875l11.875-1.938l2.562-1.562l4-2.438l3.312-4.312
		c0.583-0.708,1.271-1.062,2.062-1.062C148.271,92.125,149,92.771,149,94.062z M134.25,64.625c0-0.666-0.771-2.062-2.312-4.188
		l-4.312-3.125l-1.438-1.5l-2.062-0.125l-4.75-0.375l-1.125,0.25l-2.688,1.5l-3.438,0.812L107.75,59.5l-1.688,0.625l-2,3
		c-1.25,0.875-1.938,1.417-2.062,1.625l-0.25,0.75l7.688,0.562l0.875-0.125l1.438-0.438l1.375,0.312l3.688,0.75H117l4.188-0.75
		L122.5,65.5l1,1.438h1.438l5.5-1.125l2.25,0.25C133.729,65.938,134.25,65.459,134.25,64.625z"/>
	<path d="M232.75,50.438c-0.209,3.625-0.459,5.917-0.75,6.875l-1.375,4.125l-0.375,1.812l-1.312,3.438l-0.375,2.188
		c-0.125,0.417-0.688,1.042-1.688,1.875l-0.125,1.312l0.125,1.812L220.25,95.25l-0.625,6.375l-4.875,3.812l-1.562,2.062l-1.25,0.938
		l-1.062-0.938l-1-1.25l-1.562-0.938l-0.375-1.125l-0.75-2.688l-1.438-1.688l1.188-0.75l-0.125-1.125l-1.188-1.312l-1.75-1
		c-0.625-0.333-1.146-1.062-1.562-2.188l-1.562-6.375l-2.25-4.375c0.125-0.583,0.416-0.875,0.875-0.875c0.416,0,0.75,0.084,1,0.25
		c0-1.958-0.542-3.25-1.625-3.875l-1.938-1c-0.5-0.333-1.146-2.208-1.938-5.625l-0.5-1.188h-0.625l-0.625,1.438l-4.5,15.375
		l-3.188,9.062l-0.812,3.688l-0.75,2.188l-0.375,2.188l-2.938,2.062l-1,1c-1.125,0.166-1.948,0.354-2.469,0.562
		c-0.521,0.208-1.156,0.583-1.906,1.125l-0.625-1.562l-1.938-3.438l-1-2.438l-2.562-8.812l-3.625-6.438l0.375-5l-0.375-1.125
		c-1.5,0-2.479-0.521-2.938-1.562l-1-2.562L160.188,74l-1.375-4.5L157,67.562l-4.625-9.688l-0.875-1.562
		c0.875-2.041,1.771-3.229,2.688-3.562l2.562-0.938l2.688-2c0.125-0.041,0.239-0.072,0.344-0.094
		c0.104-0.021,0.239-0.031,0.406-0.031c0.583,0,1.083,0.167,1.5,0.5c0.416,0.334,0.729,0.792,0.938,1.375l2.562,9.5l0.5,1.5
		c-0.209,0.459-0.625,0.938-1.25,1.438c0.583,1.875,1.229,2.812,1.938,2.812h1l1.25-0.25c1.208,1.667,1.812,2.729,1.812,3.188V70
		l-0.375,2.812l1.25,4.125L172,79.375l1.625,2.312L177,92.438l1.375,1.625l0.75,1.188h1.188l0.5-1.188
		c1.083-1.833,1.771-3.5,2.062-5l0.25-3.688l1.625-3.562l0.812-3.375c0.041-0.125,0.771-2,2.188-5.625
		c0-2.125,0.072-3.708,0.219-4.75c0.146-1.041,0.438-1.833,0.875-2.375c0.438-0.541,1.177-1.062,2.219-1.562l-0.625-1.438
		L189,60.938l0.25-4l-0.5-1.875L188.625,53l1.5-0.75l1.438-0.938c0.708-0.583,2.25-1,4.625-1.25l1.125-0.125l1.188,0.875l1.5,1
		l0.75,4.25l1.188,5.25l-0.875,2.438c0.125,0.334,0.375,0.792,0.75,1.375c0.375,0.584,0.916,1.062,1.625,1.438L205,70.938
		l0.375,1.25l1.188,3.938L212.312,92c0.333,0.917,0.697,1.542,1.094,1.875c0.396,0.334,0.969,0.604,1.719,0.812l1.812-2.812
		c-0.459-0.791-0.688-1.688-0.688-2.688c0-0.333,0.083-0.666,0.25-1l4.375-11.125L221,74.25l1.812-5.75l0.25-4.375l0.75-4.125
		c0.125-1.458,0.239-2.666,0.344-3.625c0.104-0.958,0.281-1.719,0.531-2.281s0.677-1.041,1.281-1.438
		c0.604-0.396,1.219-0.802,1.844-1.219c1.625-1,2.688-1.5,3.188-1.5C231.166,49.938,231.75,50.104,232.75,50.438z"/>
	<path d="M350.688,101.875c0,1.25-0.292,2.396-0.875,3.438l-1.188-0.125l-0.875,0.125l-1.688,0.938l-4.312-0.625l-4.25,1.5H331
		l-8.062,1H322.5l-2.688-0.25c-2.209,1.125-4.167,1.688-5.875,1.688l-1.25-0.125l-4-0.5l-9.062-0.375L297.188,108l-3.438-0.625
		L292.062,107l-0.5-1.562c-0.792,0-1.396-0.25-1.812-0.75c-0.959,0.417-1.542,0.625-1.75,0.625c-0.459,0-1.229-0.333-2.312-1
		l-1.312-0.625c-0.084-1.125-0.459-2.062-1.125-2.812c-0.834,0.334-1.438,0.5-1.812,0.5c-0.25,0-0.459-0.083-0.625-0.25
		l-0.625-0.625l-2.812-2.688l-1.688-3.375l-1.562-1.75l-1.75-2.562l-0.938-2.188c0.625-1.166,0.979-2.312,1.062-3.438l-0.688-0.938
		l-2.25-0.375l-1.062-2.312c-0.417-0.625-0.625-1.208-0.625-1.75c0-0.375,0.041-0.771,0.125-1.188v-0.125l-0.875-5
		c-0.084-0.333-0.125-0.875-0.125-1.625c0-1.041,0.208-2.166,0.625-3.375l-0.75-1.25l0.75-4c0.125-1.5,0.291-2.656,0.5-3.469
		c0.208-0.812,0.583-1.614,1.125-2.406c-0.084-0.166-0.125-0.375-0.125-0.625c0-0.291,0.271-0.938,0.812-1.938l0.375-1.375
		l2.438-1.062l-0.125-2.188c0-0.5,0.083-0.833,0.25-1l3.188-4.062l1.562-2.812l1.625-1.438l1.688-2.438L284,35.438l1-1.75
		l5.938-2.438l2-1.562l2.312-0.375l0.812-0.625l1.125-0.812l1.25-0.625c2.25-0.833,4.041-1.333,5.375-1.5l5.562-0.125l2.688-1.188
		l5.188-0.5l3.25-0.625l6,0.75h0.875h1.062c1.083,1.209,1.708,1.812,1.875,1.812c0.583,0,1.146-0.396,1.688-1.188h0.625l0.25-0.5
		l1.438,0.25L337.875,26l2.438,0.125c1.041,0,1.562,0.417,1.562,1.25c0,0.667-0.604,1.229-1.812,1.688c-1.292,1-2.229,1.5-2.812,1.5
		l-1.125-0.375c-0.792,1.625-1.646,2.438-2.562,2.438H333l-2.438-0.875L327.75,31l-2-1.438l-2.938-0.75L320,27.75l-7.312,0.562
		l-4.25,0.125c-2.375,0.125-4.167,0.542-5.375,1.25l-4.188,2.562l-4.125,1.938l-5.125,3.562l-2.188,1l-1.375,2.875
		C284.021,42,283,42.709,283,43.75c0,0.5,0.166,1.021,0.5,1.562l-1.188,1.5c-0.5,0.875-1.125,1.521-1.875,1.938l0.375,1.812
		l-0.625,1.5l-2.062,6.688l-0.75,1.938L276.812,63l0.25,1.375v1.312l-0.375,1.125l-0.5-0.25l0.25,1c-1,0.667-1.5,1.271-1.5,1.812
		c0,0.375,0.333,0.938,1,1.688l1.938,0.625v1.625c0,0.625,0.125,1.229,0.375,1.812c-0.792,0.667-1.188,1.271-1.188,1.812
		c0,0.25,0.104,0.5,0.312,0.75L279,77.062l0.625,1.25l1.312,4.25L282.312,85l-0.5,2.312l0.75,1.25h0.688
		c0.75,0,1.354,0.229,1.812,0.688c0.458,0.459,0.916,1.292,1.375,2.5l0.5,1.312l0.625,0.625l-1.5,0.875l0.875,0.688l2.312-0.562
		l1.688,1.188l1.25,0.75l1.438,1.312l2.438,0.875l4.312,2.688l2.188,0.75l-0.375,1.312c1.5,0.167,2.479,0.334,2.938,0.5l1.938,0.625
		l5.25,0.125l1.25,0.812l1.312-0.562l4.688-0.375l2.562-0.375l1.312-0.125c0.583,0,1.271,0.209,2.062,0.625l1.25-0.75
		c1.333-0.583,2.271-0.875,2.812-0.875h0.125l1.938,0.125l2.438-0.375l-0.125-0.688l1.125-0.5c1.083-0.333,1.739-0.572,1.969-0.719
		c0.229-0.146,0.635-0.51,1.219-1.094l0.25,0.438c1.458-0.5,2.188-1.146,2.188-1.938l-0.5-1.938l0.125-4.875l-0.5-7l1-2.188v-0.5
		c0-0.875-0.459-1.646-1.375-2.312l-0.25-1.312L338.938,76l0.25-1.375l-1.312-0.125l-4.75-0.375l-3.188-0.25L328.688,74L326,74.25
		c-0.167,0-0.604-0.125-1.312-0.375l0.375-1.812c0.583-0.166,0.958-0.312,1.125-0.438c0.166-0.125,0.479-0.583,0.938-1.375l0.938-1
		c1.208,0.5,2.354,0.75,3.438,0.75h1l14.75-0.875L349,69.25c0.958,1.584,1.438,2.812,1.438,3.688c0,0.584-0.438,1.104-1.312,1.562
		v1.125h0.812l-0.125,2.312l0.125,1.312c0,0.667-0.073,1.156-0.219,1.469c-0.146,0.312-0.469,0.678-0.969,1.094l0.688,3.062
		c0.583,0.792,0.875,1.771,0.875,2.938c0,1.209-0.167,2.354-0.5,3.438c-0.959,0.084-1.584,0.281-1.875,0.594
		c-0.292,0.312-0.438,1.011-0.438,2.094l3.188,2.812l-0.125,4L350.688,101.875z"/>
	<path d="M419.25,102.625l-0.625,1.188l-1,1.5L415.812,106l-2.562,1.375l-2.438,0.75c-1.542,0.625-2.438,0.938-2.688,0.938
		c-0.292,0-0.573-0.156-0.844-0.469c-0.271-0.312-0.406-0.594-0.406-0.844c0-0.417,0.208-1.354,0.625-2.812
		c0.208-0.416,0.375-1.146,0.5-2.188l-1.25,0.812l-5.625,1.875c-1.125,0.542-2.25,0.812-3.375,0.812h-0.125h-2.438l-2.938,1.375
		l-2,0.25l-5.812,1.188l-2.375-0.375l-1.688,0.625l-1.188,0.25l-1.875-0.125l-4.125-0.875l-2.812-0.25
		c-1.917-0.25-3.573-0.906-4.969-1.969c-1.396-1.062-2.428-2.427-3.094-4.094l-1.688-0.625l-0.375-1.562l-0.125-1.125L359.25,96
		l2.312-4.625l0.75-2.062c0.25-0.541,1.021-1.333,2.312-2.375l4.875-4l2.062-0.75L375,80.75c0.041,0,0.125,0.011,0.25,0.031
		c0.125,0.021,0.25,0.053,0.375,0.094c0.833-1.791,2.416-2.688,4.75-2.688l0.375-0.375h1.312c0.541-0.666,1.083-1.125,1.625-1.375
		c0.541-0.25,1.562-0.521,3.062-0.812l7.812-1.375l2.312,0.25l2.938-0.625l5.25-0.562c1.791-0.416,2.688-1.271,2.688-2.562
		c0-0.166-0.042-0.291-0.125-0.375L407,67.562l0.5-4.062c-0.125-0.875-0.438-1.51-0.938-1.906c-0.5-0.396-1.25-0.656-2.25-0.781
		l-0.875-1.438c-0.917-1.5-1.667-2.469-2.25-2.906c-0.584-0.438-1.688-0.822-3.312-1.156l-3.562-0.812l-3.438-0.125l-1.688,0.25
		c-0.375-0.166-0.667-0.375-0.875-0.625c-0.209-0.25-0.375-0.625-0.5-1.125l-1.688,0.75l-1.938,1.812l-6.125,3.062
		c-1.292,0.709-2.146,1.396-2.562,2.062l-0.875,1.25c-0.417,0.667-0.979,1-1.688,1l-1.25-0.25l-1.812-0.875l-1.938-0.375
		c-0.625-0.208-1.25-0.562-1.875-1.062s-0.938-0.958-0.938-1.375c0-0.25,0.041-0.375,0.125-0.375l1.062-0.75l2-1.562l2.188-0.375
		l3.312-1.688l4.125-1.375l1.125-0.25l2.688-1.438l2.188,0.375l7.562-1.625l3.188,0.125h2.438l2.562,0.875l7.438,1.438l1.125,0.625
		v0.875l-0.875,0.5c0.25,1.459,0.771,2.188,1.562,2.188c0.083-0.041,0.146-0.072,0.188-0.094c0.041-0.021,0.104-0.031,0.188-0.031
		l1.75-0.75h0.25c0.416,0,0.688,0.209,0.812,0.625l1.25,2.312l1.312,1v1.438l-0.25,3.188c0,1.375,0.666,2.562,2,3.562l0.812,9.25
		l-1.688,2.312l1.938,2.25l0.125,0.812l-0.375,5.875l0.5,4.5v1v1.438l-0.875,0.25c0.083,1.042,0.146,1.709,0.188,2
		c0.041,0.292,0.188,0.719,0.438,1.281s0.541,1.219,0.875,1.969L419.25,102.625z M409.312,91.75c-0.625-0.541-1.021-1-1.188-1.375
		l0.25-2.562l-0.5-5.75l0.75-1.688l-2-1.125l-1.062,0.25l-5.75-0.375l-2.688,0.125l-2.062-1.438l-1.25,0.75l-3.438,0.125
		l-2.438,0.938l-1.438-0.812l-1.75,1.062l-9.375,4.5l-2.062,1.5l-1.625,2.438l-2.188,1.312c-0.334,0.334-0.5,0.709-0.5,1.125
		c0.041,0.084,0.083,0.167,0.125,0.25l0.5,0.75l-0.125,0.562l1.375,5.625L369.5,101.5l1,1.25l1.688-2
		c0.583,0.5,1.125,0.917,1.625,1.25c0.5,0.334,1.104,0.615,1.812,0.844c0.708,0.229,1.604,0.469,2.688,0.719l1.312,1.75l4.312,0.438
		l1.188-1.188l1.25,0.625l0.875-0.5l0.688-0.375c1,0.334,1.583,0.5,1.75,0.5c1.25,0,2.875-0.583,4.875-1.75
		c0.125-0.083,0.291-0.177,0.5-0.281c0.208-0.104,0.521-0.281,0.938-0.531c3.75,0,6.229-0.771,7.438-2.312l1.25-1.625l3.062-2.562
		l0.125-0.75l-0.125-0.812c0.625-0.208,1.021-0.458,1.188-0.75C409.104,93.146,409.229,92.584,409.312,91.75z"/>
	<path d="M509.125,103.688l-1.625,0.875l-3.188,1.688l-3.375,2.438c-0.25,0.083-0.542,0.125-0.875,0.125
		c-0.292,0-0.896-0.084-1.812-0.25l-0.25-3.125l0.25-1.625l0.938-2.938l-0.688-6.188l0.562-3.438l0.125-3.188l1.25-3.062v-0.375
		c0-0.583-0.375-1.146-1.125-1.688l-0.125-1.438l-0.25-6.375c0-0.5,0.041-0.833,0.125-1l1.5-4.5l-1.625-2.438L498,61.438l-0.5-1.562
		l-1.125-0.5l-2.812-1.75c-0.459-0.291-1.396-0.438-2.812-0.438c-2.042,0-3.761,0.146-5.156,0.438
		c-1.396,0.292-3.053,0.875-4.969,1.75c-2.917,1.5-4.375,2.792-4.375,3.875v4.438l-1.688,1.188c0,0.084-0.011,0.146-0.031,0.188
		c-0.021,0.042-0.053,0.104-0.094,0.188c0,0.75,0.562,1.479,1.688,2.188l0.5,14.312c-0.667,0.334-1.084,0.5-1.25,0.5
		c0.041,0-0.312-0.083-1.062-0.25l0.125,1.438L476.25,91l-0.375,2.188l0.25,1.25c0.291,1,0.583,2.521,0.875,4.562
		c0.291,2.042,0.438,3.604,0.438,4.688c0,0.125-0.104,0.292-0.312,0.5l-0.875,0.5l-2.312,1.688l-3.688,1.5l-1.188,0.562
		c-0.209,0-0.709-0.312-1.5-0.938v-0.75l0.5-6.375l-0.25-5.562c0-0.833,0.114-1.447,0.344-1.844
		c0.229-0.396,0.719-0.844,1.469-1.344l0.125-1.25l-1.062-2.062l-0.25-1.562l-1-1.75l0.25-1.812l0.125-5.125l2.062-2.562
		c0.083-0.166,0.125-0.416,0.125-0.75c0-1.125-0.396-1.688-1.188-1.688c-0.334,0-0.584,0.042-0.75,0.125l-0.625-1.25v-1.562
		l0.125-2.562V66.5c0-5.25-1.375-7.875-4.125-7.875c-0.459,0-1.125,0.167-2,0.5l-1.312-1.938l-1.562,0.438l-1.125,0.875
		l-3.062,0.375l-3.062,1.25l-2.438,0.312l-1.438,0.625l-0.75,1.375c-1.167,2.25-1.906,3.979-2.219,5.188
		c-0.312,1.209-0.469,2.688-0.469,4.438v1l0.25,8.625l-0.125,1.5l-1.688,0.625l0.312,1.312l1.375,2.062L444,93.562l0.875,11.25
		c-0.042,0.167-0.209,0.417-0.5,0.75c-0.292,0.334-0.709,0.646-1.25,0.938L439,108.562c-0.375,0.25-0.917,0.375-1.625,0.375
		c-0.542,0-1.188-0.125-1.938-0.375V107v-1.688l0.125-6.25l-0.375-2.562l1-1.812l0.375-1.625l-1.125-0.938l-0.125-1.5V89.75
		l0.25-0.938l1.125-1.625l0.5-1.312V84.5c-0.75-0.083-1.261-0.364-1.531-0.844c-0.271-0.479-0.406-1.614-0.406-3.406
		c0-1.25,0.021-2.271,0.062-3.062l0.125-3.062v-1.312l1-0.125l0.125-2.812l-0.25-2.062l-1-2.312l-0.5-4.688l-0.562-2.438L434,56.688
		l-0.5,0.5l-1.375-1.25c0.75-1.375,1.76-2.531,3.031-3.469c1.271-0.938,3.239-1.927,5.906-2.969c1.083,0.959,1.781,1.709,2.094,2.25
		c0.312,0.542,0.469,1.334,0.469,2.375l-0.125,2.312L443.375,59l2.312-0.5l2.438-2.562l1.75-0.625l2.562-2.062l6.938-2.312l1-0.5
		l1.438-0.5c0.666,0.709,1,1.604,1,2.688L463.938,53L465,52.625v-1.562c1.125-0.75,1.896-1.125,2.312-1.125
		c0.083,0,0.375,0.084,0.875,0.25l0.5-0.375c0.458-0.083,0.896-0.125,1.312-0.125c1.333,0,2.458,0.49,3.375,1.469
		c0.916,0.979,1.541,2.365,1.875,4.156c0.125,0.625,0.271,1.073,0.438,1.344c0.166,0.271,0.521,0.531,1.062,0.781l1.062-0.875
		l2-2.062l2.438-1.25l3.375-2.062l1.5-0.375h0.125l2.688,0.125l2.438-0.75h3.75l2.125-0.25l2.188,0.875L503,51.438
		c2.375,0.542,3.562,1.917,3.562,4.125c-0.667,0.542-1,1.042-1,1.5c0,0.167,0.114,0.344,0.344,0.531
		c0.229,0.188,0.447,0.281,0.656,0.281c0.291,0,0.604-0.083,0.938-0.25L507.75,59l0.25,3.438L508.625,64l0.125,1l-0.25,4.125
		l-0.125,3.562v1.438l-0.75,1.125c-0.417,0.709-0.625,1.188-0.625,1.438l0.75,6.75L508,85.5v0.125l-0.125,4.25L508,90l0.25,2.125
		c-0.125,0.375-0.584,0.812-1.375,1.312v2.188L508,95.25l0.25,1.375V101L509.125,103.688z"/>
	<path d="M581.375,94.062c0,0.542-0.104,1.021-0.312,1.438l-1.25,2.188l-2.938,5.062l-2.688,0.188l-1.688,1.375
		c-0.375,0.375-1.021,0.625-1.938,0.75l-11.25,2.188l-1.75,0.625l-4-0.375l-5.75,0.5l-6.5-0.375H539.5
		c-0.917-0.709-1.479-1.125-1.688-1.25l-6.125-2.188l-2.062-1.938l-4.062-2.812l-3.25-4.312l-1.25-1.062
		c0.5-1,0.75-1.896,0.75-2.688c0-0.333-0.084-0.583-0.25-0.75l-1.688-2.688l-0.375-3.562l-0.125-2.875
		c0-0.958,0.229-2.229,0.688-3.812c0.708-2.5,1.291-4,1.75-4.5l2.312-2.938l1.188-2.688l2.938-2.812l3.188-4.188L534.25,59
		l4.062-2.812L541,54.375l0.938-0.625l1.875-0.375l5.688-1.812l4.438-0.5l2.688-1.125l1.312-0.125c2.125,0,3.916,1.146,5.375,3.438
		c0.791-0.083,1.375-0.521,1.75-1.312l1.688,1.438l2.312,1.25l5.25,5.125c0.666,0.834,1.177,1.553,1.531,2.156
		c0.354,0.604,0.708,1.24,1.062,1.906c0.354,0.667,0.666,1.396,0.938,2.188c0.271,0.792,0.677,2,1.219,3.625l0.5,1.562l-0.625,0.25
		l-2.438-0.5l-2.688,0.875l-2.062-0.375l-2.312,0.625l-4.375-0.5l-4.188,0.25l-4.375-0.75l-7.125,0.125l-3.5-0.125l-8.438,1.125
		l-3.062-0.125l-4.25,1.25l-1.5,0.312l-0.25,1.5c-0.084,1.042-0.229,1.75-0.438,2.125c-0.209,0.375-0.667,0.812-1.375,1.312
		l0.125,1.188c1.375,1.042,2.104,1.688,2.188,1.938l1.625,6.375l0.812,1.562c-0.417,0.417-0.625,0.792-0.625,1.125
		c0.041,0.084,0.083,0.167,0.125,0.25l2.375,0.75l0.562,1.562c0.416,1.459,0.958,2.354,1.625,2.688l3.375,1.375l1.125,2.438
		c0.583,0.292,1.521,0.521,2.812,0.688l0.875,1.625l1.938,0.25l5.375,1.938l4.5-0.875l11.875-1.938l2.562-1.562l4-2.438l3.312-4.312
		c0.583-0.708,1.271-1.062,2.062-1.062C580.646,92.125,581.375,92.771,581.375,94.062z M566.625,64.625
		c0-0.666-0.771-2.062-2.312-4.188L560,57.312l-1.438-1.5l-2.062-0.125l-4.75-0.375l-1.125,0.25l-2.688,1.5l-3.438,0.812
		l-4.375,1.625l-1.688,0.625l-2,3c-1.25,0.875-1.938,1.417-2.062,1.625l-0.25,0.75l7.688,0.562l0.875-0.125l1.438-0.438l1.375,0.312
		l3.688,0.75h0.188l4.188-0.75l1.312-0.312l1,1.438h1.438l5.5-1.125l2.25,0.25C566.104,65.938,566.625,65.459,566.625,64.625z"/>
</g>
</svg>
