<?xml version="1.0" encoding="utf-8"?>
<!-- Generator: Adobe Illustrator 15.0.0, SVG Export Plug-In . SVG Version: 6.00 Build 0)  -->
<!DOCTYPE svg PUBLIC "-//W3C//DTD SVG 1.1//EN" "http://www.w3.org/Graphics/SVG/1.1/DTD/svg11.dtd">
<svg version="1.1" id="Layer_1" xmlns="http://www.w3.org/2000/svg" xmlns:xlink="http://www.w3.org/1999/xlink" x="0px" y="0px"
	 width="262.688px" height="184.062px" viewBox="0 0 262.688 184.062" enable-background="new 0 0 262.688 184.062"
	 xml:space="preserve">
<g>
	<path d="M121.188,107.375c0,1.583-0.865,3.01-2.594,4.281c-1.729,1.271-3.844,2.031-6.344,2.281l-11.625,0.875l-5.875,0.875
		l-6.812-0.875l-2.688,0.125c-1.084,0-2.459-0.334-4.125-1l-5.875-2.188l-2.562-0.375l-2.562-1.188l-3.812-0.625l-1.562-1
		l-1.125-0.812c-1.084,0.625-1.938,0.938-2.562,0.938c-0.5,0-0.834-0.084-1-0.25L59,107.375l-1.375-0.75
		c-0.084,0-0.167,0.042-0.25,0.125l-6.438,1.562l-5.75-1.938h-4.5l-2.062-1.062l-8.438-1.375L26,102.625l-1.312-0.25l-1.625-1.625
		l-2.938-1.188L17.25,96.5l-3.062-1l-1.5-1.938L12.938,92c0-0.583-0.125-1-0.375-1.25l-4.625-2.438
		c-0.792-0.416-1.604-2.302-2.438-5.656c-0.834-3.354-1.25-6.469-1.25-9.344L4.75,69l0.625-2.312L5.5,64l3.312-8.312l0.25-0.938
		c0.625-1.375,2-3.458,4.125-6.25c1.375-1.875,2.354-2.812,2.938-2.812c0.5,0,0.875,0.042,1.125,0.125
		c0.791-0.458,1.322-0.885,1.594-1.281c0.271-0.396,0.469-1.072,0.594-2.031l1.062-0.875l2.688-3l12.375-7.812L37,29.562l1.938-0.5
		l11.5-4.375l2.812-0.25l1.25-0.125l1.312,0.75c1.125-0.791,1.969-1.281,2.531-1.469s1.51-0.281,2.844-0.281h1.375h0.188h0.5
		l3.812-0.25l2.312-0.125c0.291-0.041,0.729-0.062,1.312-0.062c1.75,0,3.583,0.198,5.5,0.594c1.916,0.396,3.312,0.803,4.188,1.219
		l3.062,1.688l7.188,2.812c0.75,0.459,1.125,0.917,1.125,1.375l0.438,1.812l0.625,1.125l1-0.25c0.625,0,1.438,0.438,2.438,1.312
		l-0.625,0.5l1,2.188l1.938,0.375l2.562,0.5l1.688,1.938l1.875,1.375l0.812,2.188l1.375,1.938c0.416,0.709,0.625,1.271,0.625,1.688
		c0,0.25-0.042,0.417-0.125,0.5l-0.75,1.75c0,0.125-0.011,0.209-0.031,0.25c-0.021,0.042-0.053,0.104-0.094,0.188
		c0,0.584,0.688,1,2.062,1.25l0.75,1.312c1.375,2.167,2.062,4.125,2.062,5.875c0,0.625-0.354,1.354-1.062,2.188l1.188,1l0.375,6.938
		l-0.25,1.375l-1.312,5.75l-1,0.812c0,0.584-0.084,1.042-0.25,1.375l-0.625,1l0.75,1.938v0.375c0,0.75-0.688,1.875-2.062,3.375
		l-1.25,1.625l0.625,1.438l-2.812,4.188c-0.5-0.416-1.021-0.625-1.562-0.625c-0.375,0-0.834,0.209-1.375,0.625
		c-0.084,0.167-0.125,0.396-0.125,0.688c0,0.459,0.25,1.125,0.75,2c-2.25,3.375-7.542,6.917-15.875,10.625l1.562,1.312L91.625,107
		c0.5,0,1.188,0.646,2.062,1.938l0.75,1l1.312,0.5l0.5-0.625c3.666,0.666,6.958,1,9.875,1c1.958,0,3.625-0.188,5-0.562
		s2.688-0.979,3.938-1.812c2.375-1.625,3.916-2.438,4.625-2.438C120.688,106,121.188,106.459,121.188,107.375z M102,56.938
		l-0.5-1.625l-0.375-1.438h-1.938l-0.375-1l-0.375-3.5l-1.812-2.562L95,43.125l-2.562-2.562L90,37.625l-2.062-1.25l-0.75-1.688
		l-0.562,0.375l-1.5-1l-2.062-1.688l-3.688-0.75l-5.125-2.938L68.375,27.5l-4.75-1l-2.938,0.25h-3.062l-2.562,0.75l-3.125,0.375
		l-3.188,1.562L47,29.312l-7.938,3.812L37,33.688l-3.438,2.938L31.75,37.25l-3.188,3.188l-3.188,2.938l-2.438,2.812l-2.562,3.875
		l-1.562,1c-0.542,0.292-0.875,0.938-1,1.938c-0.334,1.709-0.698,2.928-1.094,3.656C16.322,57.386,15.75,57.75,15,57.75
		c-0.542,0-0.979-0.041-1.312-0.125L11.75,59.25c0,0.5,0.125,0.865,0.375,1.094c0.25,0.229,1.021,0.636,2.312,1.219l-0.625,1.688
		l0.25,2.25l-0.25,4.625l0.5,2.562l0.125,2.188l0.938,1.562l0.625,1.5c-0.75,0.75-1.125,1.521-1.125,2.312
		c0,0.375,0.125,0.625,0.375,0.75l2.812,0.938l2.062,2.438c-0.292,0.459-0.438,0.792-0.438,1c0,0.709,0.771,1.562,2.312,2.562
		l0.812,1.812l2.688,1.625l2.125,1.812l6.688,2.688l2.812,2.438l3.562,1.25l3.188,1.188L47,101l2.688,1l1.125,0.5
		c1.708-0.75,3.552-1.385,5.531-1.906c1.979-0.521,3.594-0.781,4.844-0.781c0.625,0,1.354,0.354,2.188,1.062
		c0.708-0.416,1.125-0.625,1.25-0.625h1.938l1.25-0.312l2.062,1.438l1.938,0.125L75,102.375l3.188-1.125l2.188-0.375l3.188-2.938
		l1.312,0.625L86.938,97l1.375-2l4-2.562l2.25-2.812l1.188-1.438l0.875,0.75l1.312-2.312l-0.125-1.5l-0.125-1.438v-0.25l0.5-1.5
		l0.25-2.438l2.188-4.625l0.5-2.812l0.25-1.688c-0.75-1.5-1.125-2.688-1.125-3.562l0.25-6.125v-2.312
		C101.5,57.875,102,57.396,102,56.938z"/>
	<path d="M181.25,103.062c-0.292,1.084-0.917,1.834-1.875,2.25l-7.188,3.125c-1.292-0.75-1.938-1.958-1.938-3.625l0.125-3.562
		L169.25,101l-4.125,1.938l-5.75,2.812l-2.312,1.125l-7.562,1.438l-2.438,0.75h-0.625c-0.417,0-0.709-0.042-0.875-0.125L143.25,108
		l-2.812,0.812l-2.562-2.188l-5,0.75c-0.5-0.209-1.229-0.583-2.188-1.125c-0.959-0.541-1.771-1.146-2.438-1.812
		c-1.875-2.083-2.812-4.208-2.812-6.375c0-0.666,0.438-1.354,1.312-2.062l-2.062-0.75l-0.125-2.438l-0.125-3.375
		c0-1,0.166-1.833,0.5-2.5l1.188-2.188l-1.188-3.5l0.125-3.688l-0.125-4.25c0.041-0.25,0.479-1.688,1.312-4.312v-0.938l-1.188,0.562
		l-0.75-0.812v-1.25L124.438,59c0-1.166-0.125-2.062-0.375-2.688l-0.5-0.75c0-0.083-0.011-0.156-0.031-0.219
		c-0.021-0.062-0.053-0.114-0.094-0.156c0-0.708,0.5-1.354,1.5-1.938l0.75-0.375l4.625-1.938c1.5-0.583,2.521-0.875,3.062-0.875
		c0.625,0,1.188,0.584,1.688,1.75l0.625,1.438c-0.834,2.334-1.25,4.5-1.25,6.5l0.375,3.625l-0.125,1.5l-1.062,3.062
		c-0.042,1.125-0.084,1.906-0.125,2.344c-0.042,0.438-0.084,0.823-0.125,1.156c0,0.625,0.125,1.25,0.375,1.875l1.062,1.812
		l-1.438,4.75l0.5,1.5l-0.5,2.688l-0.5,3.625c0,0.334,0.041,0.584,0.125,0.75L133.875,90l0.438,6.625
		c0.25,1.209,0.781,2.062,1.594,2.562s2.489,1.146,5.031,1.938l4.625,1.25c0.833,0.167,2.229,0.25,4.188,0.25
		c1.416,0,2.458-0.125,3.125-0.375l3.562-1.375l3.812,1c0.666-0.208,1.104-0.896,1.312-2.062l2.062-1.125l2.812-3.875l2.312-1.875
		c0.625-0.833,1-2,1.125-3.5l0.5-6.375l0.5-1.375L169.5,80.25l0.125-2.312l0.25-9.875L169.5,64.75l-0.625-3.812
		c0-0.625,0.375-1.312,1.125-2.062l-0.25-1.125l-1-0.125l-0.312-1.938v-0.5L169,53.25v-1.312l1,0.312l6.938-2.438
		c0.041,0,0.083-0.021,0.125-0.062c0.041-0.041,0.083-0.062,0.125-0.062c0.458,0,0.844,0.386,1.156,1.156
		c0.312,0.771,0.469,1.781,0.469,3.031l-0.5,12.688l-0.875,9.75l-1.688-0.688c-0.5,1.167-0.75,1.979-0.75,2.438l0.375,1.312
		c0.5-0.166,0.875-0.25,1.125-0.25c0.375,0,0.688,0.104,0.938,0.312c0.25,0.209,0.375,0.479,0.375,0.812L177.188,92l1.25,2.188
		l0.625,6.062c0.208,0.25,0.489,0.573,0.844,0.969C180.26,101.615,180.708,102.229,181.25,103.062z"/>
	<path d="M207.75,51.938c-0.792,1.75-1.25,3.375-1.375,4.875L206,63l-1.188,2.125c0,0.084-0.011,0.167-0.031,0.25
		c-0.021,0.084-0.053,0.188-0.094,0.312c0,0.542,0.521,1.125,1.562,1.75L206,69.375V81.5l-0.25,9.75l0.875,4.125V97.5l0.25,4.25
		c-0.209,0.625-1.521,1.854-3.938,3.688l-3.125,2.438c-0.5,0.541-1.125,0.812-1.875,0.812c-0.542,0-1.021-0.167-1.438-0.5
		c-0.417-0.334-0.625-0.688-0.625-1.062c0-1.083,0.333-2.354,1-3.812l0.5-1.812l-0.625-0.625l0.938-10.5l0.375-1.062l1.625-0.25v-2
		c0-1.291-0.104-2.25-0.312-2.875c-0.209-0.625-0.729-1.458-1.562-2.5l0.125-2.062V79.25l-0.125-1.062
		c0-1.375,0.25-2.604,0.75-3.688l-0.875-1.062L197.812,70c0.583-0.333,0.875-0.708,0.875-1.125l-0.125-1.062l-1.812-0.25v-1.875
		L196.875,64v-2.562c0-1.125-0.115-1.958-0.344-2.5c-0.229-0.541-0.74-1.125-1.531-1.75c0.541-1.458,1.771-2.729,3.688-3.812
		l6-3.438C205.812,50.062,206.833,50.729,207.75,51.938z M211.5,18.812c0,0.917-0.229,1.521-0.688,1.812l-4.562,3.312l-1.812,1.812
		L201.125,28c-2.209,1.625-3.542,2.438-4,2.438c-0.209,0-0.428-0.135-0.656-0.406c-0.229-0.271-0.344-0.552-0.344-0.844
		c0-0.958,0.25-1.688,0.75-2.188l6.438-6.125l3.438-4.625c0.5-0.25,1.062-0.375,1.688-0.375c0.833,0,1.552,0.281,2.156,0.844
		C211.197,17.281,211.5,17.979,211.5,18.812z"/>
	<path d="M262.688,52.375l-0.625,1.75l-0.125,1.312l-4.5,3.312l-2.688,2.438l-1.562,0.25l-2.312-0.25
		c-1.542-0.166-2.948-0.406-4.219-0.719c-1.271-0.312-1.865-0.469-1.781-0.469h-0.125l-4.188,0.312l-2.438-0.438
		c-0.584,0.084-1.073,0.303-1.469,0.656c-0.396,0.354-0.594,0.74-0.594,1.156c0,0.459,0.25,0.75,0.75,0.875l-0.125,8.062
		c-1.792,0.5-2.688,1.271-2.688,2.312l0.125,1.438l2.562,0.5l0.25,6l0.125,1.312l-0.625,1.875c-0.5-0.25-0.917-0.375-1.25-0.375
		c-1.042,0-1.562,0.479-1.562,1.438c0,0.417,0.333,1.062,1,1.938c0.583-0.708,0.979-1.062,1.188-1.062
		c0.125,0,0.541,0.312,1.25,0.938l0.125,8.438l0.25,1.25l1.438,2.938c0.083,0.25,0.125,0.979,0.125,2.188
		c1.041,0.625,1.844,1.021,2.406,1.188c0.562,0.167,1.344,0.25,2.344,0.25c1.333,0,2.656-0.229,3.969-0.688
		c1.312-0.458,2.364-1.041,3.156-1.75l6.188-5.625c0.25-0.291,0.583-0.438,1-0.438c0.5,0,1.229,0.271,2.188,0.812l-0.375,1.375
		c-0.875,3.459-1.604,5.292-2.188,5.5L243,107.75l-2.562,1.312l-1.938-1.188l-1.312-0.25l-0.625,1.688l-1.125,0.125
		c-1.25,0-2.709-0.604-4.375-1.812c-1.75-1.416-2.688-2.479-2.812-3.188l-0.375-1.812l-0.75-2.125l0.125-3.5v-3.938l1.25-4.125
		l-0.375-1.5l-0.25-2.188v-1.438l0.25-6L228,76.125L227.75,74c0-0.166,0.041-0.25,0.125-0.25l1.625-1.938
		c0.208-0.291,0.312-0.541,0.312-0.75c0-0.958-0.729-1.438-2.188-1.438l-0.5-0.75c0.416-3.041,0.625-6.083,0.625-9.125
		c-2-0.416-3.5-0.625-4.5-0.625c-2.584,0-5.188,0.438-7.812,1.312c-0.334-0.291-0.5-0.604-0.5-0.938c0-0.708,0.166-1.166,0.5-1.375
		l2.438-2.062l0.375-1.438c0.125-0.333,0.333-0.604,0.625-0.812c0.291-0.208,0.521-0.312,0.688-0.312l7.25-0.25L228.5,53
		l-0.125-1.438L228,38.25l-1.562-3.562l-0.375-1.938c1.25-1.75,2.5-3,3.75-3.75s2.854-1.291,4.812-1.625
		c0.833-1.291,1.562-1.938,2.188-1.938c1.125,0,1.688,1.896,1.688,5.688c0,5.75-0.521,9.834-1.562,12.25
		c-0.584,1.709-1.167,2.562-1.75,2.562v2.938c0.625,0,1.041,0.053,1.25,0.156c0.208,0.104,0.458,0.365,0.75,0.781l-0.375,1.75
		l0.25,1.438l1.312,0.125l6.25,1.375c0.5,0.167,1.188,0.25,2.062,0.25c0.916,0,1.562-0.083,1.938-0.25l2.438-0.75l4.688-0.5
		l3.625-1.312h1.25h0.5h1.438C262.646,52.271,262.688,52.417,262.688,52.375z"/>
</g>
</svg>
