<?xml version="1.0" encoding="utf-8"?>
<!-- Generator: Adobe Illustrator 15.0.0, SVG Export Plug-In . SVG Version: 6.00 Build 0)  -->
<!DOCTYPE svg PUBLIC "-//W3C//DTD SVG 1.1//EN" "http://www.w3.org/Graphics/SVG/1.1/DTD/svg11.dtd">
<svg version="1.1" id="Layer_1" xmlns="http://www.w3.org/2000/svg" xmlns:xlink="http://www.w3.org/1999/xlink" x="0px" y="0px"
	 width="1292px" height="197.375px" viewBox="0 0 1292 197.375" enable-background="new 0 0 1292 197.375" xml:space="preserve">
<g>
	<path d="M78.312,90.75c0,1-0.209,2.188-0.625,3.562l-2.562-0.125l-0.875,0.375l0.25,1.688c0.916,0.5,1.375,1.271,1.375,2.312
		c0,1.709-0.167,2.812-0.5,3.312l-3.312,4.375l-1.125,1.875l-2.438,2.562L66.062,113l-1.312,0.688l-9.812,6.375l-4.875,1.562
		c-1.167,0.5-2.062,0.75-2.688,0.75c-0.167,0-0.604-0.125-1.312-0.375c-1.209,0.666-2.604,1-4.188,1l-2.938-0.125H33.25l-2-0.5
		l-7.438-0.5l-4.125-2.312l-1.75,0.375l0.75,0.625l-1.812-0.25l-1.75-0.25L10.25,116.5l-3.312-0.438l-3.5-2.125
		c-1.459-1.041-2.188-1.771-2.188-2.188c0-0.833,0.333-1.864,1-3.094c0.666-1.229,1.458-2.344,2.375-3.344
		c1.166-1.375,2.479-2.166,3.938-2.375l0.938,4.688c0.875,0.417,1.438,0.771,1.688,1.062c0.25,0.292,0.479,0.875,0.688,1.75
		l1.438-0.25l1.25,0.812l1.062,1.5l4.188,1.188l4.25,1.875l8.562,1.812c1.458,0.917,2.312,1.375,2.562,1.375
		c0.583,0,0.938-0.416,1.062-1.25l0.875-0.125l7.812,0.5l2.438-1.25l1.375,0.5l2.312-0.5l2.688-0.938c1.5-0.5,2.562-1.166,3.188-2
		l1.812-2.438l2.188-2.312c0.333-0.583,0.666-1.562,1-2.938c1.625,0,2.438-0.521,2.438-1.562l-0.25-1.25L64,101.625l1-1.125
		l1.938-5.812h0.625L67.312,91l-1.25-3.438l-0.5-1.438L63.75,86l-4.625-2.812L53.5,81l-1.25-1.375l-1.812-1.062l-1.312,0.688
		l-0.375,0.625L40.188,79.5l-1.938-2.312l-1.5,1.938l-1.438-0.312l-3.562-0.75c-2.375-0.458-4.198-0.885-5.469-1.281
		c-1.271-0.396-2.344-0.906-3.219-1.531l0.125-1.375L21,72.938c0.041,0-0.312,0.084-1.062,0.25c-1.5-1.125-2.469-2.01-2.906-2.656
		c-0.438-0.646-0.948-1.927-1.531-3.844l0.5-0.125l-1.25-1.438l-0.188-2l-0.25-2.062v-0.625l0.812-2.562l0.75-1.438l0.75-1.938
		l2.062-1.5c0.958-0.708,1.438-1.916,1.438-3.625L21.25,48.5l6.812-5.125L31,41.625l4.812-2.438L42.5,37l1.562-0.5l1.625-0.25
		l3.875-0.438l1.875-0.75l6.312,0.75l2.812-0.125l1.75,0.688l3.125,0.75c2.125,0.542,3.188,1.229,3.188,2.062
		c0,0.334-0.042,0.625-0.125,0.875c-0.834,0.292-1.271,0.459-1.312,0.5L65.562,42c-1,0.709-2.667,1.375-5,2l-1.312-0.75
		l-3.312-2.438l-1.812-0.25l-5.125-1l-2.938,0.125l-3.438,0.125L36.5,43l-4.375,2.188L29.188,47.5l-1.438,1.625l-2.688,4.75
		l-2.438,1.688l-0.5,1.5L23.812,58c-0.167,0.417-0.25,0.875-0.25,1.375c0,0.417,0.208,1.104,0.625,2.062l-2.438,1.25l0.625,1.438
		l1.312,0.5L26,65l2.438,2.062l5.125,2.312l1.375,1.25l4.375-0.375l3.812,0.375l0.25,0.812l1.562-0.25l2.188-0.25
		c0.416,0,0.708,0.042,0.875,0.125l3.312,0.75L53,72.188c0.291,1.959,0.833,2.938,1.625,2.938c0.083-0.041,0.156-0.072,0.219-0.094
		C54.906,75.011,54.979,75,55.062,75l2.812-1.812l3.312,0.25l2.438-0.125c1.333,0,2.604,0.521,3.812,1.562l3.188,2.812
		c0.041,0,0.094,0,0.156,0s0.229-0.01,0.5-0.031c0.271-0.021,0.489-0.052,0.656-0.094h0.125c0.583,0,2.041,1.459,4.375,4.375l1,1.25
		l0.25,1.688L78.312,90.75z"/>
	<path d="M148.875,107.375c0,0.542-0.104,1.021-0.312,1.438l-1.25,2.188l-2.938,5.062l-2.688,0.188L140,117.625
		c-0.375,0.375-1.021,0.625-1.938,0.75l-11.25,2.188l-1.75,0.625l-4-0.375l-5.75,0.5l-6.5-0.375H107
		c-0.917-0.709-1.479-1.125-1.688-1.25l-6.125-2.188l-2.062-1.938l-4.062-2.812l-3.25-4.312l-1.25-1.062
		c0.5-1,0.75-1.896,0.75-2.688c0-0.333-0.084-0.583-0.25-0.75l-1.688-2.688L87,97.688l-0.125-2.875c0-0.958,0.229-2.229,0.688-3.812
		c0.708-2.5,1.291-4,1.75-4.5l2.312-2.938l1.188-2.688l2.938-2.812l3.188-4.188l2.812-1.562l4.062-2.812l2.688-1.812l0.938-0.625
		l1.875-0.375L117,64.875l4.438-0.5l2.688-1.125l1.312-0.125c2.125,0,3.916,1.146,5.375,3.438c0.791-0.083,1.375-0.521,1.75-1.312
		l1.688,1.438l2.312,1.25l5.25,5.125c0.666,0.834,1.177,1.553,1.531,2.156c0.354,0.604,0.708,1.24,1.062,1.906
		c0.354,0.667,0.666,1.396,0.938,2.188c0.271,0.792,0.677,2,1.219,3.625l0.5,1.562l-0.625,0.25L144,84.25l-2.688,0.875l-2.062-0.375
		l-2.312,0.625l-4.375-0.5l-4.188,0.25L124,84.375l-7.125,0.125l-3.5-0.125l-8.438,1.125l-3.062-0.125l-4.25,1.25l-1.5,0.312
		l-0.25,1.5c-0.084,1.042-0.229,1.75-0.438,2.125c-0.209,0.375-0.667,0.812-1.375,1.312l0.125,1.188
		c1.375,1.042,2.104,1.688,2.188,1.938L98,101.375l0.812,1.562c-0.417,0.417-0.625,0.792-0.625,1.125
		c0.041,0.084,0.083,0.167,0.125,0.25l2.375,0.75l0.562,1.562c0.416,1.459,0.958,2.354,1.625,2.688l3.375,1.375l1.125,2.438
		c0.583,0.292,1.521,0.521,2.812,0.688l0.875,1.625l1.938,0.25l5.375,1.938l4.5-0.875l11.875-1.938l2.562-1.562l4-2.438l3.312-4.312
		c0.583-0.708,1.271-1.062,2.062-1.062C148.146,105.438,148.875,106.084,148.875,107.375z M134.125,77.938
		c0-0.666-0.771-2.062-2.312-4.188l-4.312-3.125l-1.438-1.5L124,69l-4.75-0.375l-1.125,0.25l-2.688,1.5L112,71.188l-4.375,1.625
		l-1.688,0.625l-2,3c-1.25,0.875-1.938,1.417-2.062,1.625l-0.25,0.75l7.688,0.562l0.875-0.125l1.438-0.438L113,79.125l3.688,0.75
		h0.188l4.188-0.75l1.312-0.312l1,1.438h1.438l5.5-1.125l2.25,0.25C133.604,79.25,134.125,78.771,134.125,77.938z"/>
	<path d="M171.875,109.062l-0.25,3.312l0.125,2.562c0,0.625-0.312,1.146-0.938,1.562l0.375,1.5l-1.375,0.25l-4.125,2.562
		l-1.625,0.25l-1.938,1.188c-0.167,0-0.312,0.01-0.438,0.031c-0.125,0.021-0.271,0.052-0.438,0.094c-0.792,0-1.188-0.25-1.188-0.75
		v-1.562l-0.375-2.812l0.875-6.812l0.312-8.688c0.125-2.125,0.583-3.875,1.375-5.25l-0.75-1.938
		c-0.709-1.291-1.062-2.041-1.062-2.25c0-0.666,0.521-1.875,1.562-3.625c0.416-0.625,0.625-1.312,0.625-2.062
		c0-0.583-0.625-1.125-1.875-1.625l0.25-1.062l-0.562-0.25v-0.875v-1l1.062-4.375v-10.75l1.25-5c0-0.666-0.5-1.396-1.5-2.188v-2.938
		L161,45.312c0-0.833,0.541-2.25,1.625-4.25l0.938-1.625c-1.542-0.708-2.312-1.354-2.312-1.938c0,0.167,0.125-0.646,0.375-2.438
		l-1.312-1.125V31.5l-0.25-2.938V28l1.062-3.188l-1.062-4.438l0.25-2.188l-1.25-7.312V10.25V9.875l0.5-2.062l0.375-2.562
		l5.625-3.062l2.562-1.938L169.188,0l0.875,1.375l0.125,2.688l0.5,1.812l0.125,1.062v1.5l-0.375,4.625v0.375l0.125,2.188
		c0,0.75-0.084,1.292-0.25,1.625l-1.5,3.25l-0.188,1.25c0.833,0.042,1.364,0.178,1.594,0.406c0.229,0.229,0.344,0.823,0.344,1.781
		v1.375c0,0.834-0.5,1.521-1.5,2.062v1.562l-0.125,1.25v0.5l1.125,1.812l-0.5,11.938V53l-1.688,3.312l0.938,4.75l-1.312,3.062
		c0.125,0.375,0.5,0.854,1.125,1.438l1.062,1.125l0.5,20.25l-1.562,1.75c0.125,0.792,0.188,1.646,0.188,2.562
		c0,1.459-0.188,2.834-0.562,4.125l0.562,1.375h1.75v2.312L171.875,109.062z"/>
	<path d="M245,107.375c0,0.542-0.104,1.021-0.312,1.438l-1.25,2.188l-2.938,5.062l-2.688,0.188l-1.688,1.375
		c-0.375,0.375-1.021,0.625-1.938,0.75l-11.25,2.188l-1.75,0.625l-4-0.375l-5.75,0.5l-6.5-0.375h-1.812
		c-0.917-0.709-1.479-1.125-1.688-1.25l-6.125-2.188l-2.062-1.938l-4.062-2.812l-3.25-4.312l-1.25-1.062
		c0.5-1,0.75-1.896,0.75-2.688c0-0.333-0.084-0.583-0.25-0.75l-1.688-2.688l-0.375-3.562L183,94.812
		c0-0.958,0.229-2.229,0.688-3.812c0.708-2.5,1.291-4,1.75-4.5l2.312-2.938l1.188-2.688l2.938-2.812l3.188-4.188l2.812-1.562
		l4.062-2.812l2.688-1.812l0.938-0.625l1.875-0.375l5.688-1.812l4.438-0.5l2.688-1.125l1.312-0.125c2.125,0,3.916,1.146,5.375,3.438
		c0.791-0.083,1.375-0.521,1.75-1.312l1.688,1.438l2.312,1.25l5.25,5.125c0.666,0.834,1.177,1.553,1.531,2.156
		c0.354,0.604,0.708,1.24,1.062,1.906c0.354,0.667,0.666,1.396,0.938,2.188c0.271,0.792,0.677,2,1.219,3.625l0.5,1.562l-0.625,0.25
		l-2.438-0.5l-2.688,0.875l-2.062-0.375l-2.312,0.625l-4.375-0.5l-4.188,0.25l-4.375-0.75L213,84.5l-3.5-0.125l-8.438,1.125
		L198,85.375l-4.25,1.25l-1.5,0.312l-0.25,1.5c-0.084,1.042-0.229,1.75-0.438,2.125c-0.209,0.375-0.667,0.812-1.375,1.312
		l0.125,1.188c1.375,1.042,2.104,1.688,2.188,1.938l1.625,6.375l0.812,1.562c-0.417,0.417-0.625,0.792-0.625,1.125
		c0.041,0.084,0.083,0.167,0.125,0.25l2.375,0.75l0.562,1.562c0.416,1.459,0.958,2.354,1.625,2.688l3.375,1.375l1.125,2.438
		c0.583,0.292,1.521,0.521,2.812,0.688l0.875,1.625l1.938,0.25l5.375,1.938l4.5-0.875l11.875-1.938l2.562-1.562l4-2.438l3.312-4.312
		c0.583-0.708,1.271-1.062,2.062-1.062C244.271,105.438,245,106.084,245,107.375z M230.25,77.938c0-0.666-0.771-2.062-2.312-4.188
		l-4.312-3.125l-1.438-1.5L220.125,69l-4.75-0.375l-1.125,0.25l-2.688,1.5l-3.438,0.812l-4.375,1.625l-1.688,0.625l-2,3
		c-1.25,0.875-1.938,1.417-2.062,1.625l-0.25,0.75l7.688,0.562l0.875-0.125l1.438-0.438l1.375,0.312l3.688,0.75H213l4.188-0.75
		l1.312-0.312l1,1.438h1.438l5.5-1.125l2.25,0.25C229.729,79.25,230.25,78.771,230.25,77.938z"/>
	<path d="M309.562,108.312c0,0.25-0.042,0.459-0.125,0.625l-0.75,3.188c0,0.042,0.01,0.104,0.031,0.188
		c0.021,0.084,0.052,0.188,0.094,0.312l-2.688,3.312l-1.562,0.438L302.125,118l-1,0.25l-2.812,1.438h-0.25l-4-0.125
		c-0.709,0-1.688,0.292-2.938,0.875l-3.188,1.812l-5,0.375l-5-0.375l-1.125-0.938l-3.688-0.5L269,119.688l-5.75-1.312l-2.688-2.312
		l-2.438-2.5l0.75-2.188c-0.792,0.334-1.521,0.5-2.188,0.5h-0.5l-1.125-1.312l-1.562-2.688l-0.875-1.125l-0.375-3.562l0.5-1.812
		l-0.5-1l-1.312-1.438l0.812-3.188L251.438,90l2.188-3.75l2.688-5.5l3.5-2.938l6.25-6l1.812-1.312l2.438-1.75l1.125-0.375
		L274,66.438l8.062-2.562l1.938-0.5c0.083,0,0.156,0.011,0.219,0.031c0.062,0.021,0.114,0.053,0.156,0.094l3.188,1.375L290.75,64
		l6,1l5.125-0.75c0.625,0.167,1.312,0.417,2.062,0.75c-0.334,1.334-0.698,2.219-1.094,2.656c-0.396,0.438-1.219,0.928-2.469,1.469
		L300.25,70.5l-2.562,1.562l-1.812,0.875h-0.25l-1.688-0.25l-2.125,0.25l-9.625-1.5c-0.334-0.083-0.812-0.125-1.438-0.125
		c-0.584,0-1,0.042-1.25,0.125l-5.25,1h-1.688c-1.417,0.25-2.812,1.354-4.188,3.312l-2.688,0.938L264.5,79.25l-2.125,0.375
		c0.166,0.334,0.25,0.625,0.25,0.875l-2.562,5l-0.25,2.188l0.125,3.812c0.041,1.834,0.188,3.354,0.438,4.562
		c0.25,1.209,0.688,2.417,1.312,3.625l-0.5,1.438c-0.417,0.709-0.625,1.167-0.625,1.375c0,0.25,0.125,0.562,0.375,0.938
		c1.25,0.334,1.854,0.5,1.812,0.5c0.375,0.292,1,1.062,1.875,2.312l1.688,2.312c0.083,0.167,0.166,0.354,0.25,0.562
		c0.083,0.209,0.208,0.479,0.375,0.812h1.438l0.75,1.062l4.125,2.938l1.75,1.5l2.062,0.625l1.812,0.688l2.812,0.125l7.188,0.75
		c0.083,0.042,0.166,0.084,0.25,0.125c0.708,0,2.188-0.604,4.438-1.812l1.188,0.438l4.312-3c1.125-0.166,2.229-0.625,3.312-1.375
		c1.083-0.75,2.541-2.083,4.375-4c0.541-0.666,1.062-1,1.562-1c0.333,0,0.625,0.125,0.875,0.375S309.562,107.938,309.562,108.312z"
		/>
	<path d="M359,65.688l-0.625,1.75l-0.125,1.312l-4.5,3.312l-2.688,2.438l-1.562,0.25l-2.312-0.25
		c-1.542-0.166-2.948-0.406-4.219-0.719c-1.271-0.312-1.865-0.469-1.781-0.469h-0.125l-4.188,0.312l-2.438-0.438
		c-0.584,0.084-1.073,0.303-1.469,0.656c-0.396,0.354-0.594,0.74-0.594,1.156c0,0.459,0.25,0.75,0.75,0.875L333,83.938
		c-1.792,0.5-2.688,1.271-2.688,2.312l0.125,1.438l2.562,0.5l0.25,6l0.125,1.312l-0.625,1.875c-0.5-0.25-0.917-0.375-1.25-0.375
		c-1.042,0-1.562,0.479-1.562,1.438c0,0.417,0.333,1.062,1,1.938c0.583-0.708,0.979-1.062,1.188-1.062
		c0.125,0,0.541,0.312,1.25,0.938l0.125,8.438l0.25,1.25l1.438,2.938c0.083,0.25,0.125,0.979,0.125,2.188
		c1.041,0.625,1.844,1.021,2.406,1.188c0.562,0.167,1.344,0.25,2.344,0.25c1.333,0,2.656-0.229,3.969-0.688
		c1.312-0.458,2.364-1.041,3.156-1.75l6.188-5.625c0.25-0.291,0.583-0.438,1-0.438c0.5,0,1.229,0.271,2.188,0.812l-0.375,1.375
		c-0.875,3.459-1.604,5.292-2.188,5.5l-14.688,5.375l-2.562,1.312l-1.938-1.188l-1.312-0.25l-0.625,1.688l-1.125,0.125
		c-1.25,0-2.709-0.604-4.375-1.812c-1.75-1.416-2.688-2.479-2.812-3.188l-0.375-1.812l-0.75-2.125l0.125-3.5v-3.938l1.25-4.125
		l-0.375-1.5l-0.25-2.188v-1.438l0.25-6l-0.125-1.688l-0.25-2.125c0-0.166,0.041-0.25,0.125-0.25l1.625-1.938
		c0.208-0.291,0.312-0.541,0.312-0.75c0-0.958-0.729-1.438-2.188-1.438l-0.5-0.75c0.416-3.041,0.625-6.083,0.625-9.125
		c-2-0.416-3.5-0.625-4.5-0.625c-2.584,0-5.188,0.438-7.812,1.312c-0.334-0.291-0.5-0.604-0.5-0.938c0-0.708,0.166-1.166,0.5-1.375
		l2.438-2.062l0.375-1.438c0.125-0.333,0.333-0.604,0.625-0.812c0.291-0.208,0.521-0.312,0.688-0.312l7.25-0.25l1.688-0.25
		l-0.125-1.438l-0.375-13.312L322.75,48l-0.375-1.938c1.25-1.75,2.5-3,3.75-3.75s2.854-1.291,4.812-1.625
		c0.833-1.291,1.562-1.938,2.188-1.938c1.125,0,1.688,1.896,1.688,5.688c0,5.75-0.521,9.834-1.562,12.25
		c-0.584,1.709-1.167,2.562-1.75,2.562v2.938c0.625,0,1.041,0.053,1.25,0.156c0.208,0.104,0.458,0.365,0.75,0.781l-0.375,1.75
		l0.25,1.438l1.312,0.125l6.25,1.375c0.5,0.167,1.188,0.25,2.062,0.25c0.916,0,1.562-0.083,1.938-0.25l2.438-0.75l4.688-0.5
		l3.625-1.312h1.25h0.5h1.438C358.958,65.584,359,65.729,359,65.688z"/>
	<path d="M448.812,107l-2.125,5.875v0.25l0.25,0.938l1.25,1.5l-0.5,3.375l0.25,4.812l-0.625,1.562l0.125,6.625l-0.938,2.188
		l-0.625,3.062l-1,2.062l0.125,3.188l-2.188,5.375l-0.5,1.438l-1.812,1.125l-4.75,6.062l-2.812,4.188
		c-1.042,1.625-2.104,2.688-3.188,3.188l-1.625,0.938l-1.562,1.625l-1.938,1.188l-1.125,1l-2.688,0.75c-0.042,0-1.375,0.604-4,1.812
		l-3.938,1.438l-5.625,1.625l-5.875-0.625l-3.125-0.375c-1.5-0.125-2.771-0.479-3.812-1.062l-4.25-2.688l-2.125-0.5l-1.688-2.312
		l-3.312-2c-0.791-0.667-1.188-1.834-1.188-3.5c0-1.75,0.604-3.417,1.812-5c0.375-0.459,1.188-0.75,2.438-0.875l0.75,1.812
		l0.625,1.75l2.438,3.375l2.438,3.812c0.875,0.875,1.521,1.312,1.938,1.312h0.125l0.875-0.125l5.25,2.125l4.375,0.312
		c0.541,0.416,1.083,0.625,1.625,0.625c0.416,0,0.979-0.271,1.688-0.812l1.438,0.188c1.75,0,4.25-0.729,7.5-2.188
		c2.875-1.417,4.625-2.479,5.25-3.188l4.75-4.875l2.938-1.812c1.083-0.834,1.979-2.375,2.688-4.625l1.562-5.125l2.312-3.562
		l-0.375-2.688l1.125-5l0.125-5.125c0-1.75,0.396-3.5,1.188-5.25l1-3.438l-0.75-2.938l-0.688-8.688l-0.125-1.438v-0.625l1.062-3.312
		l-0.688-0.938l-1.875,0.938L434.5,107l-1.812,1.938l-6,3.812l-3.062,2.938l-4.75,3.5c-1.334,0.917-2.354,1.5-3.062,1.75
		l-4.125,0.688l-2.25,0.875c-0.917,0.25-1.604,0.375-2.062,0.375c-1.625,0-3.792-0.521-6.5-1.562
		c-2.709-1.042-4.562-2.104-5.562-3.188c-1.625-1.625-2.438-3.708-2.438-6.25l0.125-1.312c0.875-0.583,1.312-1.125,1.312-1.625
		c0-0.083-0.011-0.156-0.031-0.219c-0.021-0.062-0.053-0.114-0.094-0.156l-1.312-1.812l-0.125-1.812l0.375-1.625l2.438-5.625
		l-0.5-2.188v-0.812c0-0.458,0.166-1.479,0.5-3.062l1.188-4.562c0.25-1.083,0.458-2.125,0.625-3.125l0.125-4.812l1.188-4.875
		c0-0.583-0.312-1.312-0.938-2.188l-1.75-0.25l-0.188-1.062l2.312-2.688l1.438-0.5l2.188-0.625l6.25-3.562h0.375
		c0.625,0,1.125,0.25,1.5,0.75s0.562,1.146,0.562,1.938v0.375l-1.938,4.75l-0.875,4.688l-1.562,7.188l-0.375,4.25
		c-0.209,0.625-0.542,1-1,1.125l-1.938,0.5c-0.667,0.25-1,0.729-1,1.438c0,1,0.854,1.5,2.562,1.5l-1.812,12.938l-0.5,3.75l0.375,1
		l0.875,1.125l1.812,3l3.562,1.375l1.688,1.938l0.875,0.375h0.5l2.062-1.438l6-2l2.562-1.812l4.375-3.062l4.125-4l2.688-1.625
		l1.125-0.688l2.312-6l0.375-0.25l0.25-1.125l1.312-1.562l-0.562-3.438l0.562-0.938l-0.312-2.688L439,85.375l-1.062-5.5l-0.5-7.562
		l-1.812-3.688c-0.084-0.166-0.125-0.438-0.125-0.812v-1l2.688-0.875l1.938-1.812l3.688-0.5l1.438-0.375
		c1.208,0.834,1.812,1.542,1.812,2.125v0.312l-0.375,2.25l0.25,4.5l-0.562,1.812v1.625l-0.75,2.812l0.125,0.938
		c0.625,1.5,1.104,2.625,1.438,3.375c0.333,0.75,0.5,1.334,0.5,1.75v1.625l0.25,4l-0.875,2.188c-0.167,0.5-0.25,0.875-0.25,1.125
		c0,1.167,0.666,2.354,2,3.562l-0.125,1.562L448.812,107z"/>
	<path d="M528.938,88.438l-1.375-0.25l0.25,1.438l-1.438,1c0.208,0.75,0.385,1.209,0.531,1.375c0.146,0.167,0.531,0.438,1.156,0.812
		l0.125,1.25c0,4.542-1.75,9.459-5.25,14.75c-0.792,1.167-1.771,2.396-2.938,3.688c-1.167,1.292-1.896,2.146-2.188,2.562l-1.875,0.5
		l-11.812,5.5l-6.5,0.25l-4.75,1.188l-5.625-0.125l-1.938,0.5l-5.625-1l-2.312-0.125l-1.25-1.438l-3.5-0.5L471,118.938
		c-1.417-1.083-2.604-1.989-3.562-2.719c-0.959-0.729-1.573-1.208-1.844-1.438c-0.271-0.229-0.49-0.469-0.656-0.719l-1.375-2.688
		l-1.938-1.562l-1.5-3.938l-0.562-1.562l0.688-0.5c0-0.583,0.083-0.979,0.25-1.188c0.166-0.208,0.541-0.416,1.125-0.625l-0.375-1
		l-2.062-1.312v-2.562c0-1.791,0.208-3.562,0.625-5.312c0.416-1.75,1.146-3.771,2.188-6.062c1.625-3.666,2.833-5.75,3.625-6.25
		l2.562-1.688l1.375-2.438c0.5-0.875,1.104-1.458,1.812-1.75l5.875-3.125l3.312-2.688l4-1.5l7-2.438l5.812-0.5l4.562-0.125
		c2.583,0,3.875,0.709,3.875,2.125c0.708,0.625,1.166,0.938,1.375,0.938c0.625,0,1.312-0.604,2.062-1.812l1.562,0.375l4.062,1.438
		l1.688,1.375l2.312,1.438l2.312,3.562c0.625,0.792,1.854,1.188,3.688,1.188c1.208,1.5,2.021,2.979,2.438,4.438
		c0.416,1.459,0.875,4.146,1.375,8.062L528.938,88.438z M519.875,90l-2.312-7.188l-0.375-3.188l-0.625-1.188h-0.375
		c-0.334,0-0.604-0.062-0.812-0.188c-0.209-0.125-0.459-0.354-0.75-0.688l-3.062-3.812l-1-1.562l-5.25-2.438
		c-0.5-0.833-0.928-1.447-1.281-1.844c-0.354-0.396-0.781-0.594-1.281-0.594c-0.542,0-1.396,0.209-2.562,0.625
		c-1.167-0.5-2.021-0.75-2.562-0.75l-1.812,0.25l-3.062,0.125l-4.25,1.562l-1-0.875l-0.75,1l-4.25,2.562l-7.812,6.75l-1.5,1.312
		c-0.334,2.125-1.292,4.562-2.875,7.312l-0.875,1.5v0.5c0,0.917-0.146,1.521-0.438,1.812c-0.292,0.292-0.875,0.5-1.75,0.625
		c-0.167,0.667-0.25,0.979-0.25,0.938c0.041,0.084,0.072,0.156,0.094,0.219c0.021,0.062,0.031,0.115,0.031,0.156l1.938,2.188
		l0.25,1.375c-1.292,1.084-1.938,1.812-1.938,2.188l0.25,0.75c0.375-0.416,0.729-0.625,1.062-0.625c0.375,0,0.625,0.125,0.75,0.375
		l1.438,4.625l3.188,5.25l-0.375,3.188c0.333,0.334,0.708,0.5,1.125,0.5c0.5,0,1.021-0.25,1.562-0.75l1.25,0.375l7.562,4.625
		l7.688,0.75l4.375,0.625l4.938-0.875l3.25-0.75l4.062-4.125l2.938-0.875l1.438-1.562l3.312-6.875l1.688-1.438
		c0.583-0.583,0.875-1.083,0.875-1.5v-0.312l-1-2.938L519.875,90z"/>
	<path d="M596.938,116.375c-0.292,1.084-0.917,1.834-1.875,2.25l-7.188,3.125c-1.292-0.75-1.938-1.958-1.938-3.625l0.125-3.562
		l-1.125-0.25l-4.125,1.938l-5.75,2.812l-2.312,1.125l-7.562,1.438l-2.438,0.75h-0.625c-0.417,0-0.709-0.042-0.875-0.125
		l-2.312-0.938l-2.812,0.812l-2.562-2.188l-5,0.75c-0.5-0.209-1.229-0.583-2.188-1.125c-0.959-0.541-1.771-1.146-2.438-1.812
		c-1.875-2.083-2.812-4.208-2.812-6.375c0-0.666,0.438-1.354,1.312-2.062l-2.062-0.75l-0.125-2.438l-0.125-3.375
		c0-1,0.166-1.833,0.5-2.5l1.188-2.188l-1.188-3.5l0.125-3.688l-0.125-4.25c0.041-0.25,0.479-1.688,1.312-4.312v-0.938l-1.188,0.562
		L540,81.125v-1.25l0.125-7.562c0-1.166-0.125-2.062-0.375-2.688l-0.5-0.75c0-0.083-0.011-0.156-0.031-0.219
		c-0.021-0.062-0.053-0.114-0.094-0.156c0-0.708,0.5-1.354,1.5-1.938l0.75-0.375L546,64.25c1.5-0.583,2.521-0.875,3.062-0.875
		c0.625,0,1.188,0.584,1.688,1.75l0.625,1.438c-0.834,2.334-1.25,4.5-1.25,6.5l0.375,3.625l-0.125,1.5l-1.062,3.062
		c-0.042,1.125-0.084,1.906-0.125,2.344c-0.042,0.438-0.084,0.823-0.125,1.156c0,0.625,0.125,1.25,0.375,1.875l1.062,1.812
		l-1.438,4.75l0.5,1.5l-0.5,2.688l-0.5,3.625c0,0.334,0.041,0.584,0.125,0.75l0.875,1.562l0.438,6.625
		c0.25,1.209,0.781,2.062,1.594,2.562s2.489,1.146,5.031,1.938l4.625,1.25c0.833,0.167,2.229,0.25,4.188,0.25
		c1.416,0,2.458-0.125,3.125-0.375l3.562-1.375l3.812,1c0.666-0.208,1.104-0.896,1.312-2.062l2.062-1.125l2.812-3.875l2.312-1.875
		c0.625-0.833,1-2,1.125-3.5l0.5-6.375l0.5-1.375l-1.375-1.438l0.125-2.312l0.25-9.875l-0.375-3.312l-0.625-3.812
		c0-0.625,0.375-1.312,1.125-2.062l-0.25-1.125l-1-0.125L584.125,69v-0.5l0.562-1.938V65.25l1,0.312l6.938-2.438
		c0.041,0,0.083-0.021,0.125-0.062c0.041-0.041,0.083-0.062,0.125-0.062c0.458,0,0.844,0.386,1.156,1.156
		c0.312,0.771,0.469,1.781,0.469,3.031L594,79.875l-0.875,9.75l-1.688-0.688c-0.5,1.167-0.75,1.979-0.75,2.438l0.375,1.312
		c0.5-0.166,0.875-0.25,1.125-0.25c0.375,0,0.688,0.104,0.938,0.312c0.25,0.209,0.375,0.479,0.375,0.812l-0.625,11.75l1.25,2.188
		l0.625,6.062c0.208,0.25,0.489,0.573,0.844,0.969C595.947,114.928,596.396,115.542,596.938,116.375z"/>
	<path d="M655.812,67.812c0,0.209-0.084,0.396-0.25,0.562L652,71.188l-1.938,2l-1.125,0.438l-1.688-1.062l-1.125-1.125l-3.75-0.125
		l-3.562-1.438l-1.375-0.375c-0.542,0.917-1.104,1.49-1.688,1.719c-0.584,0.229-1.771,0.344-3.562,0.344l-2.062,0.875l-1.562-0.5
		l-1.25,1l-5,3.875c-0.834,1.084-1.312,3.084-1.438,6l-0.125,4.75l-1.375,0.875c0.833,1.417,1.25,2.792,1.25,4.125h0.938l0.125,1.75
		l0.25,8.062l0.125,4.25l-0.25,3.812c-1.292,0.75-1.938,1.354-1.938,1.812c0,0.084,0.166,0.459,0.5,1.125l1.688-0.375l-0.125,0.562
		l0.5,2.5v0.312c0,0.625-0.334,1.271-1,1.938c-0.667,0.667-1.354,1.042-2.062,1.125l-2.438,0.25l-3.688,1.938l-1.562-0.938
		l0.25-1.25l0.875-3.625L612.438,111l0.375-0.688h1.312v-0.75L614,108.438l-0.75-1.812l-0.188-2.562l-0.5-2.188v-0.125v-1.688
		l0.125-2c0.166-0.208,0.344-0.427,0.531-0.656c0.188-0.229,0.438-0.572,0.75-1.031c0.312-0.458,0.656-1.021,1.031-1.688l0.625-1.5
		l-0.125-0.625c-1.959,0-2.938-0.438-2.938-1.312l0.25-4.75l-0.375-4.688c0.125-0.416,0.396-0.812,0.812-1.188v-1.812l-0.812-0.75
		l-0.25-1.5l-0.125-3.375l-1.375-2.688c0.291-1.5,0.958-2.771,2-3.812l3.875-2.062l2.312-1.5c1.166,0.334,1.969,0.729,2.406,1.188
		c0.438,0.459,0.656,1.209,0.656,2.25v0.375v1.688c0,1.542,0.333,2.312,1,2.312h0.25l3.188-1.688l3.125-1.188l5.375-2.938l1.75-0.75
		l1.438,0.375l2.812-0.875c1.625-0.5,2.854-0.75,3.688-0.75l2.688,0.25c0.833,1.167,1.521,1.75,2.062,1.75
		c0.083-0.041,0.146-0.072,0.188-0.094c0.041-0.021,0.104-0.031,0.188-0.031l1.438-0.75c0.333-0.166,0.583-0.25,0.75-0.25
		c1.041,0,2.021,0.562,2.938,1.688C655.479,66.479,655.812,67.188,655.812,67.812z"/>
	<path d="M757.625,94.438l-1.25,3.375l-0.625,1.5l-1.812,2.312l-1.312,2.438L751,105.75l-1.188,1.5l-0.875,0.25l-1.688-0.375
		l-0.625,1.188c-1.084,1.959-1.906,3.188-2.469,3.688s-1.573,0.75-3.031,0.75H741l-1-0.125c-0.167,1.417-0.761,2.615-1.781,3.594
		c-1.021,0.979-2.698,1.886-5.031,2.719l-3.438,1.125l-2.812,1l-5.625,0.125l-1.562,0.25l-1.562,1.062
		c-0.917-0.5-1.584-0.771-2-0.812c-0.417-0.042-1.75-0.167-4-0.375l-1.5-0.125l0.25-1.5l-1.438-0.25l-1.25,0.75l-1.062,0.5h-1.75
		h-2.812l-1.188-0.375l-0.375,1.562l0.25,9.312l-0.875,4.25l-0.125,1.75h1l0.375,11.562l-1.5,0.25l-0.375,1l0.25,1.562l0.75,3.312
		l-0.375,1.438l0.875-0.688l0.625,0.375l0.125,4.25l0.438,4.125l0.25,2.812c0,0.791-0.646,1.25-1.938,1.375l-0.375,0.875
		l2.188,0.562l-0.125,1.25l0.625,3.062l0.25,2.062l-0.75,1.188l-1.562,1.25l-1.25,2.062l-1.562,0.5l-3.312,1.562l-1.062,0.125
		l-2.312-0.125l-0.125-2.312l0.125-2.062l0.438-5.25l-0.125-5.25c0.041-0.542,0.146-0.979,0.312-1.312
		c0.166-0.334,0.521-0.709,1.062-1.125l-0.625-4.062c0.791-0.792,1.281-1.354,1.469-1.688c0.188-0.334,0.302-0.896,0.344-1.688
		c-0.709-0.25-1.178-0.5-1.406-0.75c-0.229-0.25-0.406-0.625-0.531-1.125L693,154l-0.25-1.688l-0.125-6.625l-0.25-5L693,134.75
		l0.125-1.625c0.958-0.917,1.438-1.812,1.438-2.688c0-0.709-0.188-1.812-0.562-3.312l-1.375-0.438L692,124.562v-0.938l0.75-20.875
		l0.75-2.25l-0.25-2.312L693,96.5l-1.125-0.375v-1.688l-0.312-9.188v-1L692,81.688l-0.688-5.25c0-1.458-0.094-2.364-0.281-2.719
		c-0.188-0.354-0.803-0.822-1.844-1.406c0.125-1.333,0.375-2.188,0.75-2.562l1.25-0.75l2.938-3.312l2.688-1.562l1.562-0.75
		c0.791,0.084,1.771,0.625,2.938,1.625l-0.25,1.188l-0.25,1.875l0.125,1.062l1.125,0.125l2.188-1.188
		c2.541-1.291,4.406-2.146,5.594-2.562c1.188-0.416,2.447-0.625,3.781-0.625c0.708,0,1.26,0.094,1.656,0.281
		c0.396,0.188,0.781,0.49,1.156,0.906l1.125-0.812l0.625-0.75l1.562-0.375l2.562-0.5l7.062,0.125l6-0.125
		c0.791,0,1.729,0.646,2.812,1.938c0.166-0.041,0.333-0.083,0.5-0.125c0.166-0.041,0.291-0.062,0.375-0.062
		c0.333,0,1.062,0.312,2.188,0.938l4.625,2.312c0.833,0.334,1.375,0.709,1.625,1.125l1.062,2.438c0.208,0.334,0.583,0.5,1.125,0.5
		c0.5,0,1.062-0.125,1.688-0.375c1.25,0.959,2.312,2.188,3.188,3.688c0.583,1.042,1.219,2.906,1.906,5.594s1.031,4.719,1.031,6.094
		v0.25L757.125,90L757,91.75L757.625,94.438z M749.562,88.812c-1.542-0.791-2.479-1.729-2.812-2.812l-1-2.938l-3.188-4.75
		l-0.312-2.562l-0.875-0.875L738.062,75l-5-3.312l-3.562-0.375l-3.375-1.188l-9.062,0.125h-1.438l-1.75,0.25l-5.125,1.438
		l-2.562,0.5l-2.062,0.875l-1.5,0.438c-0.959,0.334-1.438,1.562-1.438,3.688v0.75c-1.209,2.584-1.812,4-1.812,4.25
		s0.041,0.417,0.125,0.5l0.312,0.5l1.25,0.5l-0.25,3.125l0.25,7.125c0,0.542-0.375,1.479-1.125,2.812
		c0.916,2.042,1.375,3.792,1.375,5.25l-0.25,5.75l-0.125,2.188l1.812,0.938l3.188,1.375l2.562,1.938l0.75-1.062l1.688,0.688
		l5.375,0.375l4.562,1.812l5.125-0.812l3.25,0.125l2.375-1l2.562-1.188l3.125-2.25l2.438-1.562l2.25-2.812l2.688-1.938
		c1.541-1,2.396-2.021,2.562-3.062l0.25-2.438l1.562-3.062c0.041-0.083,0.072-0.156,0.094-0.219
		c0.021-0.062,0.031-0.114,0.031-0.156l-0.25-5l-0.125-1.438L749.562,88.812z"/>
	<path d="M812.875,67.812c0,0.209-0.084,0.396-0.25,0.562l-3.562,2.812l-1.938,2L806,73.625l-1.688-1.062l-1.125-1.125l-3.75-0.125
		l-3.562-1.438L794.5,69.5c-0.542,0.917-1.104,1.49-1.688,1.719c-0.584,0.229-1.771,0.344-3.562,0.344l-2.062,0.875l-1.562-0.5
		l-1.25,1l-5,3.875c-0.834,1.084-1.312,3.084-1.438,6l-0.125,4.75l-1.375,0.875c0.833,1.417,1.25,2.792,1.25,4.125h0.938l0.125,1.75
		l0.25,8.062l0.125,4.25l-0.25,3.812c-1.292,0.75-1.938,1.354-1.938,1.812c0,0.084,0.166,0.459,0.5,1.125l1.688-0.375L779,113.562
		l0.5,2.5v0.312c0,0.625-0.334,1.271-1,1.938c-0.667,0.667-1.354,1.042-2.062,1.125l-2.438,0.25l-3.688,1.938l-1.562-0.938
		l0.25-1.25l0.875-3.625L769.5,111l0.375-0.688h1.312v-0.75l-0.125-1.125l-0.75-1.812l-0.188-2.562l-0.5-2.188v-0.125v-1.688
		l0.125-2c0.166-0.208,0.344-0.427,0.531-0.656c0.188-0.229,0.438-0.572,0.75-1.031c0.312-0.458,0.656-1.021,1.031-1.688l0.625-1.5
		l-0.125-0.625c-1.959,0-2.938-0.438-2.938-1.312l0.25-4.75l-0.375-4.688c0.125-0.416,0.396-0.812,0.812-1.188v-1.812l-0.812-0.75
		l-0.25-1.5l-0.125-3.375L767.75,70.5c0.291-1.5,0.958-2.771,2-3.812l3.875-2.062l2.312-1.5c1.166,0.334,1.969,0.729,2.406,1.188
		c0.438,0.459,0.656,1.209,0.656,2.25v0.375v1.688c0,1.542,0.333,2.312,1,2.312h0.25l3.188-1.688l3.125-1.188l5.375-2.938l1.75-0.75
		l1.438,0.375l2.812-0.875c1.625-0.5,2.854-0.75,3.688-0.75l2.688,0.25c0.833,1.167,1.521,1.75,2.062,1.75
		c0.083-0.041,0.146-0.072,0.188-0.094c0.041-0.021,0.104-0.031,0.188-0.031l1.438-0.75c0.333-0.166,0.583-0.25,0.75-0.25
		c1.041,0,2.021,0.562,2.938,1.688C812.541,66.479,812.875,67.188,812.875,67.812z"/>
	<path d="M879.75,88.438l-1.375-0.25l0.25,1.438l-1.438,1c0.209,0.75,0.385,1.209,0.531,1.375c0.146,0.167,0.531,0.438,1.156,0.812
		l0.125,1.25c0,4.542-1.75,9.459-5.25,14.75c-0.791,1.167-1.771,2.396-2.937,3.688c-1.167,1.292-1.896,2.146-2.188,2.562l-1.875,0.5
		l-11.812,5.5l-6.5,0.25l-4.75,1.188l-5.625-0.125l-1.938,0.5l-5.625-1l-2.312-0.125l-1.25-1.438l-3.5-0.5l-1.625-0.875
		c-1.417-1.083-2.604-1.989-3.562-2.719c-0.959-0.729-1.573-1.208-1.844-1.438c-0.271-0.229-0.49-0.469-0.656-0.719l-1.375-2.688
		l-1.938-1.562l-1.5-3.938l-0.562-1.562l0.688-0.5c0-0.583,0.083-0.979,0.25-1.188c0.166-0.208,0.541-0.416,1.125-0.625l-0.375-1
		L810,99.688v-2.562c0-1.791,0.208-3.562,0.625-5.312c0.416-1.75,1.146-3.771,2.188-6.062c1.625-3.666,2.833-5.75,3.625-6.25
		L819,77.812l1.375-2.438c0.5-0.875,1.104-1.458,1.812-1.75l5.875-3.125l3.312-2.688l4-1.5l7-2.438l5.812-0.5l4.562-0.125
		c2.583,0,3.875,0.709,3.875,2.125c0.708,0.625,1.166,0.938,1.375,0.938c0.625,0,1.312-0.604,2.062-1.812l1.562,0.375l4.062,1.438
		l1.688,1.375l2.312,1.438L872,72.688c0.625,0.792,1.854,1.188,3.688,1.188c1.209,1.5,2.021,2.979,2.438,4.438
		c0.416,1.459,0.875,4.146,1.375,8.062L879.75,88.438z M870.688,90l-2.312-7.188L868,79.625l-0.625-1.188H867
		c-0.334,0-0.604-0.062-0.812-0.188c-0.209-0.125-0.459-0.354-0.75-0.688l-3.062-3.812l-1-1.562l-5.25-2.438
		c-0.5-0.833-0.928-1.447-1.281-1.844c-0.354-0.396-0.781-0.594-1.281-0.594c-0.542,0-1.396,0.209-2.562,0.625
		c-1.167-0.5-2.021-0.75-2.562-0.75l-1.812,0.25l-3.062,0.125l-4.25,1.562l-1-0.875l-0.75,1l-4.25,2.562l-7.812,6.75l-1.5,1.312
		c-0.334,2.125-1.292,4.562-2.875,7.312l-0.875,1.5v0.5c0,0.917-0.146,1.521-0.438,1.812c-0.292,0.292-0.875,0.5-1.75,0.625
		c-0.167,0.667-0.25,0.979-0.25,0.938c0.041,0.084,0.072,0.156,0.094,0.219c0.021,0.062,0.031,0.115,0.031,0.156l1.938,2.188
		l0.25,1.375c-1.292,1.084-1.938,1.812-1.938,2.188l0.25,0.75c0.375-0.416,0.729-0.625,1.062-0.625c0.375,0,0.625,0.125,0.75,0.375
		l1.438,4.625l3.188,5.25l-0.375,3.188c0.333,0.334,0.708,0.5,1.125,0.5c0.5,0,1.021-0.25,1.562-0.75l1.25,0.375L836,117l7.688,0.75
		l4.375,0.625L853,117.5l3.25-0.75l4.062-4.125l2.938-0.875l1.438-1.562l3.312-6.875l1.688-1.438c0.583-0.583,0.875-1.083,0.875-1.5
		v-0.312l-1-2.938L870.688,90z"/>
	<path d="M938.562,3.562L937.937,5L936,7.062l-1.438,1.75l-1.625,1.062l-1.688,0.875l-5.375-2.688c-2-1.041-3.584-1.562-4.75-1.562
		c-1.084,0-2.875,0.521-5.375,1.562c-2.625,0.959-4.5,2.959-5.625,6l-1.812,5L906.937,22l-0.875,4.125L905,27.5l0.375,1.812
		l0.688,0.375l-0.312,13.188l-1.25,1.562v1.75l-0.125,1.438l1.562,3.688l-0.562,2.562L905.937,60v0.312
		c0,0.959-0.688,1.979-2.062,3.062l0.25,1.25c1.416,0.667,2.188,1.188,2.312,1.562l0.375,2.438c0,0.584,0.5,0.875,1.5,0.875
		l1.938,0.125L917.062,70l5-0.75l5.375-0.5l2.812-0.812l1.5-0.125h2.438l1.562,2.562l-1.438,0.938l-4.625,2.938l-2.375,2.062
		L921,75.375L914.5,76c-0.875,0-1.688-0.125-2.438-0.375c-2.125-0.583-3.416-0.875-3.875-0.875c-0.584,0-1.104,0.334-1.562,1
		c-0.459,0.667-0.688,1.354-0.688,2.062v0.375l1,9.375v0.125c0,0.417-0.521,0.875-1.562,1.375c-0.166,0.917-0.25,1.312-0.25,1.188
		c0,0.625,0.438,1.438,1.312,2.438l0.375,1.75l0.375,7.312l0.5,2.562l-0.75,0.75c-0.416,0-0.709-0.041-0.875-0.125
		c-0.666,0.375-1.062,0.938-1.188,1.688h0.625l-0.125,0.5l1.812,2.312V111l-0.25,1.75l0.25,1.562l0.375,1.5l-1.125,0.562v1.75
		l-5.625,2.438l-5,0.625L895,120.562v-0.625l0.688-1.438l0.5-4.312l1-2.688l0.375-2.812l-0.375-3.25
		c1.125-1.166,1.688-2.271,1.688-3.312l-0.125-0.875l-1.312-4.375V96.5l0.125-5.75l0.312-11l0.25-1.562
		c1.959-0.25,2.938-0.833,2.938-1.75c0-0.541-0.229-0.812-0.688-0.812L898,75.375l-2.062-0.875H893l-2.062-0.25l-1.312-0.125
		c-0.75,0-1.375,0.125-1.875,0.375c-1.334,0.417-2.104,0.625-2.312,0.625c-0.709,0-1.062-0.375-1.062-1.125
		c0-0.333,0.104-0.604,0.312-0.812l1.25-1.75l2.312-2.938c0.584-0.541,1.396-0.812,2.438-0.812c0.709,0,1.688,0.188,2.938,0.562
		l3.312-1.812l-0.125-0.75l0.625-4.125l-0.25-6.625c0.125-1.25,0.604-2.291,1.438-3.125l-2.062-2.938l0.125-1.375l-0.375-13.812
		c0-1.291,0.334-2.5,1-3.625l2.188-3.688c0-0.375-0.459-0.896-1.375-1.562c0.416-2.958,1.781-6.135,4.094-9.531
		c2.312-3.396,4.822-5.885,7.531-7.469l7.812-4.75l1.688-1.125l2.125-0.25l4.125-1.062l2.062,0.625l4.688-0.125
		c0.791,0.042,1.51,0.25,2.156,0.625s1.428,1.021,2.344,1.938c0.334-0.333,0.625-0.5,0.875-0.5S938.187,3.312,938.562,3.562z"/>
	<path d="M995.062,107.375c0,0.542-0.104,1.021-0.312,1.438L993.5,111l-2.938,5.062l-2.688,0.188l-1.688,1.375
		c-0.375,0.375-1.021,0.625-1.938,0.75L973,120.562l-1.75,0.625l-4-0.375l-5.75,0.5l-6.5-0.375h-1.812
		c-0.916-0.709-1.479-1.125-1.688-1.25l-6.125-2.188l-2.062-1.938l-4.062-2.812l-3.25-4.312l-1.25-1.062
		c0.5-1,0.75-1.896,0.75-2.688c0-0.333-0.084-0.583-0.25-0.75l-1.688-2.688l-0.375-3.562l-0.125-2.875
		c0-0.958,0.229-2.229,0.688-3.812c0.709-2.5,1.291-4,1.75-4.5l2.312-2.938L939,80.875l2.938-2.812l3.188-4.188l2.812-1.562
		L952,69.5l2.688-1.812l0.938-0.625l1.875-0.375l5.688-1.812l4.438-0.5l2.688-1.125l1.312-0.125c2.125,0,3.916,1.146,5.375,3.438
		c0.791-0.083,1.375-0.521,1.75-1.312l1.688,1.438l2.312,1.25l5.25,5.125c0.666,0.834,1.178,1.553,1.531,2.156
		c0.354,0.604,0.709,1.24,1.062,1.906c0.354,0.667,0.666,1.396,0.938,2.188c0.271,0.792,0.678,2,1.219,3.625l0.5,1.562l-0.625,0.25
		l-2.438-0.5l-2.688,0.875l-2.062-0.375l-2.312,0.625l-4.375-0.5l-4.188,0.25l-4.375-0.75l-7.125,0.125l-3.5-0.125l-8.438,1.125
		l-3.062-0.125l-4.25,1.25l-1.5,0.312l-0.25,1.5c-0.084,1.042-0.229,1.75-0.438,2.125s-0.666,0.812-1.375,1.312l0.125,1.188
		c1.375,1.042,2.104,1.688,2.188,1.938l1.625,6.375l0.812,1.562c-0.416,0.417-0.625,0.792-0.625,1.125
		c0.041,0.084,0.084,0.167,0.125,0.25l2.375,0.75l0.562,1.562c0.416,1.459,0.959,2.354,1.625,2.688l3.375,1.375l1.125,2.438
		c0.584,0.292,1.521,0.521,2.812,0.688l0.875,1.625l1.938,0.25l5.375,1.938l4.5-0.875l11.875-1.938l2.562-1.562l4-2.438l3.312-4.312
		c0.584-0.708,1.271-1.062,2.062-1.062C994.333,105.438,995.062,106.084,995.062,107.375z M980.312,77.938
		c0-0.666-0.771-2.062-2.312-4.188l-4.312-3.125l-1.438-1.5L970.187,69l-4.75-0.375l-1.125,0.25l-2.688,1.5l-3.438,0.812
		l-4.375,1.625l-1.688,0.625l-2,3c-1.25,0.875-1.938,1.417-2.062,1.625l-0.25,0.75l7.688,0.562l0.875-0.125l1.438-0.438l1.375,0.312
		l3.688,0.75h0.188l4.188-0.75l1.312-0.312l1,1.438H971l5.5-1.125l2.25,0.25C979.791,79.25,980.312,78.771,980.312,77.938z"/>
	<path d="M1054,101.875c0,1.667-0.303,3.062-0.906,4.188s-1.322,1.688-2.156,1.688c-0.166,0-0.584-0.083-1.25-0.25l-0.812,1.438
		L1047.75,112l-2.812,3.062l-1.312,1.812l-1.75,0.125l-5.812,2.938l-2.688,0.375l-4.562,1.562l-3.625-0.688l-5.5,1.312
		c-0.375,0-2.416-0.396-6.125-1.188c-1.75-0.375-2.854-0.75-3.312-1.125l-2.438-1.562l-3.062-1.75
		c-1.291-0.833-2.344-1.906-3.156-3.219s-1.219-2.51-1.219-3.594c0-0.666,0.709-1.572,2.125-2.719
		c1.416-1.146,2.979-2.114,4.688-2.906l1.375,1.812l1.188,5.5l2.25,1.375l3.625,2.812l1.75,0.562l3.375,1.625h2.312l1.5,0.25
		l3.062-0.875l5.125-0.5l2.562-1.312l2.438-0.875c1.541-0.916,3.041-2.802,4.5-5.656c1.459-2.854,2.188-5.447,2.188-7.781
		c0-0.875-0.271-1.646-0.812-2.312l-2.438-3.438l-0.625-1.562l-1.5-0.75l-0.812,1l-1.375-0.125l-3.375-0.5h-3.938h-1l-1.688-2.438
		c-0.875,1-1.584,1.636-2.125,1.906c-0.541,0.271-1.584,0.531-3.125,0.781l-2.188,0.375l-1.25-0.625h-1.562l-1.625-1.25
		l-2.062,0.375L1011,91.875L1008.312,91c-1.041-0.333-1.938-1.146-2.688-2.438c-0.75-1.291-1.125-2.604-1.125-3.938
		c0-2.041,0.709-4.208,2.125-6.5c1.416-2.291,3.396-4.396,5.938-6.312c1.959-1.5,4.291-2.979,7-4.438
		c2.709-1.458,5.26-2.583,7.656-3.375c2.396-0.791,4.365-1.188,5.906-1.188c0.459,0,2.041,0.438,4.75,1.312l1.812,0.625
		c2.834-0.5,4.666-0.75,5.5-0.75c1.166,0,2.094,0.188,2.781,0.562s1.031,0.834,1.031,1.375c0,0.542-0.594,1.303-1.781,2.281
		c-1.188,0.979-2.678,1.886-4.469,2.719l-1.938,0.875l-1.625-0.125l-3.125-0.125l-2.375-0.625l-1.062-2.188h-0.875l-1.062,1.125
		h-1.875H1027l-2.562,0.375l-1.938-0.5l-1,0.75l-4,2.312c-2.791,2.417-4.188,4.604-4.188,6.562c0,1.375,0.416,2.271,1.25,2.688
		l4.125,1.875l1.25,0.688v1.5l1.938,1.062l2.062-1.938l1,0.125l10.5-0.75l5,1.125l2.312-0.375l2.938,1.938l4.375,2.438
		c0.875,0.584,1.646,1.896,2.312,3.938l0.5,1.688C1053.625,98,1054,100.167,1054,101.875z"/>
	<path d="M1114.437,101.875c0,1.667-0.303,3.062-0.906,4.188s-1.322,1.688-2.156,1.688c-0.166,0-0.584-0.083-1.25-0.25l-0.812,1.438
		l-1.125,3.062l-2.812,3.062l-1.312,1.812l-1.75,0.125l-5.812,2.938l-2.688,0.375l-4.562,1.562l-3.625-0.688l-5.5,1.312
		c-0.375,0-2.416-0.396-6.125-1.188c-1.75-0.375-2.854-0.75-3.312-1.125l-2.438-1.562l-3.062-1.75
		c-1.291-0.833-2.344-1.906-3.156-3.219s-1.219-2.51-1.219-3.594c0-0.666,0.709-1.572,2.125-2.719
		c1.416-1.146,2.979-2.114,4.688-2.906l1.375,1.812l1.188,5.5l2.25,1.375l3.625,2.812l1.75,0.562l3.375,1.625h2.312l1.5,0.25
		l3.062-0.875l5.125-0.5l2.562-1.312l2.438-0.875c1.541-0.916,3.041-2.802,4.5-5.656c1.459-2.854,2.188-5.447,2.188-7.781
		c0-0.875-0.271-1.646-0.812-2.312l-2.438-3.438L1101,94.062l-1.5-0.75l-0.812,1l-1.375-0.125l-3.375-0.5H1090h-1l-1.688-2.438
		c-0.875,1-1.584,1.636-2.125,1.906c-0.541,0.271-1.584,0.531-3.125,0.781l-2.188,0.375l-1.25-0.625h-1.562l-1.625-1.25
		l-2.062,0.375l-1.938-0.938L1068.75,91c-1.041-0.333-1.938-1.146-2.688-2.438c-0.75-1.291-1.125-2.604-1.125-3.938
		c0-2.041,0.709-4.208,2.125-6.5c1.416-2.291,3.396-4.396,5.938-6.312c1.959-1.5,4.291-2.979,7-4.438
		c2.709-1.458,5.26-2.583,7.656-3.375c2.396-0.791,4.365-1.188,5.906-1.188c0.459,0,2.041,0.438,4.75,1.312l1.812,0.625
		c2.834-0.5,4.666-0.75,5.5-0.75c1.166,0,2.094,0.188,2.781,0.562s1.031,0.834,1.031,1.375c0,0.542-0.594,1.303-1.781,2.281
		c-1.188,0.979-2.678,1.886-4.469,2.719l-1.938,0.875l-1.625-0.125l-3.125-0.125l-2.375-0.625l-1.062-2.188h-0.875l-1.062,1.125
		h-1.875h-1.812l-2.562,0.375l-1.938-0.5l-1,0.75l-4,2.312c-2.791,2.417-4.188,4.604-4.188,6.562c0,1.375,0.416,2.271,1.25,2.688
		l4.125,1.875l1.25,0.688v1.5l1.938,1.062l2.062-1.938l1,0.125l10.5-0.75l5,1.125l2.312-0.375l2.938,1.938l4.375,2.438
		c0.875,0.584,1.646,1.896,2.312,3.938l0.5,1.688C1114.062,98,1114.437,100.167,1114.437,101.875z"/>
	<path d="M1138,65.25c-0.791,1.75-1.25,3.375-1.375,4.875l-0.375,6.188l-1.188,2.125c0,0.084-0.01,0.167-0.031,0.25
		c-0.021,0.084-0.053,0.188-0.094,0.312c0,0.542,0.521,1.125,1.562,1.75l-0.25,1.938v12.125l-0.25,9.75l0.875,4.125v2.125l0.25,4.25
		c-0.209,0.625-1.521,1.854-3.938,3.688l-3.125,2.438c-0.5,0.541-1.125,0.812-1.875,0.812c-0.541,0-1.021-0.167-1.438-0.5
		c-0.416-0.334-0.625-0.688-0.625-1.062c0-1.083,0.334-2.354,1-3.812l0.5-1.812l-0.625-0.625l0.938-10.5l0.375-1.062l1.625-0.25v-2
		c0-1.291-0.104-2.25-0.312-2.875s-0.729-1.458-1.562-2.5l0.125-2.062v-0.375l-0.125-1.062c0-1.375,0.25-2.604,0.75-3.688
		l-0.875-1.062l0.125-3.438c0.584-0.333,0.875-0.708,0.875-1.125l-0.125-1.062l-1.812-0.25V79l0.125-1.688V74.75
		c0-1.125-0.115-1.958-0.344-2.5c-0.229-0.541-0.74-1.125-1.531-1.75c0.541-1.458,1.771-2.729,3.688-3.812l6-3.438
		C1136.062,63.375,1137.083,64.042,1138,65.25z M1141.75,32.125c0,0.917-0.229,1.521-0.688,1.812l-4.562,3.312l-1.812,1.812
		l-3.312,2.25c-2.209,1.625-3.541,2.438-4,2.438c-0.209,0-0.428-0.135-0.656-0.406c-0.229-0.271-0.344-0.552-0.344-0.844
		c0-0.958,0.25-1.688,0.75-2.188l6.438-6.125l3.438-4.625c0.5-0.25,1.062-0.375,1.688-0.375c0.834,0,1.553,0.281,2.156,0.844
		S1141.75,31.292,1141.75,32.125z"/>
	<path d="M1218.375,88.438l-1.375-0.25l0.25,1.438l-1.438,1c0.209,0.75,0.385,1.209,0.531,1.375
		c0.146,0.167,0.531,0.438,1.156,0.812l0.125,1.25c0,4.542-1.75,9.459-5.25,14.75c-0.791,1.167-1.771,2.396-2.938,3.688
		c-1.166,1.292-1.896,2.146-2.188,2.562l-1.875,0.5l-11.812,5.5l-6.5,0.25l-4.75,1.188l-5.625-0.125l-1.938,0.5l-5.625-1
		l-2.312-0.125l-1.25-1.438l-3.5-0.5l-1.625-0.875c-1.416-1.083-2.604-1.989-3.562-2.719c-0.959-0.729-1.572-1.208-1.844-1.438
		c-0.271-0.229-0.49-0.469-0.656-0.719l-1.375-2.688l-1.938-1.562l-1.5-3.938l-0.562-1.562l0.688-0.5
		c0-0.583,0.084-0.979,0.25-1.188c0.166-0.208,0.541-0.416,1.125-0.625l-0.375-1l-2.062-1.312v-2.562
		c0-1.791,0.209-3.562,0.625-5.312s1.146-3.771,2.188-6.062c1.625-3.666,2.834-5.75,3.625-6.25l2.562-1.688l1.375-2.438
		c0.5-0.875,1.104-1.458,1.812-1.75l5.875-3.125l3.312-2.688l4-1.5l7-2.438l5.812-0.5l4.562-0.125c2.584,0,3.875,0.709,3.875,2.125
		c0.709,0.625,1.166,0.938,1.375,0.938c0.625,0,1.312-0.604,2.062-1.812l1.562,0.375l4.062,1.438l1.688,1.375l2.312,1.438
		l2.312,3.562c0.625,0.792,1.854,1.188,3.688,1.188c1.209,1.5,2.021,2.979,2.438,4.438c0.416,1.459,0.875,4.146,1.375,8.062
		L1218.375,88.438z M1209.312,90L1207,82.812l-0.375-3.188L1206,78.438h-0.375c-0.334,0-0.604-0.062-0.812-0.188
		s-0.459-0.354-0.75-0.688L1201,73.75l-1-1.562l-5.25-2.438c-0.5-0.833-0.928-1.447-1.281-1.844
		c-0.354-0.396-0.781-0.594-1.281-0.594c-0.541,0-1.396,0.209-2.562,0.625c-1.166-0.5-2.021-0.75-2.562-0.75l-1.812,0.25
		l-3.062,0.125l-4.25,1.562l-1-0.875l-0.75,1l-4.25,2.562l-7.812,6.75l-1.5,1.312c-0.334,2.125-1.291,4.562-2.875,7.312l-0.875,1.5
		v0.5c0,0.917-0.146,1.521-0.438,1.812c-0.291,0.292-0.875,0.5-1.75,0.625c-0.166,0.667-0.25,0.979-0.25,0.938
		c0.041,0.084,0.072,0.156,0.094,0.219s0.031,0.115,0.031,0.156l1.938,2.188l0.25,1.375c-1.291,1.084-1.938,1.812-1.938,2.188
		l0.25,0.75c0.375-0.416,0.729-0.625,1.062-0.625c0.375,0,0.625,0.125,0.75,0.375l1.438,4.625l3.188,5.25l-0.375,3.188
		c0.334,0.334,0.709,0.5,1.125,0.5c0.5,0,1.021-0.25,1.562-0.75l1.25,0.375l7.562,4.625l7.688,0.75l4.375,0.625l4.938-0.875
		l3.25-0.75l4.062-4.125l2.938-0.875l1.438-1.562l3.312-6.875l1.688-1.438c0.584-0.583,0.875-1.083,0.875-1.5v-0.312l-1-2.938
		L1209.312,90z"/>
	<path d="M1285.25,115.938l-0.625,1.812l-8.625,4.125c-1.166-1.5-1.75-2.438-1.75-2.812v-0.312l1.5-6l0.125-2.688l0.5,0.125
		l1.062-1.25c-0.291-0.666-0.572-1.104-0.844-1.312c-0.271-0.208-0.76-0.458-1.469-0.75l-0.25-1l1-11.688l-0.625-1.625l0.125-2.062
		v-4.75l0.75-2.312L1275,82.312l0.125-3.75c-0.459-1.375-1.229-2.688-2.312-3.938V74c0-0.541-0.166-0.938-0.5-1.188l-1.562-0.125
		l-3.188-1.938l-5.125,0.312l-5.875-0.438c-0.5,0.25-1.062,0.771-1.688,1.562l-1.125-0.25l-4.875,0.875l-1.75,0.375l-2.188,1.688
		l-2.812,1.25c-1.375,0.667-2.146,1.667-2.312,3l-0.125,6.125l-0.812,3.812l1.312,3.75v2l-0.125,7.438l-1.188,2.562l-0.125,0.938
		v0.375l1.188,2l0.375,6.812l0.5,2.188c0,0.25-0.125,0.573-0.375,0.969c-0.25,0.396-0.584,0.678-1,0.844l-4.125,1l-1.125,0.25
		c-0.666,1.125-1.312,1.688-1.938,1.688c-0.416,0-0.854-0.229-1.312-0.688c-0.041-0.084-0.094-0.167-0.156-0.25
		c-0.062-0.084-0.135-0.167-0.219-0.25c-0.166-0.334-0.25-0.459-0.25-0.375l0.938-4.625l-0.125-5.25l0.625-2.125l-0.5-3.5
		l0.25-3.812l0.125-8.062c0-1.083,0.729-1.688,2.188-1.812c-0.125-0.916-0.344-1.489-0.656-1.719
		c-0.312-0.229-0.99-0.344-2.031-0.344l0.125-11.25l1.375-0.875l-0.75-1.312l-1.688-4.562l-1.125-1.438l0.75-1.375l1.312-1.562
		l2.25-1l2.188-1.688c0.625-0.5,1.396-0.75,2.312-0.75c0.541,0,1.062,0.156,1.562,0.469s0.791,0.656,0.875,1.031l0.125,5.875
		l0.25,1.938l1.188-0.375c1.5-1.833,3.26-3.552,5.281-5.156c2.021-1.604,3.531-2.406,4.531-2.406c0.541,0,0.979,0.438,1.312,1.312
		c0.834-0.25,1.812-0.729,2.938-1.438c1.209-0.666,2.229-1,3.062-1h0.375l5.125,0.5l1.938-0.625l5.75,0.75
		c1.959,0.25,3.5,0.938,4.625,2.062l0.875-0.125c1.334,0,2.438,0.584,3.312,1.75l0.938,1.562l1.25,2.062
		c0.584,0.709,0.875,2.229,0.875,4.562v3.5l0.25,1.5l-1.5,1.938l0.5,1.562l0.75,1.375v1.438v1.125c0,0.334-0.041,0.584-0.125,0.75
		L1283.062,91c-0.166,0.334-0.25,0.938-0.25,1.812l1.25,1.625l-0.125,1.812l-0.125,4.375v0.5l0.938,2.438l0.125,5.625
		L1285.25,115.938z"/>
</g>
</svg>
