<?xml version="1.0" encoding="utf-8"?>
<!-- Generator: Adobe Illustrator 15.0.0, SVG Export Plug-In . SVG Version: 6.00 Build 0)  -->
<!DOCTYPE svg PUBLIC "-//W3C//DTD SVG 1.1//EN" "http://www.w3.org/Graphics/SVG/1.1/DTD/svg11.dtd">
<svg version="1.1" id="Layer_1" xmlns="http://www.w3.org/2000/svg" xmlns:xlink="http://www.w3.org/1999/xlink" x="0px" y="0px"
	 width="475.5px" height="184.062px" viewBox="0 0 475.5 184.062" enable-background="new 0 0 475.5 184.062" xml:space="preserve">
<g>
	<path d="M112.375,65.5c0,0.292-0.042,0.521-0.125,0.688l-1.125,3.688l0.125,3.188l-0.938,1.688
		c-0.167-0.083-0.459-0.125-0.875-0.125c-0.25,0-0.479,0.209-0.688,0.625c-0.209,0.417-0.312,0.896-0.312,1.438
		c0,0.167,0.041,0.292,0.125,0.375c0.833,1.375,1.25,2.271,1.25,2.688c0,0.334-0.084,0.625-0.25,0.875
		c-0.875,0.834-1.479,1.771-1.812,2.812l-1.375,0.625l0.375,0.438l-0.375,0.375l1,0.75L107.25,86l-1.125,1.062l-1.438,2.375
		l-1,1.062c-0.584-0.583-1.062-0.875-1.438-0.875c-0.75,0-1.125,0.417-1.125,1.25c0,0.334,0.333,0.938,1,1.812
		c-1.292,2.167-3.417,4.167-6.375,6c-3.084,1.959-6.271,3.729-9.562,5.312c-3.292,1.584-5.834,2.542-7.625,2.875l-1.25,0.25
		c-3.125,0.583-5.084,0.875-5.875,0.875h-0.25l-2.438-0.125l-1.562,0.25l-2.312-1.375l-1.75,0.75
		c-0.792,0.541-1.354,0.812-1.688,0.812h-0.5c-0.334-0.792-0.667-1.365-1-1.719c-0.334-0.354-0.854-0.677-1.562-0.969
		c-2.584,1.333-4.584,2-6,2c-0.5,0-0.979-0.167-1.438-0.5c-0.917,0-1.417-0.042-1.5-0.125l-4.375-1.25l-3.688,0.125l-1.438-1.188
		l-2.062,0.25l-1.75-0.25l-2.562-0.75l-7.938-1.812l-2.188-1.75l-2.812-1.062l-2.938-3.062c-0.667-0.5-1.646-0.75-2.938-0.75
		l-1.688-1.938c0.333-0.791,0.5-1.396,0.5-1.812c0-1.291-1.542-2.188-4.625-2.688v-0.5l-0.75-0.25l-0.75-1.375L6.812,86.25v-1.375
		L5.5,81.125l-0.25-1.25l-1-5.5L4.625,69l0.5-1.562L5.5,64l3.062-8.062L8.938,54.5c0.875-2.166,2.25-3.771,4.125-4.812v-0.812
		l3.188-3.562c0.5,0.167,0.791,0.25,0.875,0.25c0.625,0,1.062-0.25,1.312-0.75l0.875-2.688l1.188-1.562
		c0.458-0.916,1.083-1.604,1.875-2.062l1.938-0.875L26,35.562l3.938-2.688c2.625-1.708,4.125-2.562,4.5-2.562l1,0.375l1.688-2
		l1.125-0.25l11.812-4.625c0.666-0.333,1.479-0.5,2.438-0.5c0.875,0,1.938,0.25,3.188,0.75l1-0.375l0.375-1.188l1.812,0.25l1,0.188
		h0.312l3.062-0.812l4.875,0.25l2.375-0.5l2.062,0.25L74.5,22l2.188,0.75l3.688,0.688l2.688,1.5l7.688,2.812l0.75,0.688l1.438,0.875
		v0.625l-0.25,0.125c-0.334,0.334-0.5,0.646-0.5,0.938c0,0.292,0.458,0.709,1.375,1.25l0.25-0.5c0.958,0,1.688,0.459,2.188,1.375
		c0,0.959,0.083,1.594,0.25,1.906c0.166,0.312,0.562,0.761,1.188,1.344c0.625-0.375,1.208-0.562,1.75-0.562
		c1.083,0,1.979,0.438,2.688,1.312l1.062,1.375l2.25,2.062L105.5,42l1.5,1.875l0.375,1.688c-0.667,0.875-1,1.604-1,2.188
		c0,0.25,0.041,0.459,0.125,0.625l3.812,3.875l0.25,1.375l1.062,2.938c0,0.125-0.084,0.646-0.25,1.562l-0.938,0.5v0.625l1.062,0.125
		l0.25,1.438L112.375,65.5z M102.375,54.938c0-1.875-1.188-3-3.562-3.375l-0.375-3.438l-3.062-4.75l-0.5-1.938l-0.812-0.125
		l-1.125-1.375l-2.812-3.312l-2.562-1.688L85,32.875L83.812,32.5l-0.75-1.375h-1.25c-1.167,0-2.062-0.229-2.688-0.688l-5.5-3.062
		l-5.5-0.75l-4-0.75L60.312,26h-2.938l-3.125,0.875l-2.812,0.375l-2.812,1.688l-1.5-0.375H47l-1.562,0.5L38.5,32.875l-1.625,0.25
		c-1.167,1.667-2.188,2.646-3.062,2.938l-1.688,0.688l-5.5,5.375l-1,0.75C24.125,44,22.583,46.042,21,49l-0.625,1.188l-1.312,0.25
		l-0.625,1.25l-0.75,3.25l-0.812,0.875l-0.375,1.25l-2.562-0.375c-0.209,0.709-0.428,1.178-0.656,1.406
		c-0.229,0.229-0.636,0.49-1.219,0.781L11.875,59.5c1.541,0.959,2.312,1.896,2.312,2.812l-0.125,4.375L15,73.062l-0.125,1.562
		l2,3.312c-1,0.625-1.5,1.229-1.5,1.812c0,0.375,0.197,0.74,0.594,1.094c0.396,0.354,0.885,0.531,1.469,0.531
		c0.208-0.041,0.385-0.072,0.531-0.094c0.146-0.021,0.385-0.031,0.719-0.031L21,84.062c-0.5,0.75-0.75,1.229-0.75,1.438l0.5,1h0.5
		l2.562,2.438l3.312,1.812l4.625,3.812l3.562,0.688l1.938,2l6.5,2.438L49.125,102l1.812-0.125l11.5,1.688l1.812,0.125l1.438-0.125
		l2.438-0.625l6.25,0.375l2.688-0.562l4.75-1.875l1.75-0.5l0.938,0.75c1.291-0.375,2-0.771,2.125-1.188l0.562-2l6.25-5.375
		l2.562-4.5l1-1.812h0.812l0.75-1.625l-0.375-0.688l0.375-1.125l0.25-5.125l1-2.438l0.312-1.812L101,72.812L101.625,69
		c-0.834-1.5-1.25-2.666-1.25-3.5v-0.125l0.25-6l-0.125-1.938C101.75,56.646,102.375,55.812,102.375,54.938z"/>
	<path d="M191.875,81.125l-1.25,3.375L190,86l-1.812,2.312l-1.312,2.438l-1.625,1.688l-1.188,1.5l-0.875,0.25l-1.688-0.375
		L180.875,95c-1.084,1.959-1.906,3.188-2.469,3.688s-1.573,0.75-3.031,0.75h-0.125l-1-0.125c-0.167,1.417-0.761,2.615-1.781,3.594
		c-1.021,0.979-2.698,1.886-5.031,2.719L164,106.75l-2.812,1l-5.625,0.125l-1.562,0.25l-1.562,1.062c-0.917-0.5-1.584-0.771-2-0.812
		c-0.417-0.042-1.75-0.167-4-0.375l-1.5-0.125l0.25-1.5l-1.438-0.25l-1.25,0.75l-1.062,0.5h-1.75h-2.812L135.688,107l-0.375,1.562
		l0.25,9.312l-0.875,4.25l-0.125,1.75h1l0.375,11.562l-1.5,0.25l-0.375,1l0.25,1.562l0.75,3.312L134.688,143l0.875-0.688
		l0.625,0.375l0.125,4.25l0.438,4.125l0.25,2.812c0,0.791-0.646,1.25-1.938,1.375l-0.375,0.875l2.188,0.562l-0.125,1.25l0.625,3.062
		l0.25,2.062l-0.75,1.188l-1.562,1.25l-1.25,2.062l-1.562,0.5l-3.312,1.562l-1.062,0.125l-2.312-0.125l-0.125-2.312l0.125-2.062
		l0.438-5.25l-0.125-5.25c0.041-0.542,0.146-0.979,0.312-1.312c0.166-0.334,0.521-0.709,1.062-1.125l-0.625-4.062
		c0.791-0.792,1.281-1.354,1.469-1.688c0.188-0.334,0.302-0.896,0.344-1.688c-0.709-0.25-1.178-0.5-1.406-0.75
		c-0.229-0.25-0.406-0.625-0.531-1.125l0.5-2.312L127,139l-0.125-6.625l-0.25-5l0.625-5.938l0.125-1.625
		c0.958-0.917,1.438-1.812,1.438-2.688c0-0.709-0.188-1.812-0.562-3.312l-1.375-0.438l-0.625-2.125v-0.938L127,89.438l0.75-2.25
		l-0.25-2.312l-0.25-1.688l-1.125-0.375v-1.688l-0.312-9.188v-1l0.438-2.562l-0.688-5.25c0-1.458-0.094-2.364-0.281-2.719
		c-0.188-0.354-0.803-0.822-1.844-1.406c0.125-1.333,0.375-2.188,0.75-2.562l1.25-0.75l2.938-3.312l2.688-1.562l1.562-0.75
		c0.791,0.084,1.771,0.625,2.938,1.625l-0.25,1.188l-0.25,1.875l0.125,1.062l1.125,0.125l2.188-1.188
		c2.541-1.291,4.406-2.146,5.594-2.562c1.188-0.416,2.447-0.625,3.781-0.625c0.708,0,1.26,0.094,1.656,0.281
		c0.396,0.188,0.781,0.49,1.156,0.906l1.125-0.812l0.625-0.75L154,50.812l2.562-0.5l7.062,0.125l6-0.125
		c0.791,0,1.729,0.646,2.812,1.938c0.166-0.041,0.333-0.083,0.5-0.125c0.166-0.041,0.291-0.062,0.375-0.062
		c0.333,0,1.062,0.312,2.188,0.938l4.625,2.312c0.833,0.334,1.375,0.709,1.625,1.125l1.062,2.438c0.208,0.334,0.583,0.5,1.125,0.5
		c0.5,0,1.062-0.125,1.688-0.375c1.25,0.959,2.312,2.188,3.188,3.688c0.583,1.042,1.219,2.906,1.906,5.594s1.031,4.719,1.031,6.094
		v0.25l-0.375,2.062l-0.125,1.75L191.875,81.125z M183.812,75.5c-1.542-0.791-2.479-1.729-2.812-2.812l-1-2.938L176.812,65
		l-0.312-2.562l-0.875-0.875l-3.312,0.125l-5-3.312L163.75,58l-3.375-1.188l-9.062,0.125h-1.438l-1.75,0.25L143,58.625l-2.562,0.5
		L138.375,60l-1.5,0.438c-0.959,0.334-1.438,1.562-1.438,3.688v0.75c-1.209,2.584-1.812,4-1.812,4.25s0.041,0.417,0.125,0.5
		l0.312,0.5l1.25,0.5l-0.25,3.125l0.25,7.125c0,0.542-0.375,1.479-1.125,2.812c0.916,2.042,1.375,3.792,1.375,5.25l-0.25,5.75
		l-0.125,2.188L137,97.812l3.188,1.375l2.562,1.938l0.75-1.062l1.688,0.688l5.375,0.375l4.562,1.812l5.125-0.812l3.25,0.125l2.375-1
		l2.562-1.188l3.125-2.25L174,96.25l2.25-2.812l2.688-1.938c1.541-1,2.396-2.021,2.562-3.062L181.75,86l1.562-3.062
		c0.041-0.083,0.072-0.156,0.094-0.219c0.021-0.062,0.031-0.114,0.031-0.156l-0.25-5l-0.125-1.438L183.812,75.5z"/>
	<path d="M242.938,52.375l-0.625,1.75l-0.125,1.312l-4.5,3.312L235,61.188l-1.562,0.25l-2.312-0.25
		c-1.542-0.166-2.948-0.406-4.219-0.719c-1.271-0.312-1.865-0.469-1.781-0.469H225l-4.188,0.312l-2.438-0.438
		c-0.584,0.084-1.073,0.303-1.469,0.656c-0.396,0.354-0.594,0.74-0.594,1.156c0,0.459,0.25,0.75,0.75,0.875l-0.125,8.062
		c-1.792,0.5-2.688,1.271-2.688,2.312l0.125,1.438l2.562,0.5l0.25,6l0.125,1.312l-0.625,1.875c-0.5-0.25-0.917-0.375-1.25-0.375
		c-1.042,0-1.562,0.479-1.562,1.438c0,0.417,0.333,1.062,1,1.938c0.583-0.708,0.979-1.062,1.188-1.062
		c0.125,0,0.541,0.312,1.25,0.938l0.125,8.438l0.25,1.25l1.438,2.938c0.083,0.25,0.125,0.979,0.125,2.188
		c1.041,0.625,1.844,1.021,2.406,1.188c0.562,0.167,1.344,0.25,2.344,0.25c1.333,0,2.656-0.229,3.969-0.688
		c1.312-0.458,2.364-1.041,3.156-1.75l6.188-5.625c0.25-0.291,0.583-0.438,1-0.438c0.5,0,1.229,0.271,2.188,0.812l-0.375,1.375
		c-0.875,3.459-1.604,5.292-2.188,5.5l-14.688,5.375l-2.562,1.312l-1.938-1.188l-1.312-0.25l-0.625,1.688l-1.125,0.125
		c-1.25,0-2.709-0.604-4.375-1.812c-1.75-1.416-2.688-2.479-2.812-3.188l-0.375-1.812l-0.75-2.125L207.5,97v-3.938l1.25-4.125
		l-0.375-1.5l-0.25-2.188v-1.438l0.25-6l-0.125-1.688L208,74c0-0.166,0.041-0.25,0.125-0.25l1.625-1.938
		c0.208-0.291,0.312-0.541,0.312-0.75c0-0.958-0.729-1.438-2.188-1.438l-0.5-0.75c0.416-3.041,0.625-6.083,0.625-9.125
		c-2-0.416-3.5-0.625-4.5-0.625c-2.584,0-5.188,0.438-7.812,1.312c-0.334-0.291-0.5-0.604-0.5-0.938c0-0.708,0.166-1.166,0.5-1.375
		l2.438-2.062l0.375-1.438c0.125-0.333,0.333-0.604,0.625-0.812c0.291-0.208,0.521-0.312,0.688-0.312l7.25-0.25L208.75,53
		l-0.125-1.438L208.25,38.25l-1.562-3.562l-0.375-1.938c1.25-1.75,2.5-3,3.75-3.75s2.854-1.291,4.812-1.625
		c0.833-1.291,1.562-1.938,2.188-1.938c1.125,0,1.688,1.896,1.688,5.688c0,5.75-0.521,9.834-1.562,12.25
		c-0.584,1.709-1.167,2.562-1.75,2.562v2.938c0.625,0,1.041,0.053,1.25,0.156c0.208,0.104,0.458,0.365,0.75,0.781l-0.375,1.75
		l0.25,1.438l1.312,0.125l6.25,1.375c0.5,0.167,1.188,0.25,2.062,0.25c0.916,0,1.562-0.083,1.938-0.25l2.438-0.75l4.688-0.5
		l3.625-1.312h1.25h0.5h1.438C242.896,52.271,242.938,52.417,242.938,52.375z"/>
	<path d="M261.062,51.938c-0.792,1.75-1.25,3.375-1.375,4.875L259.312,63l-1.188,2.125c0,0.084-0.011,0.167-0.031,0.25
		c-0.021,0.084-0.053,0.188-0.094,0.312c0,0.542,0.521,1.125,1.562,1.75l-0.25,1.938V81.5l-0.25,9.75l0.875,4.125V97.5l0.25,4.25
		c-0.209,0.625-1.521,1.854-3.938,3.688l-3.125,2.438c-0.5,0.541-1.125,0.812-1.875,0.812c-0.542,0-1.021-0.167-1.438-0.5
		c-0.417-0.334-0.625-0.688-0.625-1.062c0-1.083,0.333-2.354,1-3.812l0.5-1.812l-0.625-0.625l0.938-10.5l0.375-1.062l1.625-0.25v-2
		c0-1.291-0.104-2.25-0.312-2.875c-0.209-0.625-0.729-1.458-1.562-2.5l0.125-2.062V79.25l-0.125-1.062
		c0-1.375,0.25-2.604,0.75-3.688L251,73.438L251.125,70c0.583-0.333,0.875-0.708,0.875-1.125l-0.125-1.062l-1.812-0.25v-1.875
		L250.188,64v-2.562c0-1.125-0.115-1.958-0.344-2.5c-0.229-0.541-0.74-1.125-1.531-1.75c0.541-1.458,1.771-2.729,3.688-3.812
		l6-3.438C259.125,50.062,260.146,50.729,261.062,51.938z M264.812,18.812c0,0.917-0.229,1.521-0.688,1.812l-4.562,3.312
		l-1.812,1.812L254.438,28c-2.209,1.625-3.542,2.438-4,2.438c-0.209,0-0.428-0.135-0.656-0.406
		c-0.229-0.271-0.344-0.552-0.344-0.844c0-0.958,0.25-1.688,0.75-2.188l6.438-6.125l3.438-4.625c0.5-0.25,1.062-0.375,1.688-0.375
		c0.833,0,1.552,0.281,2.156,0.844C264.51,17.281,264.812,17.979,264.812,18.812z"/>
	<path d="M341.438,75.125l-1.375-0.25l0.25,1.438l-1.438,1c0.208,0.75,0.385,1.209,0.531,1.375c0.146,0.167,0.531,0.438,1.156,0.812
		l0.125,1.25c0,4.542-1.75,9.459-5.25,14.75c-0.792,1.167-1.771,2.396-2.938,3.688c-1.167,1.292-1.896,2.146-2.188,2.562l-1.875,0.5
		l-11.812,5.5l-6.5,0.25l-4.75,1.188l-5.625-0.125l-1.938,0.5l-5.625-1l-2.312-0.125l-1.25-1.438l-3.5-0.5l-1.625-0.875
		c-1.417-1.083-2.604-1.989-3.562-2.719c-0.959-0.729-1.573-1.208-1.844-1.438c-0.271-0.229-0.49-0.469-0.656-0.719l-1.375-2.688
		l-1.938-1.562l-1.5-3.938L272.062,91l0.688-0.5c0-0.583,0.083-0.979,0.25-1.188c0.166-0.208,0.541-0.416,1.125-0.625l-0.375-1
		l-2.062-1.312v-2.562c0-1.791,0.208-3.562,0.625-5.312c0.416-1.75,1.146-3.771,2.188-6.062c1.625-3.666,2.833-5.75,3.625-6.25
		l2.562-1.688l1.375-2.438c0.5-0.875,1.104-1.458,1.812-1.75l5.875-3.125l3.312-2.688l4-1.5l7-2.438l5.812-0.5l4.562-0.125
		c2.583,0,3.875,0.709,3.875,2.125c0.708,0.625,1.166,0.938,1.375,0.938c0.625,0,1.312-0.604,2.062-1.812l1.562,0.375L327.375,53
		l1.688,1.375l2.312,1.438l2.312,3.562c0.625,0.792,1.854,1.188,3.688,1.188c1.208,1.5,2.021,2.979,2.438,4.438
		c0.416,1.459,0.875,4.146,1.375,8.062L341.438,75.125z M332.375,76.688l-2.312-7.188l-0.375-3.188l-0.625-1.188h-0.375
		c-0.334,0-0.604-0.062-0.812-0.188c-0.209-0.125-0.459-0.354-0.75-0.688l-3.062-3.812l-1-1.562l-5.25-2.438
		c-0.5-0.833-0.928-1.447-1.281-1.844C316.177,54.198,315.75,54,315.25,54c-0.542,0-1.396,0.209-2.562,0.625
		c-1.167-0.5-2.021-0.75-2.562-0.75l-1.812,0.25l-3.062,0.125L301,55.812l-1-0.875l-0.75,1L295,58.5l-7.812,6.75l-1.5,1.312
		c-0.334,2.125-1.292,4.562-2.875,7.312l-0.875,1.5v0.5c0,0.917-0.146,1.521-0.438,1.812c-0.292,0.292-0.875,0.5-1.75,0.625
		c-0.167,0.667-0.25,0.979-0.25,0.938c0.041,0.084,0.072,0.156,0.094,0.219c0.021,0.062,0.031,0.115,0.031,0.156l1.938,2.188
		l0.25,1.375c-1.292,1.084-1.938,1.812-1.938,2.188l0.25,0.75c0.375-0.416,0.729-0.625,1.062-0.625c0.375,0,0.625,0.125,0.75,0.375
		l1.438,4.625l3.188,5.25l-0.375,3.188c0.333,0.334,0.708,0.5,1.125,0.5c0.5,0,1.021-0.25,1.562-0.75l1.25,0.375l7.562,4.625
		l7.688,0.75l4.375,0.625l4.938-0.875l3.25-0.75L322,99.312l2.938-0.875l1.438-1.562L329.688,90l1.688-1.438
		c0.583-0.583,0.875-1.083,0.875-1.5V86.75l-1-2.938L332.375,76.688z"/>
	<path d="M408.312,102.625l-0.625,1.812l-8.625,4.125c-1.167-1.5-1.75-2.438-1.75-2.812v-0.312l1.5-6l0.125-2.688l0.5,0.125
		l1.062-1.25c-0.292-0.666-0.573-1.104-0.844-1.312c-0.271-0.208-0.761-0.458-1.469-0.75l-0.25-1l1-11.688l-0.625-1.625l0.125-2.062
		v-4.75l0.75-2.312L398.062,69l0.125-3.75c-0.459-1.375-1.229-2.688-2.312-3.938v-0.625c0-0.541-0.167-0.938-0.5-1.188l-1.562-0.125
		l-3.188-1.938L385.5,57.75l-5.875-0.438c-0.5,0.25-1.062,0.771-1.688,1.562l-1.125-0.25l-4.875,0.875l-1.75,0.375L368,61.562
		l-2.812,1.25c-1.375,0.667-2.146,1.667-2.312,3l-0.125,6.125l-0.812,3.812l1.312,3.75v2l-0.125,7.438l-1.188,2.562l-0.125,0.938
		v0.375l1.188,2l0.375,6.812l0.5,2.188c0,0.25-0.125,0.573-0.375,0.969c-0.25,0.396-0.584,0.678-1,0.844l-4.125,1l-1.125,0.25
		c-0.667,1.125-1.312,1.688-1.938,1.688c-0.417,0-0.854-0.229-1.312-0.688c-0.042-0.084-0.094-0.167-0.156-0.25
		c-0.062-0.084-0.136-0.167-0.219-0.25c-0.167-0.334-0.25-0.459-0.25-0.375l0.938-4.625l-0.125-5.25L354.812,95l-0.5-3.5l0.25-3.812
		l0.125-8.062c0-1.083,0.729-1.688,2.188-1.812c-0.125-0.916-0.344-1.489-0.656-1.719c-0.312-0.229-0.99-0.344-2.031-0.344
		l0.125-11.25l1.375-0.875l-0.75-1.312l-1.688-4.562l-1.125-1.438l0.75-1.375l1.312-1.562l2.25-1l2.188-1.688
		c0.625-0.5,1.396-0.75,2.312-0.75c0.541,0,1.062,0.156,1.562,0.469s0.791,0.656,0.875,1.031l0.125,5.875l0.25,1.938l1.188-0.375
		c1.5-1.833,3.26-3.552,5.281-5.156c2.021-1.604,3.531-2.406,4.531-2.406c0.541,0,0.979,0.438,1.312,1.312
		c0.833-0.25,1.812-0.729,2.938-1.438c1.208-0.666,2.229-1,3.062-1h0.375l5.125,0.5l1.938-0.625l5.75,0.75
		c1.958,0.25,3.5,0.938,4.625,2.062l0.875-0.125c1.333,0,2.438,0.584,3.312,1.75L405,56.062l1.25,2.062
		c0.583,0.709,0.875,2.229,0.875,4.562v3.5l0.25,1.5l-1.5,1.938l0.5,1.562l0.75,1.375V74v1.125c0,0.334-0.042,0.584-0.125,0.75
		l-0.875,1.812c-0.167,0.334-0.25,0.938-0.25,1.812l1.25,1.625L407,82.938l-0.125,4.375v0.5l0.938,2.438l0.125,5.625
		L408.312,102.625z"/>
	<path d="M471.5,88.562c0,1.667-0.303,3.062-0.906,4.188c-0.604,1.125-1.323,1.688-2.156,1.688c-0.167,0-0.584-0.083-1.25-0.25
		l-0.812,1.438l-1.125,3.062l-2.812,3.062l-1.312,1.812l-1.75,0.125l-5.812,2.938L450.875,107l-4.562,1.562l-3.625-0.688l-5.5,1.312
		c-0.375,0-2.417-0.396-6.125-1.188c-1.75-0.375-2.854-0.75-3.312-1.125l-2.438-1.562l-3.062-1.75
		c-1.292-0.833-2.344-1.906-3.156-3.219s-1.219-2.51-1.219-3.594c0-0.666,0.708-1.572,2.125-2.719
		c1.416-1.146,2.979-2.114,4.688-2.906l1.375,1.812l1.188,5.5l2.25,1.375l3.625,2.812l1.75,0.562l3.375,1.625h2.312l1.5,0.25
		l3.062-0.875l5.125-0.5l2.562-1.312l2.438-0.875c1.541-0.916,3.041-2.802,4.5-5.656c1.458-2.854,2.188-5.447,2.188-7.781
		c0-0.875-0.271-1.646-0.812-2.312l-2.438-3.438l-0.625-1.562l-1.5-0.75l-0.812,1l-1.375-0.125l-3.375-0.5h-3.938h-1l-1.688-2.438
		c-0.875,1-1.584,1.636-2.125,1.906c-0.542,0.271-1.584,0.531-3.125,0.781L436.938,81l-1.25-0.625h-1.562l-1.625-1.25l-2.062,0.375
		l-1.938-0.938l-2.688-0.875c-1.042-0.333-1.938-1.146-2.688-2.438c-0.75-1.291-1.125-2.604-1.125-3.938
		c0-2.041,0.708-4.208,2.125-6.5c1.416-2.291,3.396-4.396,5.938-6.312c1.958-1.5,4.291-2.979,7-4.438
		c2.708-1.458,5.26-2.583,7.656-3.375c2.396-0.791,4.364-1.188,5.906-1.188c0.458,0,2.041,0.438,4.75,1.312l1.812,0.625
		c2.833-0.5,4.666-0.75,5.5-0.75c1.166,0,2.094,0.188,2.781,0.562s1.031,0.834,1.031,1.375c0,0.542-0.594,1.303-1.781,2.281
		c-1.188,0.979-2.678,1.886-4.469,2.719l-1.938,0.875l-1.625-0.125l-3.125-0.125l-2.375-0.625l-1.062-2.188h-0.875l-1.062,1.125
		h-1.875H444.5l-2.562,0.375l-1.938-0.5l-1,0.75l-4,2.312c-2.792,2.417-4.188,4.604-4.188,6.562c0,1.375,0.416,2.271,1.25,2.688
		l4.125,1.875l1.25,0.688v1.5l1.938,1.062l2.062-1.938l1,0.125l10.5-0.75l5,1.125l2.312-0.375L463.188,74l4.375,2.438
		c0.875,0.584,1.646,1.896,2.312,3.938l0.5,1.688C471.125,84.688,471.5,86.854,471.5,88.562z"/>
</g>
</svg>
