<?xml version="1.0" encoding="utf-8"?>
<!-- Generator: Adobe Illustrator 15.0.0, SVG Export Plug-In . SVG Version: 6.00 Build 0)  -->
<!DOCTYPE svg PUBLIC "-//W3C//DTD SVG 1.1//EN" "http://www.w3.org/Graphics/SVG/1.1/DTD/svg11.dtd">
<svg version="1.1" id="Layer_1" xmlns="http://www.w3.org/2000/svg" xmlns:xlink="http://www.w3.org/1999/xlink" x="0px" y="0px"
	 width="552.25px" height="184.062px" viewBox="0 0 552.25 184.062" enable-background="new 0 0 552.25 184.062"
	 xml:space="preserve">
<g>
	<path d="M99.312,21.75c0,0.667-0.292,1.521-0.875,2.562l-0.75,3.812l-0.438,2.688L95.375,37.5l-0.625,1.688l-1.438-0.25l-1,0.25
		l-0.25,1.5l1.75,0.625c-0.084,1.125-0.198,1.865-0.344,2.219c-0.146,0.354-0.531,0.781-1.156,1.281c0,2.5-0.604,4.5-1.812,6
		l-1.938,2.812l0.125,1.938l-0.5,2.062l-0.375,2l-1.438,3.062v1.688c0,0.584-0.417,1.875-1.25,3.875l-0.75,1.875l-0.812-0.25
		c-0.25,0.709-0.667,1.229-1.25,1.562l0.25,2l0.75,0.312l-0.375,1.75L81,80.375l-1.5,2.812l-0.125,2.938l-0.25,1.688L80,90.125
		l-0.75,1.25l-1.812,2.562l-0.25,2.562l-0.5,1.562l-0.25,1.75l-1.562,2.312l-0.625,2.938c-0.25,1.084-0.709,1.958-1.375,2.625
		c-0.667,0.666-1.417,1-2.25,1l-1.5-0.562c-0.125-0.959-0.25-1.5-0.375-1.625l-1.312-2.312l-1-5.625l-0.875-2.812l-0.938-0.125
		l0.125-2.938l1.312-0.375c-0.334-0.791-0.688-1.364-1.062-1.719c-0.375-0.354-1-0.635-1.875-0.844l0.25-3L63.125,85
		c0.458-0.166,0.833-0.479,1.125-0.938l-0.625-0.75l-0.375-0.125l-0.5-1.25l-1.688-6.812L59,71.562l-1.375-6.938l-2.062-4.188
		l-0.938-1.312c0.5-0.041,0.885-0.166,1.156-0.375c0.271-0.208,0.531-0.583,0.781-1.125c-0.5-0.541-0.959-0.812-1.375-0.812
		c-0.25,0-0.469,0.011-0.656,0.031c-0.188,0.021-0.406,0.053-0.656,0.094l-0.25-0.875l0.125-3.312l-0.875-2.312L52.75,49.25
		c-0.334-0.583-0.771-0.875-1.312-0.875c-0.334,0-0.584,0.167-0.75,0.5L48.25,57.75L47,59l-1.312,2.062l-1.25,3.188l0.125,3.188
		c-0.084,1.417-0.854,2.479-2.312,3.188l-0.125,1.438l-0.75,1.562v3.562l-0.938,1.25l-0.5,1.438l0.375,0.375l-0.375,1.438
		l-2.312,7.375l-0.75,3.375l-0.5,1.625c-0.167,0.667-0.25,1.188-0.25,1.562c0,0.584,0.25,1.354,0.75,2.312
		c-0.709,0.25-1.188,0.5-1.438,0.75s-0.459,0.667-0.625,1.25l0.375,0.438l-0.75,2l-0.625,4.125c0,0.209-0.396,0.625-1.188,1.25
		l-1,0.812L31.5,108c-0.834-0.625-1.428-1.25-1.781-1.875c-0.354-0.625-0.781-1.791-1.281-3.5L27,98.062l-1.5-6.938
		c-0.584-1.541-1.229-2.896-1.938-4.062l0.625-1.312l1.312-2.312c0-0.291-0.396-0.75-1.188-1.375l-0.25,0.625l-2.188-0.25
		l-0.5-1.688l-0.5-3.938l-0.5-1.188l1-3.188l-0.375-1l-2.062-0.125L16.5,65.375L17,64.25l-0.125-0.875l-0.125-1.438L15,62.188
		l-0.562-1.875l-1.25-2.062L11,52.625l-1.375-1.438l-1.312-4.625l-0.75-1.125l0.5-1.812c0-0.583-0.167-1.041-0.5-1.375L5.75,40.562
		l-1.938-6.75l-2.938-4.25c0-0.083-0.011-0.156-0.031-0.219c-0.021-0.062-0.053-0.114-0.094-0.156c0-0.5,0.688-1.521,2.062-3.062
		L4.25,26.25l0.625-0.938l1.375-0.875l2.188-1.125l1.688-1.188c1.25,0.834,1.979,1.812,2.188,2.938l1.875,7.688l0.562,1.562
		c-1,0.584-1.812,0.875-2.438,0.875l-1.188-0.125c0.25,1.625,1.271,2.438,3.062,2.438l1.312-0.125l0.5,1.938L16.875,42l1.062,1.625
		l0.25,1.562c0.916,1.125,1.375,2.021,1.375,2.688c0,0.542-0.542,1-1.625,1.375c0.416,0.792,0.625,1.438,0.625,1.938
		c0,0.584-0.209,1.188-0.625,1.812l1.25,1L21,54.5l0.125,2.062l2.062,2.188l0.625,2.188L24.438,63l-0.75,0.75
		c1.125,0.792,1.896,1.688,2.312,2.688c1.333,3,2.521,7.438,3.562,13.312c0.666,3.334,1.604,5,2.812,5
		c0.083,0,0.125-0.041,0.125-0.125h0.25l1.438-2.438l1.75-1.812l0.812-1.25c-0.709-0.708-1.062-1.354-1.062-1.938
		c0-0.416,0.083-0.708,0.25-0.875l3.125-5.125l0.75-3.875l2.062-6L42,59.25l0.75-2.188l0.125-4.812l1-1.688l0.438-2.438l1-2.188
		l-0.125-2.562l1-4.625L47.25,32l1.25-1.188l0.938-1.5l-0.562-1.438l0.688-1.5c1.333,0,2.562-0.521,3.688-1.562l2.312,0.5l1,1.812
		L58,28.438c0.416,0.334,0.75,1.938,1,4.812l0.125,1.562l-1.625,0.75c0,1.375,0.177,2.281,0.531,2.719
		c0.354,0.438,1.072,0.656,2.156,0.656l0.875,4.938l0.375,1.188L63.375,49l0.125,1.562v0.5l-0.938,0.75L64,53.5
		c-0.292,0.75-0.854,1.167-1.688,1.25c0.375,0.834,0.708,1.354,1,1.562c0.291,0.209,0.812,0.375,1.562,0.5
		c1,2.084,1.562,4.646,1.688,7.688h-0.875l0.625,1.312l1.125,1.5l0.375,4.75l1.812,5.75l1,4c0.541,0.75,1.271,1.209,2.188,1.375
		l0.375,1.562l0.562-1.688l2.562-6.125l0.125-1.188l1.75-2.812l1.188-1.875l-1.188-1.438l0.375-1l1.188-0.938l2.688-11l1.125-1.75
		l1.062-6.562l1.375-5.5L86.25,42c0.666-0.25,1.146-0.896,1.438-1.938l0.5-1.312l-1.125-1.5l1.125-3.875L88.562,31l-0.125-2.562
		l1.438-1.312l1.875-2.438l5-2.438l0.812-1.375h0.625c0.375,0,0.656,0.073,0.844,0.219C99.219,21.24,99.312,21.459,99.312,21.75z"/>
	<path d="M160.562,94.062c0,0.542-0.104,1.021-0.312,1.438L159,97.688l-2.938,5.062l-2.688,0.188l-1.688,1.375
		c-0.375,0.375-1.021,0.625-1.938,0.75l-11.25,2.188l-1.75,0.625l-4-0.375L127,108l-6.5-0.375h-1.812
		c-0.917-0.709-1.479-1.125-1.688-1.25l-6.125-2.188l-2.062-1.938l-4.062-2.812l-3.25-4.312l-1.25-1.062
		c0.5-1,0.75-1.896,0.75-2.688c0-0.333-0.084-0.583-0.25-0.75l-1.688-2.688l-0.375-3.562L98.562,81.5
		c0-0.958,0.229-2.229,0.688-3.812c0.708-2.5,1.291-4,1.75-4.5l2.312-2.938l1.188-2.688l2.938-2.812l3.188-4.188L113.438,59
		l4.062-2.812l2.688-1.812l0.938-0.625L123,53.375l5.688-1.812l4.438-0.5l2.688-1.125l1.312-0.125c2.125,0,3.916,1.146,5.375,3.438
		c0.791-0.083,1.375-0.521,1.75-1.312l1.688,1.438l2.312,1.25l5.25,5.125c0.666,0.834,1.177,1.553,1.531,2.156
		c0.354,0.604,0.708,1.24,1.062,1.906c0.354,0.667,0.666,1.396,0.938,2.188c0.271,0.792,0.677,2,1.219,3.625l0.5,1.562l-0.625,0.25
		l-2.438-0.5L153,71.812l-2.062-0.375l-2.312,0.625l-4.375-0.5l-4.188,0.25l-4.375-0.75l-7.125,0.125l-3.5-0.125l-8.438,1.125
		l-3.062-0.125l-4.25,1.25l-1.5,0.312l-0.25,1.5c-0.084,1.042-0.229,1.75-0.438,2.125c-0.209,0.375-0.667,0.812-1.375,1.312
		l0.125,1.188c1.375,1.042,2.104,1.688,2.188,1.938l1.625,6.375l0.812,1.562c-0.417,0.417-0.625,0.792-0.625,1.125
		c0.041,0.084,0.083,0.167,0.125,0.25l2.375,0.75l0.562,1.562c0.416,1.459,0.958,2.354,1.625,2.688l3.375,1.375l1.125,2.438
		c0.583,0.292,1.521,0.521,2.812,0.688l0.875,1.625l1.938,0.25l5.375,1.938l4.5-0.875l11.875-1.938L149,99.938l4-2.438l3.312-4.312
		c0.583-0.708,1.271-1.062,2.062-1.062C159.833,92.125,160.562,92.771,160.562,94.062z M145.812,64.625
		c0-0.666-0.771-2.062-2.312-4.188l-4.312-3.125l-1.438-1.5l-2.062-0.125l-4.75-0.375l-1.125,0.25l-2.688,1.5l-3.438,0.812
		l-4.375,1.625l-1.688,0.625l-2,3c-1.25,0.875-1.938,1.417-2.062,1.625l-0.25,0.75L121,66.062l0.875-0.125l1.438-0.438l1.375,0.312
		l3.688,0.75h0.188l4.188-0.75l1.312-0.312l1,1.438h1.438l5.5-1.125l2.25,0.25C145.291,65.938,145.812,65.459,145.812,64.625z"/>
	<path d="M269.812,100.062l-0.75,1.188l-1.438,0.875l-1.25,1.312l0.625,1.375c-1.042,1.125-1.854,1.688-2.438,1.688L262,106.75
		l-1.75,1.125l-1.438,0.438h-0.125l-3.312-0.562l-8.625,0.375l-8.062-0.75l-6.25,0.375c-1.417,0-2.438-0.25-3.062-0.75l-1.688-0.875
		l-1.375-0.25v1.375c-1.292,0.416-2.354,0.625-3.188,0.625c-1.292,0-2.959-0.209-5-0.625l0.25,0.5l-1.938-0.25
		c-0.334-0.042-0.625-0.104-0.875-0.188c-0.25-0.084-0.562-0.312-0.938-0.688l-1.25,0.125l0.125,0.375l-1.688,0.375l-8.188,0.938
		l-1.375,0.25c-1.042,0-1.562-0.396-1.562-1.188v-1.125l2.438-0.938v-0.875l0.875-0.625c0.125-1.583,0.312-2.656,0.562-3.219
		s0.791-1.197,1.625-1.906l-0.5-1.812l0.25-6.375l-0.25-1.688l1.312-2l-1.438-1.062l0.875-2.062l0.438-1.875l0.75-1.562
		l-0.938-1.812L207,77.188l-0.312-1.062l0.188-1.75l-0.312-1.938l0.438-4.75v-2.812l1.125-2.438l0.375-1.375l-1.5-0.625
		l-0.438-6.938c0.666-0.166,1.146-0.541,1.438-1.125l-0.625-3.25l-1.312-0.25c-0.584-2.625-0.875-5.729-0.875-9.312
		c0-1.458,0.208-2.791,0.625-4l-0.625-1.375l-0.375-3.625l-0.812-1.5h-0.75l-1-1.688l1.25-1.125l1.562-0.625l1.812-1.562
		l3.562-1.125l1-0.688l1.312-0.375l1.375,0.5h0.812v0.812l0.375,0.375l-0.125,4.562l0.125,2.188c0,0.75-0.084,1.261-0.25,1.531
		c-0.167,0.271-0.479,0.573-0.938,0.906l-0.375,1.312l0.375,0.375l0.938-0.125v0.75l-0.438,0.375L215.438,38v0.125l-0.375,4
		l0.375,3.562V47l-0.5,4.938H214c-0.417,1.042-0.625,1.729-0.625,2.062c0,1.25,0.562,2.062,1.688,2.438l-0.125,1.438l0.125,9.812
		c0,2.834-0.312,5.188-0.938,7.062l-0.5-0.375c-0.417,0.542-0.625,0.959-0.625,1.25c0-0.041,0.083,0.312,0.25,1.062l1.375,0.375
		l0.312,2.062V81l-0.188,0.25l-0.25,6.188l-0.125,1.875c-0.667,0.584-1,1.062-1,1.438c0,0.292,0.333,0.709,1,1.25l0.125,3.625
		l-0.375,3.688c0,1.125,0.406,1.938,1.219,2.438s2.072,0.75,3.781,0.75c0.833,0,2.208-0.125,4.125-0.375l0.375,0.5l1.5,0.125
		l2.062,0.938l1.312,0.125c0.583-0.083,1.083-0.521,1.5-1.312l7.812,0.438l4.875-0.188l5.25-0.625l0.875,0.125v1.312
		c1.458,0.5,2.438,0.75,2.938,0.75c0.416,0,1.062-0.125,1.938-0.375c0-0.583,0.114-1.01,0.344-1.281
		c0.229-0.271,0.677-0.572,1.344-0.906l1,0.125c0.875,0,2.104-0.333,3.688-1c0.416,0.459,0.771,0.761,1.062,0.906
		c0.291,0.146,0.625,0.219,1,0.219c1.083-1.541,2.666-2.312,4.75-2.312L269.812,100.062z"/>
	<path d="M332.375,102.625l-0.625,1.188l-1,1.5L328.938,106l-2.562,1.375l-2.438,0.75c-1.542,0.625-2.438,0.938-2.688,0.938
		c-0.292,0-0.573-0.156-0.844-0.469C320.135,108.281,320,108,320,107.75c0-0.417,0.208-1.354,0.625-2.812
		c0.208-0.416,0.375-1.146,0.5-2.188l-1.25,0.812l-5.625,1.875c-1.125,0.542-2.25,0.812-3.375,0.812h-0.125h-2.438l-2.938,1.375
		l-2,0.25l-5.812,1.188l-2.375-0.375l-1.688,0.625l-1.188,0.25l-1.875-0.125l-4.125-0.875l-2.812-0.25
		c-1.917-0.25-3.573-0.906-4.969-1.969c-1.396-1.062-2.428-2.427-3.094-4.094l-1.688-0.625l-0.375-1.562l-0.125-1.125L272.375,96
		l2.312-4.625l0.75-2.062c0.25-0.541,1.021-1.333,2.312-2.375l4.875-4l2.062-0.75l3.438-1.438c0.041,0,0.125,0.011,0.25,0.031
		c0.125,0.021,0.25,0.053,0.375,0.094c0.833-1.791,2.416-2.688,4.75-2.688l0.375-0.375h1.312c0.541-0.666,1.083-1.125,1.625-1.375
		c0.541-0.25,1.562-0.521,3.062-0.812l7.812-1.375L310,74.5l2.938-0.625l5.25-0.562c1.791-0.416,2.688-1.271,2.688-2.562
		c0-0.166-0.042-0.291-0.125-0.375l-0.625-2.812l0.5-4.062c-0.125-0.875-0.438-1.51-0.938-1.906c-0.5-0.396-1.25-0.656-2.25-0.781
		l-0.875-1.438c-0.917-1.5-1.667-2.469-2.25-2.906c-0.584-0.438-1.688-0.822-3.312-1.156l-3.562-0.812L304,54.375l-1.688,0.25
		c-0.375-0.166-0.667-0.375-0.875-0.625c-0.209-0.25-0.375-0.625-0.5-1.125l-1.688,0.75l-1.938,1.812l-6.125,3.062
		c-1.292,0.709-2.146,1.396-2.562,2.062l-0.875,1.25c-0.417,0.667-0.979,1-1.688,1l-1.25-0.25L283,61.688l-1.938-0.375
		c-0.625-0.208-1.25-0.562-1.875-1.062s-0.938-0.958-0.938-1.375c0-0.25,0.041-0.375,0.125-0.375l1.062-0.75l2-1.562l2.188-0.375
		l3.312-1.688l4.125-1.375l1.125-0.25l2.688-1.438l2.188,0.375l7.562-1.625l3.188,0.125h2.438l2.562,0.875l7.438,1.438l1.125,0.625
		v0.875l-0.875,0.5c0.25,1.459,0.771,2.188,1.562,2.188c0.083-0.041,0.146-0.072,0.188-0.094c0.041-0.021,0.104-0.031,0.188-0.031
		l1.75-0.75h0.25c0.416,0,0.688,0.209,0.812,0.625l1.25,2.312l1.312,1v1.438l-0.25,3.188c0,1.375,0.666,2.562,2,3.562l0.812,9.25
		l-1.688,2.312l1.938,2.25l0.125,0.812l-0.375,5.875l0.5,4.5v1v1.438L330,95.375c0.083,1.042,0.146,1.709,0.188,2
		c0.041,0.292,0.188,0.719,0.438,1.281s0.541,1.219,0.875,1.969L332.375,102.625z M322.438,91.75c-0.625-0.541-1.021-1-1.188-1.375
		l0.25-2.562l-0.5-5.75l0.75-1.688l-2-1.125l-1.062,0.25l-5.75-0.375l-2.688,0.125l-2.062-1.438l-1.25,0.75l-3.438,0.125
		l-2.438,0.938l-1.438-0.812l-1.75,1.062l-9.375,4.5l-2.062,1.5l-1.625,2.438l-2.188,1.312c-0.334,0.334-0.5,0.709-0.5,1.125
		c0.041,0.084,0.083,0.167,0.125,0.25l0.5,0.75l-0.125,0.562L284,97.938l-1.375,3.562l1,1.25l1.688-2
		c0.583,0.5,1.125,0.917,1.625,1.25c0.5,0.334,1.104,0.615,1.812,0.844c0.708,0.229,1.604,0.469,2.688,0.719l1.312,1.75l4.312,0.438
		l1.188-1.188l1.25,0.625l0.875-0.5l0.688-0.375c1,0.334,1.583,0.5,1.75,0.5c1.25,0,2.875-0.583,4.875-1.75
		c0.125-0.083,0.291-0.177,0.5-0.281c0.208-0.104,0.521-0.281,0.938-0.531c3.75,0,6.229-0.771,7.438-2.312l1.25-1.625l3.062-2.562
		L321,95l-0.125-0.812c0.625-0.208,1.021-0.458,1.188-0.75C322.229,93.146,322.354,92.584,322.438,91.75z"/>
	<path d="M394.875,88.562c0,1.667-0.303,3.062-0.906,4.188c-0.604,1.125-1.323,1.688-2.156,1.688c-0.167,0-0.584-0.083-1.25-0.25
		l-0.812,1.438l-1.125,3.062l-2.812,3.062l-1.312,1.812l-1.75,0.125l-5.812,2.938L374.25,107l-4.562,1.562l-3.625-0.688l-5.5,1.312
		c-0.375,0-2.417-0.396-6.125-1.188c-1.75-0.375-2.854-0.75-3.312-1.125l-2.438-1.562l-3.062-1.75
		c-1.292-0.833-2.344-1.906-3.156-3.219s-1.219-2.51-1.219-3.594c0-0.666,0.708-1.572,2.125-2.719
		c1.416-1.146,2.979-2.114,4.688-2.906l1.375,1.812l1.188,5.5l2.25,1.375l3.625,2.812l1.75,0.562l3.375,1.625h2.312l1.5,0.25
		l3.062-0.875l5.125-0.5l2.562-1.312l2.438-0.875c1.541-0.916,3.041-2.802,4.5-5.656c1.458-2.854,2.188-5.447,2.188-7.781
		c0-0.875-0.271-1.646-0.812-2.312l-2.438-3.438l-0.625-1.562l-1.5-0.75l-0.812,1l-1.375-0.125l-3.375-0.5h-3.938h-1l-1.688-2.438
		c-0.875,1-1.584,1.636-2.125,1.906c-0.542,0.271-1.584,0.531-3.125,0.781L360.312,81l-1.25-0.625H357.5l-1.625-1.25l-2.062,0.375
		l-1.938-0.938l-2.688-0.875c-1.042-0.333-1.938-1.146-2.688-2.438c-0.75-1.291-1.125-2.604-1.125-3.938
		c0-2.041,0.708-4.208,2.125-6.5c1.416-2.291,3.396-4.396,5.938-6.312c1.958-1.5,4.291-2.979,7-4.438
		c2.708-1.458,5.26-2.583,7.656-3.375c2.396-0.791,4.364-1.188,5.906-1.188c0.458,0,2.041,0.438,4.75,1.312l1.812,0.625
		c2.833-0.5,4.666-0.75,5.5-0.75c1.166,0,2.094,0.188,2.781,0.562s1.031,0.834,1.031,1.375c0,0.542-0.594,1.303-1.781,2.281
		c-1.188,0.979-2.678,1.886-4.469,2.719l-1.938,0.875l-1.625-0.125l-3.125-0.125l-2.375-0.625l-1.062-2.188h-0.875l-1.062,1.125
		h-1.875h-1.812l-2.562,0.375l-1.938-0.5l-1,0.75l-4,2.312c-2.792,2.417-4.188,4.604-4.188,6.562c0,1.375,0.416,2.271,1.25,2.688
		l4.125,1.875l1.25,0.688v1.5l1.938,1.062l2.062-1.938l1,0.125l10.5-0.75l5,1.125l2.312-0.375L386.562,74l4.375,2.438
		c0.875,0.584,1.646,1.896,2.312,3.938l0.5,1.688C394.5,84.688,394.875,86.854,394.875,88.562z"/>
	<path d="M446.625,52.375L446,54.125l-0.125,1.312l-4.5,3.312l-2.688,2.438l-1.562,0.25l-2.312-0.25
		c-1.542-0.166-2.948-0.406-4.219-0.719c-1.271-0.312-1.865-0.469-1.781-0.469h-0.125l-4.188,0.312l-2.438-0.438
		c-0.584,0.084-1.073,0.303-1.469,0.656c-0.396,0.354-0.594,0.74-0.594,1.156c0,0.459,0.25,0.75,0.75,0.875l-0.125,8.062
		c-1.792,0.5-2.688,1.271-2.688,2.312l0.125,1.438l2.562,0.5l0.25,6L421,82.188l-0.625,1.875c-0.5-0.25-0.917-0.375-1.25-0.375
		c-1.042,0-1.562,0.479-1.562,1.438c0,0.417,0.333,1.062,1,1.938c0.583-0.708,0.979-1.062,1.188-1.062
		c0.125,0,0.541,0.312,1.25,0.938l0.125,8.438l0.25,1.25l1.438,2.938c0.083,0.25,0.125,0.979,0.125,2.188
		c1.041,0.625,1.844,1.021,2.406,1.188c0.562,0.167,1.344,0.25,2.344,0.25c1.333,0,2.656-0.229,3.969-0.688
		c1.312-0.458,2.364-1.041,3.156-1.75L441,95.125c0.25-0.291,0.583-0.438,1-0.438c0.5,0,1.229,0.271,2.188,0.812l-0.375,1.375
		c-0.875,3.459-1.604,5.292-2.188,5.5l-14.688,5.375l-2.562,1.312l-1.938-1.188l-1.312-0.25l-0.625,1.688l-1.125,0.125
		c-1.25,0-2.709-0.604-4.375-1.812c-1.75-1.416-2.688-2.479-2.812-3.188l-0.375-1.812l-0.75-2.125l0.125-3.5v-3.938l1.25-4.125
		l-0.375-1.5l-0.25-2.188v-1.438l0.25-6l-0.125-1.688L411.688,74c0-0.166,0.041-0.25,0.125-0.25l1.625-1.938
		c0.208-0.291,0.312-0.541,0.312-0.75c0-0.958-0.729-1.438-2.188-1.438l-0.5-0.75c0.416-3.041,0.625-6.083,0.625-9.125
		c-2-0.416-3.5-0.625-4.5-0.625c-2.584,0-5.188,0.438-7.812,1.312c-0.334-0.291-0.5-0.604-0.5-0.938c0-0.708,0.166-1.166,0.5-1.375
		l2.438-2.062l0.375-1.438c0.125-0.333,0.333-0.604,0.625-0.812c0.291-0.208,0.521-0.312,0.688-0.312l7.25-0.25l1.688-0.25
		l-0.125-1.438l-0.375-13.312l-1.562-3.562L410,32.75c1.25-1.75,2.5-3,3.75-3.75s2.854-1.291,4.812-1.625
		c0.833-1.291,1.562-1.938,2.188-1.938c1.125,0,1.688,1.896,1.688,5.688c0,5.75-0.521,9.834-1.562,12.25
		c-0.584,1.709-1.167,2.562-1.75,2.562v2.938c0.625,0,1.041,0.053,1.25,0.156c0.208,0.104,0.458,0.365,0.75,0.781l-0.375,1.75
		L421,53l1.312,0.125l6.25,1.375c0.5,0.167,1.188,0.25,2.062,0.25c0.916,0,1.562-0.083,1.938-0.25L435,53.75l4.688-0.5l3.625-1.312
		h1.25h0.5h1.438C446.583,52.271,446.625,52.417,446.625,52.375z"/>
	<path d="M471.438,101.5l-1.812,3.438l-1,0.812c-0.5,0.375-0.938,0.709-1.312,1s-0.678,0.583-0.906,0.875
		c-0.229,0.291-0.428,0.646-0.594,1.062c-1.084,0-1.854-0.229-2.312-0.688l-6.125-5.875l-1.438-0.25l-1.375-0.5l0.625-1.125
		l1.375-1.188l3.062-2.188l1.562-1.75l1.25-0.812c2.166,1.5,3.625,2.438,4.375,2.812l1.812,0.812
		C469.791,98.396,470.729,99.584,471.438,101.5z"/>
	<path d="M507.125,101.5l-1.812,3.438l-1,0.812c-0.5,0.375-0.938,0.709-1.312,1s-0.678,0.583-0.906,0.875
		c-0.229,0.291-0.428,0.646-0.594,1.062c-1.084,0-1.854-0.229-2.312-0.688l-6.125-5.875l-1.438-0.25l-1.375-0.5l0.625-1.125
		l1.375-1.188l3.062-2.188l1.562-1.75l1.25-0.812c2.166,1.5,3.625,2.438,4.375,2.812l1.812,0.812
		C505.479,98.396,506.416,99.584,507.125,101.5z"/>
	<path d="M542.812,101.5L541,104.938l-1,0.812c-0.5,0.375-0.938,0.709-1.312,1s-0.678,0.583-0.906,0.875
		c-0.229,0.291-0.428,0.646-0.594,1.062c-1.084,0-1.854-0.229-2.312-0.688l-6.125-5.875l-1.438-0.25l-1.375-0.5l0.625-1.125
		l1.375-1.188L531,96.875l1.562-1.75l1.25-0.812c2.166,1.5,3.625,2.438,4.375,2.812L540,97.938
		C541.166,98.396,542.104,99.584,542.812,101.5z"/>
</g>
</svg>
