<?xml version="1.0" encoding="utf-8"?>
<!-- Generator: Adobe Illustrator 15.0.0, SVG Export Plug-In . SVG Version: 6.00 Build 0)  -->
<!DOCTYPE svg PUBLIC "-//W3C//DTD SVG 1.1//EN" "http://www.w3.org/Graphics/SVG/1.1/DTD/svg11.dtd">
<svg version="1.1" id="Layer_1" xmlns="http://www.w3.org/2000/svg" xmlns:xlink="http://www.w3.org/1999/xlink" x="0px" y="0px"
	 width="1152.938px" height="197.498px" viewBox="0 0 1152.938 197.498" enable-background="new 0 0 1152.938 197.498"
	 xml:space="preserve">
<g>
	<path d="M100.312,35.186c0,0.667-0.292,1.521-0.875,2.562l-0.75,3.812l-0.438,2.688l-1.875,6.688l-0.625,1.688l-1.438-0.25l-1,0.25
		l-0.25,1.5l1.75,0.625c-0.084,1.125-0.198,1.865-0.344,2.219c-0.146,0.354-0.531,0.781-1.156,1.281c0,2.5-0.604,4.5-1.812,6
		l-1.938,2.812l0.125,1.938l-0.5,2.062l-0.375,2l-1.438,3.062v1.688c0,0.584-0.417,1.875-1.25,3.875l-0.75,1.875l-0.812-0.25
		c-0.25,0.709-0.667,1.229-1.25,1.562l0.25,2l0.75,0.312l-0.375,1.75L82,93.811l-1.5,2.812l-0.125,2.938l-0.25,1.688L81,103.561
		l-0.75,1.25l-1.812,2.562l-0.25,2.562l-0.5,1.562l-0.25,1.75l-1.562,2.312l-0.625,2.938c-0.25,1.084-0.709,1.958-1.375,2.625
		c-0.667,0.666-1.417,1-2.25,1l-1.5-0.562c-0.125-0.959-0.25-1.5-0.375-1.625l-1.312-2.312l-1-5.625l-0.875-2.812l-0.938-0.125
		l0.125-2.938l1.312-0.375c-0.334-0.791-0.688-1.364-1.062-1.719c-0.375-0.354-1-0.635-1.875-0.844l0.25-3l-0.25-1.75
		c0.458-0.166,0.833-0.479,1.125-0.938l-0.625-0.75l-0.375-0.125l-0.5-1.25l-1.688-6.812L60,84.998l-1.375-6.938l-2.062-4.188
		l-0.938-1.312c0.5-0.041,0.885-0.166,1.156-0.375c0.271-0.208,0.531-0.583,0.781-1.125c-0.5-0.541-0.959-0.812-1.375-0.812
		c-0.25,0-0.469,0.011-0.656,0.031c-0.188,0.021-0.406,0.053-0.656,0.094l-0.25-0.875l0.125-3.312l-0.875-2.312l-0.125-1.188
		c-0.334-0.583-0.771-0.875-1.312-0.875c-0.334,0-0.584,0.167-0.75,0.5l-2.438,8.875L48,72.436l-1.312,2.062l-1.25,3.188
		l0.125,3.188c-0.084,1.417-0.854,2.479-2.312,3.188l-0.125,1.438l-0.75,1.562v3.562l-0.938,1.25l-0.5,1.438l0.375,0.375
		l-0.375,1.438l-2.312,7.375l-0.75,3.375l-0.5,1.625c-0.167,0.667-0.25,1.188-0.25,1.562c0,0.584,0.25,1.354,0.75,2.312
		c-0.709,0.25-1.188,0.5-1.438,0.75s-0.459,0.667-0.625,1.25l0.375,0.438l-0.75,2l-0.625,4.125c0,0.209-0.396,0.625-1.188,1.25
		l-1,0.812l-0.125-0.562c-0.834-0.625-1.428-1.25-1.781-1.875c-0.354-0.625-0.781-1.791-1.281-3.5L28,111.498l-1.5-6.938
		c-0.584-1.541-1.229-2.896-1.938-4.062l0.625-1.312l1.312-2.312c0-0.291-0.396-0.75-1.188-1.375l-0.25,0.625l-2.188-0.25
		l-0.5-1.688l-0.5-3.938l-0.5-1.188l1-3.188l-0.375-1l-2.062-0.125L17.5,78.811l0.5-1.125l-0.125-0.875l-0.125-1.438L16,75.623
		l-0.562-1.875l-1.25-2.062L12,66.061l-1.375-1.438l-1.312-4.625l-0.75-1.125l0.5-1.812c0-0.583-0.167-1.041-0.5-1.375L6.75,53.998
		l-1.938-6.75l-2.938-4.25c0-0.083-0.011-0.156-0.031-0.219c-0.021-0.062-0.053-0.114-0.094-0.156c0-0.5,0.688-1.521,2.062-3.062
		l1.438,0.125l0.625-0.938l1.375-0.875l2.188-1.125l1.688-1.188c1.25,0.834,1.979,1.812,2.188,2.938l1.875,7.688l0.562,1.562
		c-1,0.584-1.812,0.875-2.438,0.875l-1.188-0.125c0.25,1.625,1.271,2.438,3.062,2.438l1.312-0.125l0.5,1.938l0.875,2.688
		l1.062,1.625l0.25,1.562c0.916,1.125,1.375,2.021,1.375,2.688c0,0.542-0.542,1-1.625,1.375c0.416,0.792,0.625,1.438,0.625,1.938
		c0,0.584-0.209,1.188-0.625,1.812l1.25,1l1.812,0.5l0.125,2.062l2.062,2.188l0.625,2.188l0.625,2.062l-0.75,0.75
		c1.125,0.792,1.896,1.688,2.312,2.688c1.333,3,2.521,7.438,3.562,13.312c0.666,3.334,1.604,5,2.812,5
		c0.083,0,0.125-0.041,0.125-0.125h0.25l1.438-2.438l1.75-1.812l0.812-1.25c-0.709-0.708-1.062-1.354-1.062-1.938
		c0-0.416,0.083-0.708,0.25-0.875l3.125-5.125l0.75-3.875l2.062-6L43,72.686l0.75-2.188l0.125-4.812l1-1.688l0.438-2.438l1-2.188
		l-0.125-2.562l1-4.625l1.062-6.75l1.25-1.188l0.938-1.5l-0.562-1.438l0.688-1.5c1.333,0,2.562-0.521,3.688-1.562l2.312,0.5l1,1.812
		L59,41.873c0.416,0.334,0.75,1.938,1,4.812l0.125,1.562l-1.625,0.75c0,1.375,0.177,2.281,0.531,2.719
		c0.354,0.438,1.072,0.656,2.156,0.656l0.875,4.938l0.375,1.188l1.938,3.938l0.125,1.562v0.5l-0.938,0.75L65,66.936
		c-0.292,0.75-0.854,1.167-1.688,1.25c0.375,0.834,0.708,1.354,1,1.562c0.291,0.209,0.812,0.375,1.562,0.5
		c1,2.084,1.562,4.646,1.688,7.688h-0.875l0.625,1.312l1.125,1.5l0.375,4.75l1.812,5.75l1,4c0.541,0.75,1.271,1.209,2.188,1.375
		l0.375,1.562l0.562-1.688l2.562-6.125l0.125-1.188l1.75-2.812l1.188-1.875l-1.188-1.438l0.375-1l1.188-0.938l2.688-11l1.125-1.75
		l1.062-6.562l1.375-5.5l0.25-0.875c0.666-0.25,1.146-0.896,1.438-1.938l0.5-1.312l-1.125-1.5l1.125-3.875l0.375-2.375l-0.125-2.562
		l1.438-1.312l1.875-2.438l5-2.438l0.812-1.375h0.625c0.375,0,0.656,0.073,0.844,0.219
		C100.219,34.676,100.312,34.895,100.312,35.186z"/>
	<path d="M166.25,78.061l-0.125,4.125c-0.042,1.625-0.136,2.646-0.281,3.062c-0.146,0.417-0.636,1.062-1.469,1.938l1,2.375
		l-1.688,2.562l1.812,1.812v10.375l-1.125,1.25l0.25,1.938l0.75,4.625l-0.125,4.062v1.438c0,1.167-0.812,1.812-2.438,1.938
		l-1.688,0.125l-3.812,2.062l-1.25,0.75l-2.562-2.188l0.375-1.688l2.312-6.875l-0.938-5.125l1.438-5.625
		c0.25-1.208,0.375-2.833,0.375-4.875c-1.042-0.458-1.562-1.104-1.562-1.938c0-1.041,0.271-2.354,0.812-3.938
		c0.333-1.041,0.5-2.166,0.5-3.375v-0.5l-0.5-4.688l0.625-2.438l-0.625-1.188l-0.938-2.062c-0.292-0.708-0.667-1.125-1.125-1.25
		l-2.312-0.75l-3.438-1.938l-2.312,0.125l-3.875-0.5l-5.125,0.125l-2.688,0.125c-1.292,0.25-2.479,0.625-3.562,1.125l-3.312,1.938
		l-2.688,1l-1.562,1.438l-2,2.312l-1.312,1.625l0.875,3.875l-0.75,9.562l0.125,0.688l-0.875-0.25l-0.375,0.5h-0.812l0.25,1.25
		l1.812,2.438c0.083,0,0.125,0.042,0.125,0.125l0.5,5.375l0.25,2.938l0.312,1.938v0.75l-0.562,1.188l0.25,5.75l-0.875,1.688
		l-0.625-0.125l-0.625,0.125l-1.188,0.625c-0.25,0.084-0.792,0.125-1.625,0.125l-1.188,1c-1.375,1.208-2.438,1.896-3.188,2.062
		l-0.625-1.438l-0.375-0.25l0.125-2.438l0.75-2.812v-2.562l1.375-2.25l0.312-1.438c-0.959-1.291-1.438-2.229-1.438-2.812
		l0.75-18.562l-0.25-5.75l2.562-4.5l-0.25-1.375l-0.875,0.875c-0.625-0.625-1.021-1.166-1.188-1.625
		c-0.167-0.458-0.25-1.188-0.25-2.188V59.498l0.375-2.312h0.812l1.25-1.25c-0.667-0.375-1-1.104-1-2.188
		c-1.084-0.583-1.688-1.146-1.812-1.688v-4.812l-0.5-7.312l0.75-1.938l0.25-1.25l-1.375-1.812l0.125-1.438l0.25-1.625l0.5-1.438
		l0.375-1.375c-1.084-1.458-1.625-2.354-1.625-2.688L111,14.311l-1.438-5.875v-1.25l-1.5-1.188c0.208-0.75,0.75-1.396,1.625-1.938
		l5-2.562c1.958-1,3.375-1.5,4.25-1.5c1.291,0,2,0.334,2.125,1l-0.5,4.375l-0.125,8.062c0,1.25-0.375,2.104-1.125,2.562l-1.438,0.75
		C117.291,17.04,117,17.603,117,18.436c0,0.209,0.083,0.938,0.25,2.188l0.75,0.125c0.75-0.75,1.604-1.188,2.562-1.312v1.188
		l-0.625,11.625l0.125,3.688l-1.562,3.125v1.375c1.375,1.584,2.062,2.729,2.062,3.438v0.375l-0.875,1.562v0.125l0.625,5.25
		l0.25,0.75l-0.125,0.812l-0.625,1.875l0.625,2.688l-0.25,2.312l0.375,1.562l-0.75,10.375l0.125,0.875l0.625,0.375l9.5-7.125l1,0.5
		l4-1.562l2.438-0.5l2.938-0.375c1.166,0.125,1.896,0.979,2.188,2.562h1.5l1.312-0.938l1.375-1.375l2.812,0.375l7.312,0.5l3.562,3.5
		l2.062,1.25l1,1.688l-1.5,0.875c0.708,0.417,1.208,0.625,1.5,0.625l0.938-0.25C165.666,73.978,166.25,75.811,166.25,78.061z"/>
	<path d="M236.5,116.061l-0.625,1.188l-1,1.5l-1.812,0.688l-2.562,1.375l-2.438,0.75c-1.542,0.625-2.438,0.938-2.688,0.938
		c-0.292,0-0.573-0.156-0.844-0.469c-0.271-0.312-0.406-0.594-0.406-0.844c0-0.417,0.208-1.354,0.625-2.812
		c0.208-0.416,0.375-1.146,0.5-2.188l-1.25,0.812l-5.625,1.875c-1.125,0.542-2.25,0.812-3.375,0.812h-0.125h-2.438l-2.938,1.375
		l-2,0.25l-5.812,1.188l-2.375-0.375l-1.688,0.625l-1.188,0.25l-1.875-0.125l-4.125-0.875l-2.812-0.25
		c-1.917-0.25-3.573-0.906-4.969-1.969c-1.396-1.062-2.428-2.427-3.094-4.094l-1.688-0.625l-0.375-1.562l-0.125-1.125l-0.875-2.938
		l2.312-4.625l0.75-2.062c0.25-0.541,1.021-1.333,2.312-2.375l4.875-4l2.062-0.75l3.438-1.438c0.041,0,0.125,0.011,0.25,0.031
		c0.125,0.021,0.25,0.053,0.375,0.094c0.833-1.791,2.416-2.688,4.75-2.688L198,91.248h1.312c0.541-0.666,1.083-1.125,1.625-1.375
		c0.541-0.25,1.562-0.521,3.062-0.812l7.812-1.375l2.312,0.25l2.938-0.625l5.25-0.562c1.791-0.416,2.688-1.271,2.688-2.562
		c0-0.166-0.042-0.291-0.125-0.375l-0.625-2.812l0.5-4.062c-0.125-0.875-0.438-1.51-0.938-1.906c-0.5-0.396-1.25-0.656-2.25-0.781
		l-0.875-1.438c-0.917-1.5-1.667-2.469-2.25-2.906c-0.584-0.438-1.688-0.822-3.312-1.156l-3.562-0.812l-3.438-0.125l-1.688,0.25
		c-0.375-0.166-0.667-0.375-0.875-0.625c-0.209-0.25-0.375-0.625-0.5-1.125l-1.688,0.75l-1.938,1.812l-6.125,3.062
		c-1.292,0.709-2.146,1.396-2.562,2.062l-0.875,1.25c-0.417,0.667-0.979,1-1.688,1l-1.25-0.25l-1.812-0.875l-1.938-0.375
		c-0.625-0.208-1.25-0.562-1.875-1.062s-0.938-0.958-0.938-1.375c0-0.25,0.041-0.375,0.125-0.375l1.062-0.75l2-1.562l2.188-0.375
		l3.312-1.688l4.125-1.375l1.125-0.25L199,64.498l2.188,0.375l7.562-1.625l3.188,0.125h2.438l2.562,0.875l7.438,1.438l1.125,0.625
		v0.875l-0.875,0.5c0.25,1.459,0.771,2.188,1.562,2.188c0.083-0.041,0.146-0.072,0.188-0.094c0.041-0.021,0.104-0.031,0.188-0.031
		l1.75-0.75h0.25c0.416,0,0.688,0.209,0.812,0.625l1.25,2.312l1.312,1v1.438l-0.25,3.188c0,1.375,0.666,2.562,2,3.562l0.812,9.25
		l-1.688,2.312l1.938,2.25l0.125,0.812l-0.375,5.875l0.5,4.5v1v1.438l-0.875,0.25c0.083,1.042,0.146,1.709,0.188,2
		c0.041,0.292,0.188,0.719,0.438,1.281s0.541,1.219,0.875,1.969L236.5,116.061z M226.562,105.186c-0.625-0.541-1.021-1-1.188-1.375
		l0.25-2.562l-0.5-5.75l0.75-1.688l-2-1.125l-1.062,0.25l-5.75-0.375l-2.688,0.125l-2.062-1.438l-1.25,0.75l-3.438,0.125
		l-2.438,0.938l-1.438-0.812L202,93.311l-9.375,4.5l-2.062,1.5l-1.625,2.438l-2.188,1.312c-0.334,0.334-0.5,0.709-0.5,1.125
		c0.041,0.084,0.083,0.167,0.125,0.25l0.5,0.75l-0.125,0.562l1.375,5.625l-1.375,3.562l1,1.25l1.688-2
		c0.583,0.5,1.125,0.917,1.625,1.25c0.5,0.334,1.104,0.615,1.812,0.844c0.708,0.229,1.604,0.469,2.688,0.719l1.312,1.75l4.312,0.438
		l1.188-1.188l1.25,0.625l0.875-0.5l0.688-0.375c1,0.334,1.583,0.5,1.75,0.5c1.25,0,2.875-0.583,4.875-1.75
		c0.125-0.083,0.291-0.177,0.5-0.281c0.208-0.104,0.521-0.281,0.938-0.531c3.75,0,6.229-0.771,7.438-2.312l1.25-1.625l3.062-2.562
		l0.125-0.75L225,107.623c0.625-0.208,1.021-0.458,1.188-0.75C226.354,106.582,226.479,106.02,226.562,105.186z"/>
	<path d="M290.312,65.811l-0.625,1.75l-0.125,1.312l-4.5,3.312l-2.688,2.438l-1.562,0.25l-2.312-0.25
		c-1.542-0.166-2.948-0.406-4.219-0.719c-1.271-0.312-1.865-0.469-1.781-0.469h-0.125l-4.188,0.312l-2.438-0.438
		c-0.584,0.084-1.073,0.303-1.469,0.656c-0.396,0.354-0.594,0.74-0.594,1.156c0,0.459,0.25,0.75,0.75,0.875l-0.125,8.062
		c-1.792,0.5-2.688,1.271-2.688,2.312l0.125,1.438l2.562,0.5l0.25,6l0.125,1.312l-0.625,1.875c-0.5-0.25-0.917-0.375-1.25-0.375
		c-1.042,0-1.562,0.479-1.562,1.438c0,0.417,0.333,1.062,1,1.938c0.583-0.708,0.979-1.062,1.188-1.062
		c0.125,0,0.541,0.312,1.25,0.938l0.125,8.438l0.25,1.25l1.438,2.938c0.083,0.25,0.125,0.979,0.125,2.188
		c1.041,0.625,1.844,1.021,2.406,1.188c0.562,0.167,1.344,0.25,2.344,0.25c1.333,0,2.656-0.229,3.969-0.688
		c1.312-0.458,2.364-1.041,3.156-1.75l6.188-5.625c0.25-0.291,0.583-0.438,1-0.438c0.5,0,1.229,0.271,2.188,0.812l-0.375,1.375
		c-0.875,3.459-1.604,5.292-2.188,5.5l-14.688,5.375l-2.562,1.312l-1.938-1.188l-1.312-0.25l-0.625,1.688l-1.125,0.125
		c-1.25,0-2.709-0.604-4.375-1.812c-1.75-1.416-2.688-2.479-2.812-3.188l-0.375-1.812l-0.75-2.125l0.125-3.5v-3.938l1.25-4.125
		l-0.375-1.5l-0.25-2.188v-1.438l0.25-6l-0.125-1.688l-0.25-2.125c0-0.166,0.041-0.25,0.125-0.25l1.625-1.938
		c0.208-0.291,0.312-0.541,0.312-0.75c0-0.958-0.729-1.438-2.188-1.438l-0.5-0.75c0.416-3.041,0.625-6.083,0.625-9.125
		c-2-0.416-3.5-0.625-4.5-0.625c-2.584,0-5.188,0.438-7.812,1.312c-0.334-0.291-0.5-0.604-0.5-0.938c0-0.708,0.166-1.166,0.5-1.375
		l2.438-2.062l0.375-1.438c0.125-0.333,0.333-0.604,0.625-0.812c0.291-0.208,0.521-0.312,0.688-0.312l7.25-0.25l1.688-0.25
		L256,64.998l-0.375-13.312l-1.562-3.562l-0.375-1.938c1.25-1.75,2.5-3,3.75-3.75s2.854-1.291,4.812-1.625
		c0.833-1.291,1.562-1.938,2.188-1.938c1.125,0,1.688,1.896,1.688,5.688c0,5.75-0.521,9.834-1.562,12.25
		c-0.584,1.709-1.167,2.562-1.75,2.562v2.938c0.625,0,1.041,0.053,1.25,0.156c0.208,0.104,0.458,0.365,0.75,0.781l-0.375,1.75
		l0.25,1.438L266,66.561l6.25,1.375c0.5,0.167,1.188,0.25,2.062,0.25c0.916,0,1.562-0.083,1.938-0.25l2.438-0.75l4.688-0.5
		L287,65.373h1.25h0.5h1.438C290.271,65.707,290.312,65.853,290.312,65.811z"/>
	<path d="M388.875,117.998l-0.125,1.312l-1.312,0.375l-4.25,0.75l-4.562,0.375c-0.209-1.666-0.428-2.739-0.656-3.219
		c-0.229-0.479-0.573-0.844-1.031-1.094c-0.459,0.375-0.875,0.646-1.25,0.812c-0.375,0.167-0.865,0.365-1.469,0.594
		c-0.604,0.229-1.156,0.469-1.656,0.719c-4.792,2.5-13.521,3.75-26.188,3.75c-2.417,0-4.198-0.229-5.344-0.688
		c-1.146-0.459-1.969-1.25-2.469-2.375c-0.709,0.084-1.312,0.417-1.812,1l-1.938-0.625c-0.125-0.833-0.303-1.416-0.531-1.75
		c-0.229-0.333-0.719-0.646-1.469-0.938l-0.812,0.75c-1.334-0.333-2.354-0.771-3.062-1.312c-0.709-0.541-1.854-1.688-3.438-3.438
		c0.166-0.416,0.25-0.916,0.25-1.5c0-1.041-0.438-1.896-1.312-2.562l-1.75-1.688l-0.25-1.25l-1.062-4.75v-1.062
		c0-1.416,0.271-2.938,0.812-4.562l-0.125-1.312l0.75-1.5l3.938-9.125c0.583-1.333,1.396-2,2.438-2h0.125l2.062,0.125l0.75-5.25
		l2.438-1.938l2.562-2.938l1.812-1.188l1.125-1c0.458-0.25,0.896-0.416,1.312-0.5c0.416,0.084,0.875,0.125,1.375,0.125
		c0.791,0.042,1.322,0.136,1.594,0.281c0.271,0.146,0.594,0.511,0.969,1.094c0.666-1,1.729-1.708,3.188-2.125l-0.125-1.938
		l1.812-0.75c1.666-0.5,2.697-0.822,3.094-0.969c0.396-0.146,0.947-0.302,1.656-0.469l2.188,0.125l2.938-1l1.375,0.875
		c0.666,0.334,1.104,0.542,1.312,0.625l0.25,0.625c0.458,0.375,0.75,0.562,0.875,0.562c0.375,0,0.854-0.604,1.438-1.812l3.312,0.75
		c2.416,0.542,3.947,0.959,4.594,1.25c0.646,0.292,1.239,0.812,1.781,1.562l3.75-0.125l-0.5-1.25l-0.688-1.062l-0.375-4.438
		l-0.375-1.312l0.5-3.188l-0.5-8.688l0.125-0.938l2.062-0.75l-0.875-1.25l-0.312-1.688l-0.875-2.812
		c-0.334-0.791-0.5-1.812-0.5-3.062v-0.75l0.625-8.875l-0.5-3.938l0.375-1.688c0.75-0.166,1.188-0.583,1.312-1.25l-0.812-0.812
		c-0.917-0.083-1.729-0.375-2.438-0.875v-0.75v-0.812l-0.5-3.812l-0.25-4.25c0-0.75-0.459-1.458-1.375-2.125
		c0.375-1.5,1.041-2.354,2-2.562l3.875-0.812l2.562-1.625l2.812-0.625l1.375-0.438c0.875,1,1.312,2.084,1.312,3.25l-0.125,1.5
		l-0.625,3.312l0.125,1.812l-0.312,5.5v4.625l-0.75,2.688l0.125,5.75c-0.209,0.667-0.709,1.521-1.5,2.562l1.875,5.25l-0.375,1.375v3
		l-0.5,1.25l0.5,4.25c0,0.584-0.167,1.354-0.5,2.312h-1.375c-0.375,1.292-0.562,2.229-0.562,2.812c0,0.25,0.041,0.417,0.125,0.5
		l2.188,3.062l-0.125,4.5l0.375,5.25l-0.25,2.125L385,68.873l0.125,1.25l-0.875,1.062l0.375,5.875l-0.125,4.188l0.5,4v2.688
		l0.375,3.062v4.875l0.938,4.875l0.125,3.938l0.75,2.812l0.125,2.562v1.938c0.458,0.375,0.833,1.209,1.125,2.5
		C388.729,115.79,388.875,116.957,388.875,117.998z M378.75,92.248l-0.625-3.938c-1.042-0.375-1.562-0.896-1.562-1.562v-0.25
		l0.5-2.688l-0.375-4.875v-1.25l-0.625-1.438l0.125-1.5c0-0.583-0.25-0.875-0.75-0.875c-0.25,0-0.396-0.104-0.438-0.312
		l-2.562,0.562l-0.625,0.125l-0.875-0.125l-11.625-2.812l-4.25-0.125h-1.312c-0.417,0-0.667,0.042-0.75,0.125l-2.188,0.875H348
		l-3.688,2.438l-2.562,0.375l-1.812,1.25l-2.562,2.312c-0.959,1-1.542,1.896-1.75,2.688l-0.25,1.562l-2.438,2.562l-2.562,3.812
		c-0.709,1.459-1.062,2.625-1.062,3.5c0,0.917,0.166,1.729,0.5,2.438l0.438,1.125l1.375,5.125l1.438,2.562l0.125,1.375v0.812
		l1.5,0.625c1.125,1.5,2.375,2.886,3.75,4.156c1.375,1.271,2.729,2.24,4.062,2.906l2.812,1.25l0.938,0.5l1.875,0.25h1.562
		l3.562,1.312h0.938h3.062l6.25-0.25c1.166-0.041,2.729-0.364,4.688-0.969c1.958-0.604,3.416-1.135,4.375-1.594l2.875-2.438
		l1.375-1.688l-0.625-1.625l0.375-1.688l0.125-1.812l-0.125-2.562l-0.25-2.812l0.125-0.375l0.125-2.062l-0.5-2.812
		c-0.042-0.083-0.084-0.166-0.125-0.25C375.938,93.228,376.875,92.582,378.75,92.248z"/>
	<path d="M468.688,88.561l-1.375-0.25l0.25,1.438l-1.438,1c0.208,0.75,0.385,1.209,0.531,1.375c0.146,0.167,0.531,0.438,1.156,0.812
		l0.125,1.25c0,4.542-1.75,9.459-5.25,14.75c-0.792,1.167-1.771,2.396-2.938,3.688c-1.167,1.292-1.896,2.146-2.188,2.562l-1.875,0.5
		l-11.812,5.5l-6.5,0.25l-4.75,1.188L427,122.498l-1.938,0.5l-5.625-1l-2.312-0.125l-1.25-1.438l-3.5-0.5l-1.625-0.875
		c-1.417-1.083-2.604-1.989-3.562-2.719c-0.959-0.729-1.573-1.208-1.844-1.438c-0.271-0.229-0.49-0.469-0.656-0.719l-1.375-2.688
		l-1.938-1.562l-1.5-3.938l-0.562-1.562l0.688-0.5c0-0.583,0.083-0.979,0.25-1.188c0.166-0.208,0.541-0.416,1.125-0.625l-0.375-1
		l-2.062-1.312v-2.562c0-1.791,0.208-3.562,0.625-5.312c0.416-1.75,1.146-3.771,2.188-6.062c1.625-3.666,2.833-5.75,3.625-6.25
		l2.562-1.688l1.375-2.438c0.5-0.875,1.104-1.458,1.812-1.75L417,70.623l3.312-2.688l4-1.5l7-2.438l5.812-0.5l4.562-0.125
		c2.583,0,3.875,0.709,3.875,2.125c0.708,0.625,1.166,0.938,1.375,0.938c0.625,0,1.312-0.604,2.062-1.812l1.562,0.375l4.062,1.438
		l1.688,1.375l2.312,1.438l2.312,3.562c0.625,0.792,1.854,1.188,3.688,1.188c1.208,1.5,2.021,2.979,2.438,4.438
		c0.416,1.459,0.875,4.146,1.375,8.062L468.688,88.561z M459.625,90.123l-2.312-7.188l-0.375-3.188l-0.625-1.188h-0.375
		c-0.334,0-0.604-0.062-0.812-0.188c-0.209-0.125-0.459-0.354-0.75-0.688l-3.062-3.812l-1-1.562l-5.25-2.438
		c-0.5-0.833-0.928-1.447-1.281-1.844c-0.354-0.396-0.781-0.594-1.281-0.594c-0.542,0-1.396,0.209-2.562,0.625
		c-1.167-0.5-2.021-0.75-2.562-0.75l-1.812,0.25l-3.062,0.125l-4.25,1.562l-1-0.875l-0.75,1l-4.25,2.562l-7.812,6.75l-1.5,1.312
		c-0.334,2.125-1.292,4.562-2.875,7.312l-0.875,1.5v0.5c0,0.917-0.146,1.521-0.438,1.812c-0.292,0.292-0.875,0.5-1.75,0.625
		c-0.167,0.667-0.25,0.979-0.25,0.938c0.041,0.084,0.072,0.156,0.094,0.219c0.021,0.062,0.031,0.115,0.031,0.156l1.938,2.188
		l0.25,1.375c-1.292,1.084-1.938,1.812-1.938,2.188l0.25,0.75c0.375-0.416,0.729-0.625,1.062-0.625c0.375,0,0.625,0.125,0.75,0.375
		l1.438,4.625l3.188,5.25l-0.375,3.188c0.333,0.334,0.708,0.5,1.125,0.5c0.5,0,1.021-0.25,1.562-0.75l1.25,0.375l7.562,4.625
		l7.688,0.75l4.375,0.625l4.938-0.875l3.25-0.75l4.062-4.125l2.938-0.875l1.438-1.562l3.312-6.875l1.688-1.438
		c0.583-0.583,0.875-1.083,0.875-1.5v-0.312l-1-2.938L459.625,90.123z"/>
	<path d="M582.375,63.873c-0.209,3.625-0.459,5.917-0.75,6.875l-1.375,4.125l-0.375,1.812l-1.312,3.438l-0.375,2.188
		c-0.125,0.417-0.688,1.042-1.688,1.875l-0.125,1.312l0.125,1.812l-6.625,21.375l-0.625,6.375l-4.875,3.812l-1.562,2.062
		l-1.25,0.938l-1.062-0.938l-1-1.25l-1.562-0.938l-0.375-1.125l-0.75-2.688l-1.438-1.688l1.188-0.75l-0.125-1.125l-1.188-1.312
		l-1.75-1c-0.625-0.333-1.146-1.062-1.562-2.188l-1.562-6.375l-2.25-4.375c0.125-0.583,0.416-0.875,0.875-0.875
		c0.416,0,0.75,0.084,1,0.25c0-1.958-0.542-3.25-1.625-3.875l-1.938-1c-0.5-0.333-1.146-2.208-1.938-5.625l-0.5-1.188h-0.625
		l-0.625,1.438l-4.5,15.375l-3.188,9.062l-0.812,3.688l-0.75,2.188l-0.375,2.188l-2.938,2.062l-1,1
		c-1.125,0.166-1.948,0.354-2.469,0.562c-0.521,0.208-1.156,0.583-1.906,1.125l-0.625-1.562l-1.938-3.438l-1-2.438l-2.562-8.812
		l-3.625-6.438l0.375-5l-0.375-1.125c-1.5,0-2.479-0.521-2.938-1.562l-1-2.562l-1.312-2.125l-1.375-4.5l-1.812-1.938L502,71.311
		l-0.875-1.562c0.875-2.041,1.771-3.229,2.688-3.562l2.562-0.938l2.688-2c0.125-0.041,0.239-0.072,0.344-0.094
		c0.104-0.021,0.239-0.031,0.406-0.031c0.583,0,1.083,0.167,1.5,0.5c0.416,0.334,0.729,0.792,0.938,1.375l2.562,9.5l0.5,1.5
		c-0.209,0.459-0.625,0.938-1.25,1.438c0.583,1.875,1.229,2.812,1.938,2.812h1l1.25-0.25c1.208,1.667,1.812,2.729,1.812,3.188v0.25
		l-0.375,2.812l1.25,4.125l0.688,2.438l1.625,2.312l3.375,10.75l1.375,1.625l0.75,1.188h1.188l0.5-1.188
		c1.083-1.833,1.771-3.5,2.062-5l0.25-3.688l1.625-3.562l0.812-3.375c0.041-0.125,0.771-2,2.188-5.625
		c0-2.125,0.072-3.708,0.219-4.75c0.146-1.041,0.438-1.833,0.875-2.375c0.438-0.541,1.177-1.062,2.219-1.562l-0.625-1.438
		l-1.438-1.75l0.25-4l-0.5-1.875l-0.125-2.062l1.5-0.75l1.438-0.938c0.708-0.583,2.25-1,4.625-1.25l1.125-0.125l1.188,0.875l1.5,1
		l0.75,4.25l1.188,5.25l-0.875,2.438c0.125,0.334,0.375,0.792,0.75,1.375c0.375,0.584,0.916,1.062,1.625,1.438l1.562,4.375
		l0.375,1.25l1.188,3.938l5.75,15.875c0.333,0.917,0.697,1.542,1.094,1.875c0.396,0.334,0.969,0.604,1.719,0.812l1.812-2.812
		c-0.459-0.791-0.688-1.688-0.688-2.688c0-0.333,0.083-0.666,0.25-1l4.375-11.125l0.125-2.812l1.812-5.75l0.25-4.375l0.75-4.125
		c0.125-1.458,0.239-2.666,0.344-3.625c0.104-0.958,0.281-1.719,0.531-2.281s0.677-1.041,1.281-1.438
		c0.604-0.396,1.219-0.802,1.844-1.219c1.625-1,2.688-1.5,3.188-1.5C580.791,63.373,581.375,63.54,582.375,63.873z"/>
	<path d="M648.625,107.498c0,0.542-0.104,1.021-0.312,1.438l-1.25,2.188l-2.938,5.062l-2.688,0.188l-1.688,1.375
		c-0.375,0.375-1.021,0.625-1.938,0.75l-11.25,2.188l-1.75,0.625l-4-0.375l-5.75,0.5l-6.5-0.375h-1.812
		c-0.917-0.709-1.479-1.125-1.688-1.25l-6.125-2.188l-2.062-1.938l-4.062-2.812l-3.25-4.312l-1.25-1.062
		c0.5-1,0.75-1.896,0.75-2.688c0-0.333-0.084-0.583-0.25-0.75l-1.688-2.688l-0.375-3.562l-0.125-2.875
		c0-0.958,0.229-2.229,0.688-3.812c0.708-2.5,1.291-4,1.75-4.5l2.312-2.938l1.188-2.688l2.938-2.812l3.188-4.188l2.812-1.562
		l4.062-2.812l2.688-1.812l0.938-0.625l1.875-0.375l5.688-1.812l4.438-0.5l2.688-1.125l1.312-0.125c2.125,0,3.916,1.146,5.375,3.438
		c0.791-0.083,1.375-0.521,1.75-1.312L634,66.811l2.312,1.25l5.25,5.125c0.666,0.834,1.177,1.553,1.531,2.156
		c0.354,0.604,0.708,1.24,1.062,1.906c0.354,0.667,0.666,1.396,0.938,2.188c0.271,0.792,0.677,2,1.219,3.625l0.5,1.562l-0.625,0.25
		l-2.438-0.5l-2.688,0.875L639,84.873l-2.312,0.625l-4.375-0.5l-4.188,0.25l-4.375-0.75l-7.125,0.125l-3.5-0.125l-8.438,1.125
		l-3.062-0.125l-4.25,1.25l-1.5,0.312l-0.25,1.5c-0.084,1.042-0.229,1.75-0.438,2.125c-0.209,0.375-0.667,0.812-1.375,1.312
		l0.125,1.188c1.375,1.042,2.104,1.688,2.188,1.938l1.625,6.375l0.812,1.562c-0.417,0.417-0.625,0.792-0.625,1.125
		c0.041,0.084,0.083,0.167,0.125,0.25l2.375,0.75l0.562,1.562c0.416,1.459,0.958,2.354,1.625,2.688l3.375,1.375l1.125,2.438
		c0.583,0.292,1.521,0.521,2.812,0.688l0.875,1.625l1.938,0.25l5.375,1.938l4.5-0.875l11.875-1.938l2.562-1.562l4-2.438l3.312-4.312
		c0.583-0.708,1.271-1.062,2.062-1.062C647.896,105.561,648.625,106.207,648.625,107.498z M633.875,78.061
		c0-0.666-0.771-2.062-2.312-4.188l-4.312-3.125l-1.438-1.5l-2.062-0.125L619,68.748l-1.125,0.25l-2.688,1.5l-3.438,0.812
		l-4.375,1.625l-1.688,0.625l-2,3c-1.25,0.875-1.938,1.417-2.062,1.625l-0.25,0.75l7.688,0.562l0.875-0.125l1.438-0.438l1.375,0.312
		l3.688,0.75h0.188l4.188-0.75l1.312-0.312l1,1.438h1.438l5.5-1.125l2.25,0.25C633.354,79.373,633.875,78.895,633.875,78.061z"/>
	<path d="M751.125,117.998L751,119.311l-1.312,0.375l-4.25,0.75l-4.562,0.375c-0.209-1.666-0.428-2.739-0.656-3.219
		c-0.229-0.479-0.573-0.844-1.031-1.094c-0.459,0.375-0.875,0.646-1.25,0.812c-0.375,0.167-0.865,0.365-1.469,0.594
		c-0.604,0.229-1.156,0.469-1.656,0.719c-4.792,2.5-13.521,3.75-26.188,3.75c-2.417,0-4.198-0.229-5.344-0.688
		c-1.146-0.459-1.969-1.25-2.469-2.375c-0.709,0.084-1.312,0.417-1.812,1l-1.938-0.625c-0.125-0.833-0.303-1.416-0.531-1.75
		c-0.229-0.333-0.719-0.646-1.469-0.938l-0.812,0.75c-1.334-0.333-2.354-0.771-3.062-1.312c-0.709-0.541-1.854-1.688-3.438-3.438
		c0.166-0.416,0.25-0.916,0.25-1.5c0-1.041-0.438-1.896-1.312-2.562l-1.75-1.688l-0.25-1.25l-1.062-4.75v-1.062
		c0-1.416,0.271-2.938,0.812-4.562l-0.125-1.312l0.75-1.5L689,83.686c0.583-1.333,1.396-2,2.438-2h0.125l2.062,0.125l0.75-5.25
		l2.438-1.938l2.562-2.938l1.812-1.188l1.125-1c0.458-0.25,0.896-0.416,1.312-0.5c0.416,0.084,0.875,0.125,1.375,0.125
		c0.791,0.042,1.322,0.136,1.594,0.281c0.271,0.146,0.594,0.511,0.969,1.094c0.666-1,1.729-1.708,3.188-2.125l-0.125-1.938
		l1.812-0.75c1.666-0.5,2.697-0.822,3.094-0.969c0.396-0.146,0.947-0.302,1.656-0.469l2.188,0.125l2.938-1l1.375,0.875
		c0.666,0.334,1.104,0.542,1.312,0.625l0.25,0.625c0.458,0.375,0.75,0.562,0.875,0.562c0.375,0,0.854-0.604,1.438-1.812l3.312,0.75
		c2.416,0.542,3.947,0.959,4.594,1.25c0.646,0.292,1.239,0.812,1.781,1.562l3.75-0.125l-0.5-1.25l-0.688-1.062l-0.375-4.438
		l-0.375-1.312l0.5-3.188l-0.5-8.688l0.125-0.938l2.062-0.75l-0.875-1.25l-0.312-1.688l-0.875-2.812
		c-0.334-0.791-0.5-1.812-0.5-3.062v-0.75l0.625-8.875l-0.5-3.938l0.375-1.688c0.75-0.166,1.188-0.583,1.312-1.25l-0.812-0.812
		c-0.917-0.083-1.729-0.375-2.438-0.875v-0.75v-0.812l-0.5-3.812l-0.25-4.25c0-0.75-0.459-1.458-1.375-2.125
		c0.375-1.5,1.041-2.354,2-2.562L741,3.936l2.562-1.625l2.812-0.625l1.375-0.438c0.875,1,1.312,2.084,1.312,3.25l-0.125,1.5
		l-0.625,3.312l0.125,1.812l-0.312,5.5v4.625l-0.75,2.688l0.125,5.75c-0.209,0.667-0.709,1.521-1.5,2.562l1.875,5.25l-0.375,1.375v3
		l-0.5,1.25l0.5,4.25c0,0.584-0.167,1.354-0.5,2.312h-1.375c-0.375,1.292-0.562,2.229-0.562,2.812c0,0.25,0.041,0.417,0.125,0.5
		l2.188,3.062l-0.125,4.5l0.375,5.25l-0.25,2.125l-0.125,0.938l0.125,1.25l-0.875,1.062l0.375,5.875l-0.125,4.188l0.5,4v2.688
		l0.375,3.062v4.875l0.938,4.875l0.125,3.938l0.75,2.812l0.125,2.562v1.938c0.458,0.375,0.833,1.209,1.125,2.5
		C750.979,115.79,751.125,116.957,751.125,117.998z M741,92.248l-0.625-3.938c-1.042-0.375-1.562-0.896-1.562-1.562v-0.25l0.5-2.688
		l-0.375-4.875v-1.25l-0.625-1.438l0.125-1.5c0-0.583-0.25-0.875-0.75-0.875c-0.25,0-0.396-0.104-0.438-0.312l-2.562,0.562
		l-0.625,0.125l-0.875-0.125l-11.625-2.812l-4.25-0.125H716c-0.417,0-0.667,0.042-0.75,0.125l-2.188,0.875h-2.812l-3.688,2.438
		L704,74.998l-1.812,1.25l-2.562,2.312c-0.959,1-1.542,1.896-1.75,2.688l-0.25,1.562l-2.438,2.562l-2.562,3.812
		c-0.709,1.459-1.062,2.625-1.062,3.5c0,0.917,0.166,1.729,0.5,2.438l0.438,1.125l1.375,5.125l1.438,2.562l0.125,1.375v0.812
		l1.5,0.625c1.125,1.5,2.375,2.886,3.75,4.156c1.375,1.271,2.729,2.24,4.062,2.906l2.812,1.25l0.938,0.5l1.875,0.25h1.562
		l3.562,1.312h0.938h3.062l6.25-0.25c1.166-0.041,2.729-0.364,4.688-0.969c1.958-0.604,3.416-1.135,4.375-1.594l2.875-2.438
		l1.375-1.688l-0.625-1.625l0.375-1.688l0.125-1.812l-0.125-2.562l-0.25-2.812l0.125-0.375l0.125-2.062l-0.5-2.812
		c-0.042-0.083-0.084-0.166-0.125-0.25C738.188,93.228,739.125,92.582,741,92.248z"/>
	<path d="M830.938,88.561l-1.375-0.25l0.25,1.438l-1.438,1c0.208,0.75,0.385,1.209,0.531,1.375c0.146,0.167,0.531,0.438,1.156,0.812
		l0.125,1.25c0,4.542-1.75,9.459-5.25,14.75c-0.792,1.167-1.771,2.396-2.938,3.688c-1.167,1.292-1.896,2.146-2.188,2.562l-1.875,0.5
		l-11.812,5.5l-6.5,0.25l-4.75,1.188l-5.625-0.125l-1.938,0.5l-5.625-1l-2.312-0.125l-1.25-1.438l-3.5-0.5L773,119.061
		c-1.417-1.083-2.604-1.989-3.562-2.719c-0.959-0.729-1.573-1.208-1.844-1.438c-0.271-0.229-0.49-0.469-0.656-0.719l-1.375-2.688
		l-1.938-1.562l-1.5-3.938l-0.562-1.562l0.688-0.5c0-0.583,0.083-0.979,0.25-1.188c0.166-0.208,0.541-0.416,1.125-0.625l-0.375-1
		l-2.062-1.312v-2.562c0-1.791,0.208-3.562,0.625-5.312c0.416-1.75,1.146-3.771,2.188-6.062c1.625-3.666,2.833-5.75,3.625-6.25
		l2.562-1.688l1.375-2.438c0.5-0.875,1.104-1.458,1.812-1.75l5.875-3.125l3.312-2.688l4-1.5l7-2.438l5.812-0.5l4.562-0.125
		c2.583,0,3.875,0.709,3.875,2.125c0.708,0.625,1.166,0.938,1.375,0.938c0.625,0,1.312-0.604,2.062-1.812l1.562,0.375l4.062,1.438
		l1.688,1.375l2.312,1.438l2.312,3.562c0.625,0.792,1.854,1.188,3.688,1.188c1.208,1.5,2.021,2.979,2.438,4.438
		c0.416,1.459,0.875,4.146,1.375,8.062L830.938,88.561z M821.875,90.123l-2.312-7.188l-0.375-3.188l-0.625-1.188h-0.375
		c-0.334,0-0.604-0.062-0.812-0.188c-0.209-0.125-0.459-0.354-0.75-0.688l-3.062-3.812l-1-1.562l-5.25-2.438
		c-0.5-0.833-0.928-1.447-1.281-1.844c-0.354-0.396-0.781-0.594-1.281-0.594c-0.542,0-1.396,0.209-2.562,0.625
		c-1.167-0.5-2.021-0.75-2.562-0.75l-1.812,0.25l-3.062,0.125l-4.25,1.562l-1-0.875l-0.75,1l-4.25,2.562l-7.812,6.75l-1.5,1.312
		c-0.334,2.125-1.292,4.562-2.875,7.312l-0.875,1.5v0.5c0,0.917-0.146,1.521-0.438,1.812c-0.292,0.292-0.875,0.5-1.75,0.625
		c-0.167,0.667-0.25,0.979-0.25,0.938c0.041,0.084,0.072,0.156,0.094,0.219c0.021,0.062,0.031,0.115,0.031,0.156l1.938,2.188
		l0.25,1.375c-1.292,1.084-1.938,1.812-1.938,2.188l0.25,0.75c0.375-0.416,0.729-0.625,1.062-0.625c0.375,0,0.625,0.125,0.75,0.375
		l1.438,4.625l3.188,5.25l-0.375,3.188c0.333,0.334,0.708,0.5,1.125,0.5c0.5,0,1.021-0.25,1.562-0.75l1.25,0.375l7.562,4.625
		l7.688,0.75l4.375,0.625l4.938-0.875l3.25-0.75l4.062-4.125l2.938-0.875l1.438-1.562l3.312-6.875l1.688-1.438
		c0.583-0.583,0.875-1.083,0.875-1.5v-0.312l-1-2.938L821.875,90.123z"/>
	<path d="M926.875,116.061l-0.625,1.812l-8.625,4.125c-1.167-1.5-1.75-2.438-1.75-2.812v-0.312l1.5-6l0.125-2.688l0.5,0.125
		l1.062-1.25c-0.292-0.666-0.573-1.104-0.844-1.312c-0.271-0.208-0.761-0.458-1.469-0.75l-0.25-1l1-11.688l-0.625-1.625L917,90.623
		v-4.75l0.75-2.312l-1.125-1.125l0.125-3.75c-0.459-1.375-1.229-2.688-2.312-3.938v-0.625c0-0.541-0.167-0.938-0.5-1.188
		l-1.562-0.125l-3.188-1.938l-5.125,0.312l-5.875-0.438c-0.5,0.25-1.062,0.771-1.688,1.562l-1.125-0.25l-4.875,0.875l-1.75,0.375
		l-2.188,1.688l-2.812,1.25c-1.375,0.667-2.146,1.667-2.312,3l-0.125,6.125l-0.812,3.812l1.312,3.75v2l-0.125,7.438l-1.188,2.562
		l-0.125,0.938v0.375l1.188,2l0.375,6.812l0.5,2.188c0,0.25-0.125,0.573-0.375,0.969c-0.25,0.396-0.584,0.678-1,0.844l-4.125,1
		l-1.125,0.25c-0.667,1.125-1.312,1.688-1.938,1.688c-0.417,0-0.854-0.229-1.312-0.688c-0.042-0.084-0.094-0.167-0.156-0.25
		c-0.062-0.084-0.136-0.167-0.219-0.25c-0.167-0.334-0.25-0.459-0.25-0.375l0.938-4.625l-0.125-5.25l0.625-2.125l-0.5-3.5
		l0.25-3.812l0.125-8.062c0-1.083,0.729-1.688,2.188-1.812c-0.125-0.916-0.344-1.489-0.656-1.719
		c-0.312-0.229-0.99-0.344-2.031-0.344l0.125-11.25l1.375-0.875l-0.75-1.312l-1.688-4.562l-1.125-1.438l0.75-1.375l1.312-1.562
		l2.25-1l2.188-1.688c0.625-0.5,1.396-0.75,2.312-0.75c0.541,0,1.062,0.156,1.562,0.469s0.791,0.656,0.875,1.031l0.125,5.875
		l0.25,1.938l1.188-0.375c1.5-1.833,3.26-3.552,5.281-5.156c2.021-1.604,3.531-2.406,4.531-2.406c0.541,0,0.979,0.438,1.312,1.312
		c0.833-0.25,1.812-0.729,2.938-1.438c1.208-0.666,2.229-1,3.062-1H901l5.125,0.5l1.938-0.625l5.75,0.75
		c1.958,0.25,3.5,0.938,4.625,2.062l0.875-0.125c1.333,0,2.438,0.584,3.312,1.75l0.938,1.562l1.25,2.062
		c0.583,0.709,0.875,2.229,0.875,4.562v3.5l0.25,1.5l-1.5,1.938l0.5,1.562l0.75,1.375v1.438v1.125c0,0.334-0.042,0.584-0.125,0.75
		l-0.875,1.812c-0.167,0.334-0.25,0.938-0.25,1.812l1.25,1.625l-0.125,1.812l-0.125,4.375v0.5l0.938,2.438l0.125,5.625
		L926.875,116.061z"/>
	<path d="M1006.813,88.561l-1.375-0.25l0.25,1.438l-1.438,1c0.208,0.75,0.385,1.209,0.531,1.375
		c0.146,0.167,0.531,0.438,1.156,0.812l0.125,1.25c0,4.542-1.75,9.459-5.25,14.75c-0.792,1.167-1.771,2.396-2.938,3.688
		c-1.167,1.292-1.896,2.146-2.188,2.562l-1.875,0.5l-11.812,5.5l-6.5,0.25l-4.75,1.188l-5.625-0.125l-1.938,0.5l-5.625-1
		l-2.312-0.125l-1.25-1.438l-3.5-0.5l-1.625-0.875c-1.417-1.083-2.604-1.989-3.562-2.719c-0.959-0.729-1.573-1.208-1.844-1.438
		c-0.271-0.229-0.49-0.469-0.656-0.719l-1.375-2.688l-1.938-1.562l-1.5-3.938l-0.562-1.562l0.688-0.5
		c0-0.583,0.083-0.979,0.25-1.188c0.166-0.208,0.541-0.416,1.125-0.625l-0.375-1l-2.062-1.312v-2.562
		c0-1.791,0.208-3.562,0.625-5.312c0.416-1.75,1.146-3.771,2.188-6.062c1.625-3.666,2.833-5.75,3.625-6.25l2.562-1.688l1.375-2.438
		c0.5-0.875,1.104-1.458,1.812-1.75l5.875-3.125l3.312-2.688l4-1.5l7-2.438l5.812-0.5l4.562-0.125c2.583,0,3.875,0.709,3.875,2.125
		c0.708,0.625,1.166,0.938,1.375,0.938c0.625,0,1.312-0.604,2.062-1.812l1.562,0.375l4.062,1.438l1.688,1.375l2.312,1.438
		l2.312,3.562c0.625,0.792,1.854,1.188,3.688,1.188c1.208,1.5,2.021,2.979,2.438,4.438c0.416,1.459,0.875,4.146,1.375,8.062
		L1006.813,88.561z M997.75,90.123l-2.312-7.188l-0.375-3.188l-0.625-1.188h-0.375c-0.334,0-0.604-0.062-0.812-0.188
		c-0.209-0.125-0.459-0.354-0.75-0.688l-3.062-3.812l-1-1.562l-5.25-2.438c-0.5-0.833-0.928-1.447-1.281-1.844
		c-0.354-0.396-0.781-0.594-1.281-0.594c-0.542,0-1.396,0.209-2.562,0.625c-1.167-0.5-2.021-0.75-2.562-0.75l-1.812,0.25
		l-3.062,0.125l-4.25,1.562l-1-0.875l-0.75,1l-4.25,2.562l-7.812,6.75l-1.5,1.312c-0.334,2.125-1.292,4.562-2.875,7.312l-0.875,1.5
		v0.5c0,0.917-0.146,1.521-0.438,1.812c-0.292,0.292-0.875,0.5-1.75,0.625c-0.167,0.667-0.25,0.979-0.25,0.938
		c0.041,0.084,0.072,0.156,0.094,0.219C944.99,92.967,945,93.02,945,93.061l1.938,2.188l0.25,1.375
		c-1.292,1.084-1.938,1.812-1.938,2.188l0.25,0.75c0.375-0.416,0.729-0.625,1.062-0.625c0.375,0,0.625,0.125,0.75,0.375l1.438,4.625
		l3.188,5.25l-0.375,3.188c0.333,0.334,0.708,0.5,1.125,0.5c0.5,0,1.021-0.25,1.562-0.75l1.25,0.375l7.562,4.625l7.688,0.75
		l4.375,0.625l4.938-0.875l3.25-0.75l4.062-4.125l2.938-0.875l1.438-1.562l3.312-6.875l1.688-1.438
		c0.583-0.583,0.875-1.083,0.875-1.5v-0.312l-1-2.938L997.75,90.123z"/>
	<path d="M1091.438,63.873c-0.209,3.625-0.459,5.917-0.75,6.875l-1.375,4.125l-0.375,1.812l-1.312,3.438l-0.375,2.188
		c-0.125,0.417-0.688,1.042-1.688,1.875l-0.125,1.312l0.125,1.812l-6.625,21.375l-0.625,6.375l-4.875,3.812l-1.562,2.062
		l-1.25,0.938l-1.062-0.938l-1-1.25l-1.562-0.938l-0.375-1.125l-0.75-2.688l-1.438-1.688l1.188-0.75l-0.125-1.125l-1.188-1.312
		l-1.75-1c-0.625-0.333-1.146-1.062-1.562-2.188l-1.562-6.375l-2.25-4.375c0.125-0.583,0.416-0.875,0.875-0.875
		c0.416,0,0.75,0.084,1,0.25c0-1.958-0.542-3.25-1.625-3.875l-1.938-1c-0.5-0.333-1.146-2.208-1.938-5.625l-0.5-1.188h-0.625
		l-0.625,1.438l-4.5,15.375l-3.188,9.062l-0.812,3.688l-0.75,2.188l-0.375,2.188l-2.938,2.062l-1,1
		c-1.125,0.166-1.948,0.354-2.469,0.562c-0.521,0.208-1.156,0.583-1.906,1.125l-0.625-1.562l-1.938-3.438l-1-2.438l-2.562-8.812
		l-3.625-6.438l0.375-5l-0.375-1.125c-1.5,0-2.479-0.521-2.938-1.562l-1-2.562l-1.312-2.125l-1.375-4.5l-1.812-1.938l-4.625-9.688
		l-0.875-1.562c0.875-2.041,1.771-3.229,2.688-3.562l2.562-0.938l2.688-2c0.125-0.041,0.239-0.072,0.344-0.094
		c0.104-0.021,0.239-0.031,0.406-0.031c0.583,0,1.083,0.167,1.5,0.5c0.416,0.334,0.729,0.792,0.938,1.375l2.562,9.5l0.5,1.5
		c-0.209,0.459-0.625,0.938-1.25,1.438c0.583,1.875,1.229,2.812,1.938,2.812h1l1.25-0.25c1.208,1.667,1.812,2.729,1.812,3.188v0.25
		l-0.375,2.812l1.25,4.125l0.688,2.438l1.625,2.312l3.375,10.75l1.375,1.625l0.75,1.188H1039l0.5-1.188
		c1.083-1.833,1.771-3.5,2.062-5l0.25-3.688l1.625-3.562l0.812-3.375c0.041-0.125,0.771-2,2.188-5.625
		c0-2.125,0.072-3.708,0.219-4.75c0.146-1.041,0.438-1.833,0.875-2.375c0.438-0.541,1.177-1.062,2.219-1.562l-0.625-1.438
		l-1.438-1.75l0.25-4l-0.5-1.875l-0.125-2.062l1.5-0.75l1.438-0.938c0.708-0.583,2.25-1,4.625-1.25l1.125-0.125l1.188,0.875l1.5,1
		l0.75,4.25l1.188,5.25l-0.875,2.438c0.125,0.334,0.375,0.792,0.75,1.375c0.375,0.584,0.916,1.062,1.625,1.438l1.562,4.375
		l0.375,1.25l1.188,3.938l5.75,15.875c0.333,0.917,0.697,1.542,1.094,1.875c0.396,0.334,0.969,0.604,1.719,0.812l1.812-2.812
		c-0.459-0.791-0.688-1.688-0.688-2.688c0-0.333,0.083-0.666,0.25-1l4.375-11.125l0.125-2.812l1.812-5.75l0.25-4.375l0.75-4.125
		c0.125-1.458,0.239-2.666,0.344-3.625c0.104-0.958,0.281-1.719,0.531-2.281s0.677-1.041,1.281-1.438
		c0.604-0.396,1.219-0.802,1.844-1.219c1.625-1,2.688-1.5,3.188-1.5C1089.854,63.373,1090.438,63.54,1091.438,63.873z"/>
	<path d="M1149.063,50.186c0,0.917-0.5,2.188-1.5,3.812h-1.188l-1.25,1.188l0.125,1.375l-1.312,1.188l-2.25,2.688l-4.125,3.312
		l-1.125,1.125l-1.062-0.375c-0.5-0.25-0.834-0.375-1-0.375c-0.459,0-1.104,0.417-1.938,1.25c0.666,0.292,1,0.688,1,1.188
		c0,0.25-0.042,0.417-0.125,0.5l-5.875,6.938c-0.334,0.334-0.5,0.75-0.5,1.25c0,1.375,0.771,2.834,2.312,4.375l-1.188,0.5
		c0.083,1.209,0.604,2.229,1.562,3.062c-0.875,1.542-1.812,2.312-2.812,2.312h-0.25L1123,84.873
		c-1.75-0.291-2.709-0.771-2.875-1.438l-0.5-1.938l-0.75-1l-0.125-1v-0.562l1.125-0.625v-1l0.125-0.875l2.062-1.938l3.875-5.75
		l3.938-3.75c2.375-2.125,3.916-3.354,4.625-3.688c1.791-1,2.771-1.729,2.938-2.188l0.625-2.688l1.438-3.188l-0.5-1.562
		l-0.438-0.625c-0.5-0.875-0.917-1.625-1.25-2.25c-0.334-0.625-0.584-1.021-0.75-1.188c-0.292-0.166-0.438-0.291-0.438-0.375
		l-0.75-1.062l-1.25,0.25l-6.188-2.312l-1.375-0.25l0.375-1.625l-1.125-0.5c-0.375,0-0.938,0.292-1.688,0.875l-0.25,0.875
		l-1.062-0.125l-6,0.375l-3.062-0.25c-1.167,0.084-3.417,1.104-6.75,3.062c-1.125,0.709-1.688,1.271-1.688,1.688
		c0,0.542,0.25,1.229,0.75,2.062l0.5,1.125l-1,1.312c-1.584,2-2.438,3.021-2.562,3.062l-1.125,0.5l-1.812,1.125
		c-0.167,0.209-0.417,0.312-0.75,0.312l-1.062-0.188c-1.042-0.125-1.709-0.333-2-0.625c-0.292-0.291-0.438-0.916-0.438-1.875
		c0-1.708,0.354-2.958,1.062-3.75l1.875-2.188l0.938-1.25l2.188-1.438l4.312-3.688l4.125-1.938l2.688-1.375l2.438-0.25l2.812-1.312
		h2.812l1.938-0.5c0.833,0.417,1.375,0.625,1.625,0.625l1.812-0.5l8.062,0.25c1.375,0,2.354,0.292,2.938,0.875l2.188,1.688
		c0.375,0.375,1.562,0.75,3.562,1.125l1.438,0.312c0.375,0.792,1.271,2.188,2.688,4.188
		C1148.479,47.686,1149.063,49.103,1149.063,50.186z M1132.563,115.061l-1.25,1.312l-0.938,1.5l-3.438,2.312l-0.875,1.125
		c-0.959-0.25-1.521-0.459-1.688-0.625l-1.812-2.188l-2.438-2.312l-1.625-2.25c0-0.083-0.011-0.125-0.031-0.125
		c-0.021,0-0.053,0-0.094,0l-2.188-0.938l0.25-1l1.438-0.938l3.562-2.125l1.688-1.562l1.375-0.75l1.688,1.625l5.5,4.125
		c0.208,0.209,0.375,0.688,0.5,1.438L1132.563,115.061z"/>
</g>
</svg>
