<?xml version="1.0" encoding="UTF-8" standalone="no"?>
<!-- Created with Inkscape (http://www.inkscape.org/) -->

<svg
   xmlns:dc="http://purl.org/dc/elements/1.1/"
   xmlns:cc="http://creativecommons.org/ns#"
   xmlns:rdf="http://www.w3.org/1999/02/22-rdf-syntax-ns#"
   xmlns:svg="http://www.w3.org/2000/svg"
   xmlns="http://www.w3.org/2000/svg"
   xmlns:sodipodi="http://sodipodi.sourceforge.net/DTD/sodipodi-0.dtd"
   xmlns:inkscape="http://www.inkscape.org/namespaces/inkscape"
   width="538.35687"
   height="368.80762"
   id="svg2"
   version="1.1"
   inkscape:version="0.48.5 r10040"
   inkscape:export-filename="C:\Users\PC\Google Drive\WeLast\Assets\Sprites\spr_cloud_0.png"
   inkscape:export-xdpi="45.299999"
   inkscape:export-ydpi="45.299999"
   sodipodi:docname="New document 1">
  <defs
     id="defs4">
    <inkscape:path-effect
       effect="skeletal"
       id="path-effect3981"
       is_visible="true"
       pattern="M 0,5 C 0,2.24 2.24,0 5,0 7.76,0 10,2.24 10,5 10,7.76 7.76,10 5,10 2.24,10 0,7.76 0,5 z"
       copytype="single_stretched"
       prop_scale="1"
       scale_y_rel="false"
       spacing="0"
       normal_offset="0"
       tang_offset="0"
       prop_units="false"
       vertical_pattern="false"
       fuse_tolerance="0" />
    <inkscape:path-effect
       effect="spiro"
       id="path-effect3979"
       is_visible="true" />
    <inkscape:path-effect
       effect="skeletal"
       id="path-effect3969"
       is_visible="true"
       pattern="M 0,5 C 0,2.24 2.24,0 5,0 7.76,0 10,2.24 10,5 10,7.76 7.76,10 5,10 2.24,10 0,7.76 0,5 z"
       copytype="single_stretched"
       prop_scale="1"
       scale_y_rel="false"
       spacing="0"
       normal_offset="0"
       tang_offset="0"
       prop_units="false"
       vertical_pattern="false"
       fuse_tolerance="0" />
    <inkscape:path-effect
       effect="spiro"
       id="path-effect3967"
       is_visible="true" />
    <inkscape:path-effect
       fuse_tolerance="0"
       vertical_pattern="false"
       prop_units="false"
       tang_offset="0"
       normal_offset="0"
       spacing="0"
       scale_y_rel="false"
       prop_scale="1"
       copytype="single_stretched"
       pattern="m 206.69393,238.6075 c 0,-2.76 2.24,-5 5,-5 2.76,0 5,2.24 5,5 0,2.76 -2.24,5 -5,5 -2.76,0 -5,-2.24 -5,-5 z"
       is_visible="true"
       id="path-effect3963"
       effect="skeletal" />
    <inkscape:path-effect
       is_visible="true"
       id="path-effect3961"
       effect="spiro" />
    <inkscape:path-effect
       effect="skeletal"
       id="path-effect3935"
       is_visible="true"
       pattern="m -205.71428,53.571428 c 0,-2.76 2.24,-5 5,-5 2.76,0 5,2.24 5,5 0,2.76 -2.24,5 -5,5 -2.76,0 -5,-2.24 -5,-5 z"
       copytype="single_stretched"
       prop_scale="1"
       scale_y_rel="false"
       spacing="0"
       normal_offset="0"
       tang_offset="0"
       prop_units="false"
       vertical_pattern="false"
       fuse_tolerance="0" />
    <inkscape:path-effect
       effect="spiro"
       id="path-effect3933"
       is_visible="true" />
    <inkscape:path-effect
       effect="spiro"
       id="path-effect3933-3"
       is_visible="true" />
    <inkscape:path-effect
       effect="skeletal"
       id="path-effect3935-1"
       is_visible="true"
       pattern="m -241.4663,-131.98088 c 0,-2.76 2.24,-5 5,-5 2.76,0 5,2.24 5,5 0,2.76 -2.24,5 -5,5 -2.76,0 -5,-2.24 -5,-5 z"
       copytype="single_stretched"
       prop_scale="1"
       scale_y_rel="false"
       spacing="0"
       normal_offset="0"
       tang_offset="0"
       prop_units="false"
       vertical_pattern="false"
       fuse_tolerance="0" />
  </defs>
  <sodipodi:namedview
     id="base"
     pagecolor="#888888"
     bordercolor="#666666"
     borderopacity="1.0"
     inkscape:pageopacity="0"
     inkscape:pageshadow="2"
     inkscape:zoom="0.98994949"
     inkscape:cx="223.23266"
     inkscape:cy="172.73764"
     inkscape:document-units="px"
     inkscape:current-layer="layer1"
     showgrid="false"
     inkscape:window-width="898"
     inkscape:window-height="611"
     inkscape:window-x="7"
     inkscape:window-y="206"
     inkscape:window-maximized="0"
     fit-margin-top="20"
     fit-margin-left="20"
     fit-margin-right="20"
     fit-margin-bottom="20" />
  <metadata
     id="metadata7">
    <rdf:RDF>
      <cc:Work
         rdf:about="">
        <dc:format>image/svg+xml</dc:format>
        <dc:type
           rdf:resource="http://purl.org/dc/dcmitype/StillImage" />
        <dc:title></dc:title>
      </cc:Work>
    </rdf:RDF>
  </metadata>
  <g
     inkscape:label="Layer 1"
     inkscape:groupmode="layer"
     id="layer1"
     transform="translate(-7.4120283,-24.297354)">
    <rect
       style="fill:#ff00ff;fill-opacity:1;stroke:#000000;stroke-width:0;stroke-miterlimit:4;stroke-opacity:1;stroke-dasharray:none"
       id="rect4050"
       width="505.07626"
       height="335.37064"
       x="19.192898"
       y="13.233921"
       transform="translate(7.4120283,24.297354)" />
    <path
       style="fill:#000000;fill-rule:evenodd;stroke:none"
       d="m 444.43765,305.50646 c -0.0366,-0.14181 0.23701,-0.35658 0.78446,-0.66858 0.54745,-0.312 1.36967,-0.72277 2.40816,-1.30567 1.0385,-0.5829 2.29511,-1.33988 3.66836,-2.36692 1.37324,-1.02704 2.86555,-2.32632 4.30033,-3.9853 1.24068,-1.43296 2.44008,-3.14138 3.4578,-5.13165 1.01771,-1.99027 1.85443,-4.2641 2.32312,-6.75808 0.36995,-1.96015 0.51233,-4.06581 0.36047,-6.24275 -0.15185,-2.17694 -0.59801,-4.42569 -1.40357,-6.6242 0,0 0,0 0,-1e-5 -1.38279,-3.78509 -3.87092,-7.49761 -7.36202,-10.31766 -2.966,-2.41187 -6.72486,-4.19045 -10.84408,-5.05559 -3.80948,-0.80135 -7.97249,-0.78853 -12.12364,0.0363 -3.79332,0.73302 -7.55469,2.19974 -11.16568,4.28701 -3.61099,2.08727 -7.07168,4.79531 -10.23291,7.93144 -3.88853,3.92324 -7.3228,8.48547 -9.63782,13.63241 -2.19424,4.88215 -3.46732,10.32276 -3.17408,15.71655 0.1731,3.98469 1.23521,8.00763 3.04356,11.7866 1.80835,3.77896 4.36281,7.3138 7.47984,10.27417 5.94602,5.66677 14.17596,9.34199 22.87273,10.52472 8.38787,1.14333 17.3326,-0.11043 25.76839,-3.18803 5.02892,-1.83687 9.88584,-4.35807 14.51995,-7.39562 2.9481,-1.93241 5.77607,-4.05323 8.47718,-6.30541 8.6661,-7.29453 15.92268,-16.09622 21.18934,-25.5682 5.26667,-9.47199 8.54072,-19.61166 9.49015,-29.73299 1.0733,-11.05567 -0.49234,-22.00199 -4.30039,-31.53765 -2.07758,-5.20838 -4.82109,-10.02987 -8.0384,-14.30275 -3.21731,-4.27288 -6.90837,-7.99718 -10.90576,-11.07413 -6.80983,-5.31488 -14.48343,-8.69634 -22.07923,-10.83328 -7.5958,-2.13694 -15.11676,-3.02886 -22.01314,-3.21679 -8.29402,-0.2009 -15.78828,0.60723 -22.25589,1.80603 -6.46761,1.1988 -11.91654,2.7867 -16.30089,4.26081 -4.38434,1.47411 -7.71272,2.8323 -9.99409,3.71427 -2.28137,0.88197 -3.52276,1.2844 -3.66831,1.0298 -0.14555,-0.2546 0.81136,-1.15723 2.86884,-2.55282 2.05749,-1.39559 5.22247,-3.2817 9.54983,-5.29667 4.32735,-2.01497 9.82572,-4.15689 16.48759,-5.88958 6.66187,-1.7327 14.49537,-3.05423 23.303,-3.28246 7.34297,-0.21068 15.46384,0.38535 23.8549,2.43894 8.39106,2.05359 17.05573,5.56537 25.08895,11.34343 4.67633,3.40535 9.01289,7.54428 12.8096,12.32887 3.79672,4.78459 7.05345,10.21493 9.54584,16.13824 4.55303,10.83061 6.57056,23.21229 5.49834,35.78394 -1.01531,11.51511 -4.5538,22.97524 -10.31808,33.60631 -5.76427,10.63108 -13.75218,20.42979 -23.39166,28.49074 -2.96575,2.50142 -6.10767,4.8626 -9.41958,7.02538 -5.20597,3.39966 -10.74906,6.25247 -16.56625,8.38912 -9.78903,3.59915 -20.34681,4.96101 -30.53314,3.56317 -10.62401,-1.46059 -20.61903,-6.13817 -28.14564,-13.36482 -3.96974,-3.82174 -7.14335,-8.35052 -9.36166,-13.2291 -2.21831,-4.87858 -3.48127,-10.10675 -3.67442,-15.37324 -0.20092,-7.08828 1.49277,-13.87106 4.35583,-19.79276 3.00561,-6.21945 7.15538,-11.50475 11.76189,-15.87276 3.70665,-3.56699 7.84528,-6.59662 12.2191,-8.91345 4.37382,-2.31684 8.9828,-3.92114 13.66227,-4.71743 5.13502,-0.8513 10.27913,-0.64263 15.02883,0.54179 5.15032,1.28544 9.75554,3.76172 13.40591,7.00608 4.28541,3.82794 7.10544,8.60965 8.5472,13.40507 10e-6,0 10e-6,0 10e-6,1e-5 0.83555,2.78692 1.20577,5.56279 1.2137,8.20607 0.008,2.64328 -0.34634,5.15451 -0.96398,7.46115 -0.78764,2.93385 -1.99071,5.51242 -3.37711,7.70639 -1.38641,2.19398 -2.95681,4.00507 -4.54075,5.4681 -1.8337,1.6921 -3.67286,2.91386 -5.33445,3.80293 -1.66159,0.88908 -3.14816,1.44743 -4.36675,1.80276 -1.21858,0.35532 -2.17122,0.50922 -2.82016,0.55251 -0.64893,0.0433 -0.99537,-0.0229 -1.03194,-0.16476 z"
       id="path3931"
       inkscape:original-d="m 444.43765,305.50646 c -22.18466,-13.43087 21.93451,-51.63309 10.60567,-45.82053 -11.32885,5.81255 -31.63868,-5.47436 -49.34122,6.6411 -4.93867,3.37998 -16.1631,25.3944 -14.4648,32.50723 5.17267,21.66415 70.76977,29.37443 89.93117,19.34296 32.21805,-16.86696 25.57287,-99.46395 6.64545,-119.28191 -5.49287,-5.7513 -37.43677,-11.19947 -46.51811,-13.91622 -12.83726,-3.84036 -42.23111,3.46341 -52.21422,13.91622"
       inkscape:connector-curvature="0"
       sodipodi:nodetypes="cssssssc"
       inkscape:path-effect="#path-effect3933;#path-effect3935" />
    <path
       style="fill:#000000;fill-rule:evenodd;stroke:none"
       d="m 187.95789,261.33157 c -0.0963,-0.0457 -0.0451,-0.38476 0.10564,-1.01278 0.15069,-0.62801 0.40023,-1.54737 0.63194,-2.76854 0.23172,-1.22116 0.44528,-2.74829 0.46242,-4.55697 0.0171,-1.80868 -0.16225,-3.90435 -0.77475,-6.15541 -0.53204,-1.97262 -1.40362,-4.0631 -2.70499,-6.13226 -1.30136,-2.06915 -3.03504,-4.11906 -5.21119,-5.91373 -1.69346,-1.39795 -3.66224,-2.64112 -5.87379,-3.65199 -2.21155,-1.01088 -4.6666,-1.78946 -7.28164,-2.25186 -4.22183,-0.76645 -8.83693,-0.64912 -13.63202,0.40566 -4.79509,1.05479 -9.7729,3.05062 -14.53707,5.82549 0,0 -1e-5,0 -1e-5,1e-5 -3.53611,2.09021 -6.98954,4.62176 -10.19409,7.6106 -3.20456,2.98885 -6.16054,6.43518 -8.65404,10.33192 -2.2225,3.47107 -4.08609,7.30965 -5.44068,11.41106 -1.35459,4.1014 -2.20027,8.46582 -2.36172,12.94578 -0.15013,4.09936 0.27018,8.31503 1.31111,12.44121 1.04093,4.12617 2.70249,8.16299 5.03055,11.85632 4.32677,6.88031 11.05198,12.70526 19.07298,15.58633 5.30046,1.99384 11.13946,2.61928 17.19196,2.18757 6.05249,-0.4317 12.31859,-1.92068 18.38983,-4.05131 8.92471,-3.24205 17.57649,-7.91377 24.91444,-14.34545 7.0215,-6.1556 12.92428,-13.93835 16.33197,-22.82785 2.93715,-7.513 3.98982,-15.87691 3.20884,-24.25618 -0.78099,-8.37927 -3.39554,-16.77341 -7.74683,-24.19288 -4.13723,-7.08865 -9.86029,-13.35252 -16.65573,-18.43913 -6.79544,-5.08661 -14.66287,-8.99575 -23.00189,-11.34174 -15.5612,-4.40736 -32.92126,-3.41918 -49.2101,1.59387 -12.48788,3.88749 -24.428771,10.13362 -34.521524,18.72121 -0.101249,0.0862 -0.202291,0.17252 -0.303126,0.25911 -10.150995,8.71416 -18.248837,19.64906 -23.157755,31.67611 -5.027166,12.3053 -6.78076,25.81509 -4.831076,38.52104 1.996969,13.06595 7.887825,25.39543 16.634832,34.63457 6.590614,7.07379 14.820659,12.30671 23.71052,15.92229 8.889859,3.61558 18.438869,5.61392 27.807129,6.21091 10.07189,0.63071 20.03619,-0.31824 29.72947,-2.2136 9.69329,-1.89536 19.11546,-4.73687 28.13511,-7.99366 9.955,-3.61343 19.49258,-7.76576 28.78117,-11.94761 9.28859,-4.18185 18.32808,-8.39335 27.23172,-12.25764 10.09948,-4.40138 20.09753,-8.34589 29.92889,-11.42957 9.83137,-3.08368 19.4958,-5.30807 28.91441,-6.49502 11.77877,-1.46301 22.97304,-1.20344 33.21508,0.11322 10.24204,1.31666 19.53576,3.69021 27.73833,6.55698 9.26807,3.23602 17.16218,7.10442 23.70949,10.94573 6.54732,3.84131 11.75682,7.65575 15.78454,10.95633 4.02771,3.30059 6.88197,6.08726 8.71649,8.04395 1.83453,1.95669 2.65553,3.08255 2.50368,3.23882 -0.15185,0.15627 -1.27177,-0.66098 -3.36981,-2.2885 -2.09805,-1.62753 -5.18057,-4.06391 -9.37229,-6.98302 -4.19171,-2.91911 -9.50102,-6.32058 -16.05497,-9.72817 -6.55395,-3.40758 -14.3615,-6.82147 -23.42059,-9.61617 -8.01924,-2.47117 -17.03476,-4.45863 -26.88469,-5.43689 -9.84992,-0.97827 -20.53808,-0.94735 -31.67916,0.70882 -8.93946,1.31142 -18.14077,3.64466 -27.57659,6.82469 -9.43583,3.18003 -19.10611,7.2084 -29.0022,11.6849 -8.71718,3.95922 -17.65288,8.29188 -26.95525,12.63511 -9.30237,4.34323 -18.97142,8.6972 -29.20977,12.56622 -9.28263,3.52493 -19.11026,6.60229 -29.37933,8.69107 -10.26908,2.08878 -20.97961,3.1887 -31.99273,2.65703 -10.31979,-0.48837 -20.88767,-2.6211 -30.862011,-6.65416 -9.974339,-4.03306 -19.354476,-9.96666 -27.15751,-18.05772 -10.201884,-10.72503 -17.035198,-24.77138 -19.362215,-39.78956 -2.251025,-14.57749 -0.342605,-29.85608 5.34569,-43.78747 5.553961,-13.59118 14.55473,-25.81439 25.873745,-35.50182 0.112326,-0.0961 0.224865,-0.19197 0.337617,-0.28758 11.239379,-9.53096 24.361584,-16.40498 38.048304,-20.61909 17.85999,-5.55675 37.11912,-6.49467 54.8206,-1.52207 9.53179,2.69352 18.45613,7.18122 26.17779,13.05137 7.72166,5.87014 14.24027,13.12247 19.05014,21.37421 5.05674,8.71122 8.01426,18.44065 8.82001,28.18042 0.80575,9.73977 -0.54027,19.48937 -4.03884,28.39441 -4.16115,10.41922 -10.98972,19.29129 -19.06207,26.16363 -8.41462,7.16482 -18.04286,12.24445 -27.84877,15.63319 -6.67705,2.38236 -13.7381,3.92644 -20.73102,4.25061 -6.99293,0.32416 -13.91777,-0.57141 -20.406,-2.96375 -9.7732,-3.73957 -17.63229,-10.78249 -22.62699,-19.09259 -2.67155,-4.45411 -4.53196,-9.22286 -5.6525,-14.04966 -1.12055,-4.8268 -1.50127,-9.71179 -1.21692,-14.44699 0.31284,-5.16403 1.38732,-10.11812 3.02702,-14.72722 1.6397,-4.60909 3.8447,-8.8734 6.44527,-12.70019 2.91587,-4.28829 6.29744,-8.02276 9.92058,-11.21783 3.62313,-3.19508 7.48813,-5.85098 11.42,-8.00336 1e-5,0 2e-5,0 2e-5,-1e-5 5.29078,-2.93739 10.87068,-4.92698 16.26912,-5.87381 5.39844,-0.94684 10.61806,-0.85458 15.38917,0.16893 2.95662,0.6466 5.70115,1.66347 8.15499,2.93828 2.45385,1.27481 4.61773,2.80758 6.464,4.49798 2.37846,2.17914 4.19262,4.6171 5.5,7.04228 1.30737,2.42518 2.11044,4.83973 2.53411,7.08383 0.47937,2.56638 0.46137,4.87622 0.23287,6.82358 -0.2285,1.94735 -0.66781,3.53763 -1.11711,4.77126 -0.44931,1.23362 -0.9088,2.11469 -1.25995,2.67833 -0.35114,0.56364 -0.594,0.81222 -0.69028,0.76657 z"
       id="path3931-6"
       inkscape:original-d="m 187.95789,261.33157 c 1.5452,-4.20232 3.25925,-9.58485 1.62986,-14.76672 -4.96278,-15.78283 -36.52178,-21.90073 -51.77606,-13.78808 -25.64863,13.64065 -17.37466,74.30247 -1.27617,88.21053 4.67189,4.03621 30.87083,-3.23981 38.3594,-1.5753 10.58577,2.35292 36.31229,-31.40423 44.07862,-39.48505 18.49647,-19.2455 -6.24966,-70.16099 -47.10235,-84.61518 -10.50243,-3.7159 -41.28354,-1.88542 -52.01535,1.55797 -9.77098,3.13509 -47.092474,122.34817 -48.210894,131.89878 -18.95877,161.89436 190.455144,-67.00151 228.186904,-30.27552 59.40218,57.81878 4.27983,109.28345 111.22456,36.59948"
       inkscape:connector-curvature="0"
       sodipodi:nodetypes="csssssssssc"
       inkscape:path-effect="#path-effect3961;#path-effect3963" />
    <path
       style="fill:#000000;fill-rule:evenodd;stroke:none"
       d="m 174.62513,195.82462 c -0.35045,0.12378 -1.30266,-1.37425 -2.59009,-4.4399 -1.28742,-3.06564 -2.90109,-7.71235 -4.22764,-13.88791 -1.32655,-6.17557 -2.35727,-13.8952 -2.2646,-22.88678 0.0927,-8.99159 1.3171,-19.26644 4.58685,-30.12929 3.08241,-10.22345 7.99088,-20.90937 15.06177,-31.124368 7.07088,-10.214997 16.30806,-19.955475 27.66963,-27.960311 0,-3e-6 1e-5,-6e-6 1e-5,-9e-6 9.32633,-6.549888 19.98372,-11.847933 31.54157,-15.487881 11.55785,-3.639947 24.01307,-5.620224 36.72951,-5.610783 6.45577,0.0048 12.8459,0.521036 19.08141,1.521148 9.15835,1.470258 17.95336,3.968914 26.20706,7.263953 8.25371,3.295038 15.9657,7.385858 23.01199,12.042671 7.04629,4.656813 13.4267,9.879118 19.07566,15.447644 5.64895,5.568527 10.56654,11.482892 14.74626,17.540993 4.29117,6.230823 7.78688,12.582793 10.60435,18.831813 2.81746,6.24901 4.95722,12.39516 6.55475,18.26685 1.59753,5.87169 2.65345,11.46928 3.31291,16.6703 0.65946,5.20102 0.92315,10.00606 0.93606,14.33457 0.0258,8.65701 -0.92684,15.39011 -1.87053,19.8941 -0.47184,2.25199 -0.94645,3.95225 -1.34621,5.08002 -0.39976,1.12777 -0.72393,1.68359 -0.94033,1.64476 -0.2164,-0.0388 -0.31866,-0.67087 -0.34001,-1.85438 -0.0213,-1.18351 0.0374,-2.91899 0.10028,-5.17039 0.12584,-4.5028 0.28357,-11.08663 -0.44669,-19.37804 -0.73026,-8.29141 -2.37063,-18.31402 -5.94991,-29.26763 -1.78964,-5.47681 -4.06355,-11.17729 -6.93718,-16.93759 -2.87364,-5.76029 -6.34734,-11.58053 -10.51916,-17.24811 -4.05353,-5.517306 -8.77056,-10.888899 -14.13902,-15.938251 -5.36845,-5.049352 -11.38832,-9.776239 -17.99249,-13.986701 -6.60417,-4.210462 -13.79237,-7.904161 -21.44443,-10.873928 -7.65206,-2.969767 -15.76748,-5.215156 -24.17868,-6.521702 -5.72501,-0.890205 -11.59631,-1.348039 -17.53172,-1.350218 -11.69145,-0.0043 -23.15696,1.762448 -33.80444,5.010501 -10.64748,3.248054 -20.47384,7.976699 -29.08077,13.845587 0,3e-6 -1e-5,6e-6 -1e-5,8e-6 -10.51325,7.143466 -19.21853,15.926222 -26.02309,25.195124 -6.80456,9.2689 -11.71031,19.02195 -14.97414,28.42115 -3.4724,9.98397 -5.12402,19.57207 -5.7509,28.07315 -0.62688,8.50108 -0.23559,15.92633 0.42661,21.97286 0.66219,6.04653 1.58687,10.72936 2.1879,13.93272 0.60103,3.20337 0.86791,4.94047 0.51746,5.06425 z"
       id="path3965"
       inkscape:original-d="m 174.62513,195.82462 c -0.15788,-61.77006 -7.36122,-96.402151 40.92605,-126.543915 48.33466,-30.171354 67.23817,-35.188229 83.88471,-18.541693 24.1609,24.160906 89.07659,112.114608 101.06963,142.097198"
       inkscape:connector-curvature="0"
       inkscape:path-effect="#path-effect3967;#path-effect3969"
       sodipodi:nodetypes="cssc" />
  </g>
</svg>
