<?xml version="1.0" encoding="UTF-8" standalone="no"?>
<!-- Created with Inkscape (http://www.inkscape.org/) -->

<svg
   xmlns:dc="http://purl.org/dc/elements/1.1/"
   xmlns:cc="http://creativecommons.org/ns#"
   xmlns:rdf="http://www.w3.org/1999/02/22-rdf-syntax-ns#"
   xmlns:svg="http://www.w3.org/2000/svg"
   xmlns="http://www.w3.org/2000/svg"
   xmlns:xlink="http://www.w3.org/1999/xlink"
   xmlns:sodipodi="http://sodipodi.sourceforge.net/DTD/sodipodi-0.dtd"
   xmlns:inkscape="http://www.inkscape.org/namespaces/inkscape"
   width="497.0517"
   height="214.25996"
   id="svg2"
   version="1.1"
   inkscape:version="0.48.5 r10040"
   inkscape:export-filename="C:\Users\PC\Google Drive\WeLast\Assets\Sprites\Fish_Grinder\spr_fish_grinder_1.png"
   inkscape:export-xdpi="66.300003"
   inkscape:export-ydpi="66.300003"
   sodipodi:docname="narwhal.svg">
  <defs
     id="defs4">
    <linearGradient
       id="linearGradient3957">
      <stop
         style="stop-color:#000000;stop-opacity:1;"
         offset="0"
         id="stop3959" />
      <stop
         style="stop-color:#000000;stop-opacity:0;"
         offset="1"
         id="stop3961" />
    </linearGradient>
    <linearGradient
       id="linearGradient3937">
      <stop
         id="stop6517"
         offset="0"
         style="stop-color:#ef0000;stop-opacity:1;" />
      <stop
         style="stop-color:#a50000;stop-opacity:1;"
         offset="0.43694657"
         id="stop6523" />
      <stop
         style="stop-color:#6a0000;stop-opacity:1;"
         offset="0.47429591"
         id="stop6521" />
      <stop
         style="stop-color:#330000;stop-opacity:1;"
         offset="1"
         id="stop3941" />
    </linearGradient>
    <inkscape:perspective
       sodipodi:type="inkscape:persp3d"
       inkscape:vp_x="0 : 526.18109 : 1"
       inkscape:vp_y="0 : 1000 : 0"
       inkscape:vp_z="744.09448 : 526.18109 : 1"
       inkscape:persp3d-origin="372.04724 : 350.78739 : 1"
       id="perspective2985" />
    <clipPath
       clipPathUnits="userSpaceOnUse"
       id="clipPath4916">
      <path
         style="fill:none;stroke:#000000;stroke-width:1px;stroke-linecap:butt;stroke-linejoin:miter;stroke-opacity:1"
         d="m -802.80734,808.08013 c 4.18713,3.54996 19.59086,28.60973 20.93358,17.72195 1.08222,-8.77544 12.6964,11.66161 19.93603,15.81182 10.73486,6.15389 23.4068,8.16329 24.83519,-0.14888 0.94191,-5.48121 5.24448,4.95521 12.36453,2.47559 5.20023,-1.81103 5.503,-12.07601 11.2962,-15.49897 1.64817,-0.97385 3.74075,-1.39389 6.51695,-0.90789 1.57755,0.27616 8.97757,0.0378 7.12696,-2.70835 -4.64719,-6.89599 9.41439,-4.71562 12.85957,-1.95692 4.02692,3.22452 6.57317,-0.42096 7.23517,-3.17541 1.69677,-7.05996 3.53765,-2.84358 7.51378,1.00761 4.36791,4.23066 11.01271,3.15157 17.89434,7.13166 1.33954,0.77474 4.95349,0.0611 4.04797,-1.63707 -4.13754,-7.75924 -1.05235,-7.31988 0.52571,-6.91103 25.74875,6.67116 29.01944,-25.29991 20.5824,-30.48498 -0.81733,-0.5023 -3.12961,-3.02578 -4.3512,-3.29998 -20.33626,-4.56476 -32.65998,-6.48906 -53.86838,-1.80959 -23.48921,5.18271 -45.13701,11.44703 -60.06122,14.99728 -49.66292,11.81407 -55.38758,9.39316 -55.38758,9.39316 z"
         id="path4918"
         inkscape:connector-curvature="0"
         sodipodi:nodetypes="csssssssssssssssssc" />
    </clipPath>
    <radialGradient
       inkscape:collect="always"
       xlink:href="#linearGradient3937"
       id="radialGradient6515"
       cx="109.7205"
       cy="342.03543"
       fx="109.7205"
       fy="342.03543"
       r="11.239948"
       gradientTransform="matrix(0.4565758,0.22795331,-0.08137789,0.16299469,-129.41619,455.2215)"
       gradientUnits="userSpaceOnUse" />
  </defs>
  <sodipodi:namedview
     id="base"
     pagecolor="#ffffff"
     bordercolor="#666666"
     borderopacity="1.0"
     inkscape:pageopacity="0.0"
     inkscape:pageshadow="2"
     inkscape:zoom="1.4142136"
     inkscape:cx="226.53566"
     inkscape:cy="91.555286"
     inkscape:document-units="px"
     inkscape:current-layer="layer1"
     showgrid="false"
     fit-margin-top="40"
     fit-margin-left="40"
     fit-margin-right="40"
     fit-margin-bottom="40"
     inkscape:window-width="1159"
     inkscape:window-height="709"
     inkscape:window-x="24"
     inkscape:window-y="27"
     inkscape:window-maximized="0"
     showguides="true"
     inkscape:guide-bbox="true" />
  <metadata
     id="metadata7">
    <rdf:RDF>
      <cc:Work
         rdf:about="">
        <dc:format>image/svg+xml</dc:format>
        <dc:type
           rdf:resource="http://purl.org/dc/dcmitype/StillImage" />
        <dc:title></dc:title>
      </cc:Work>
    </rdf:RDF>
  </metadata>
  <g
     inkscape:label="Layer 1"
     inkscape:groupmode="layer"
     id="layer1"
     transform="translate(940.48467,-531.46801)"
     style="display:inline">
    <path
       style="fill:#ff0000;fill-opacity:1;stroke:#000000;stroke-width:0;stroke-miterlimit:4;stroke-opacity:1;stroke-dasharray:none"
       d="m -67.10977,334.61542 c -0.806294,-0.54105 -2.014531,-1.54367 -2.684972,-2.22805 l -1.218984,-1.24431 -0.187162,-3.33445 c -0.18231,-3.24803 -0.35251,-4.20945 -0.745194,-4.20945 -0.568532,0 -1.976262,1.70728 -2.142317,2.59817 -0.176077,0.94467 -0.193193,0.95839 -0.584375,0.46819 -4.162689,-5.2163 -5.340086,-6.90913 -5.069655,-7.28901 0.157539,-0.22129 0.511005,-0.81659 0.78548,-1.32289 0.274475,-0.50629 0.614858,-0.99211 0.756406,-1.07959 0.141548,-0.0875 0.415209,-0.53685 0.608135,-0.99858 0.303096,-0.72541 0.497971,-0.85912 1.433712,-0.98367 6.652029,-0.88545 8.908956,-1.20986 10.783695,-1.55007 1.210417,-0.21965 2.25153,-0.3486 2.313584,-0.28654 0.06206,0.062 -0.07027,0.47985 -0.294055,0.92844 -0.530799,1.06401 -0.766142,3.88345 -0.364548,4.36734 0.214716,0.25872 0.251801,1.11984 0.13206,3.06647 -0.105408,1.71363 -0.05538,3.44054 0.136356,4.70674 0.589514,3.89309 0.701775,6.1836 0.366885,7.48572 -0.560117,2.17785 -1.735097,2.44219 -4.025051,0.90554 l 0,0 z"
       id="path5014"
       inkscape:connector-curvature="0"
       transform="translate(-721.24005,321.49105)" />
    <path
       style="fill:#ff0000;fill-opacity:1;stroke:#000000;stroke-width:0;stroke-miterlimit:4;stroke-opacity:1;stroke-dasharray:none"
       d="m -40.808052,349.9363 c -2.763637,-1.40832 -4.317975,-2.55215 -6.330206,-4.65838 -1.31655,-1.37805 -1.5625,-1.77529 -1.5625,-2.52364 0,-0.48849 -0.155254,-1.2576 -0.345008,-1.70914 -0.189755,-0.45154 -0.483953,-1.27098 -0.653774,-1.82098 -0.169821,-0.55 -0.45954,-1.3375 -0.64382,-1.75 -0.586773,-1.31346 -1.126002,-2.95526 -1.477967,-4.5 -0.187974,-0.825 -0.518995,-1.99227 -0.735601,-2.59393 -0.256268,-0.71183 -0.39383,-1.94163 -0.39383,-3.52081 0,-1.33478 -0.128945,-3.06893 -0.286544,-3.85367 -0.207809,-1.03476 -0.212551,-1.68163 -0.01726,-2.3542 0.178599,-0.61507 0.205415,-2.1482 0.07963,-4.55239 -0.110858,-2.11885 -0.09353,-3.91065 0.04171,-4.3125 0.127255,-0.37813 0.251526,-0.6875 0.276158,-0.6875 0.02463,0 1.880423,-0.38391 4.123981,-0.85313 4.048986,-0.8468 4.078033,-0.84912 3.922053,-0.3125 -0.08643,0.29735 -0.323642,1.37486 -0.52714,2.39448 -0.203499,1.01961 -0.497311,2.00724 -0.652916,2.19474 -0.52487,0.63243 -0.06185,4.21142 0.931665,7.20141 0.835796,2.51534 0.916751,3.00955 0.948714,5.79169 0.01922,1.67292 0.0912,3.07917 0.159946,3.125 0.220108,0.1467 1.104109,0.70953 1.810919,1.15297 0.412782,0.25898 0.686549,0.65232 0.6875,0.98778 8.75e-4,0.30659 0.161125,0.98159 0.356124,1.5 0.194998,0.51841 0.650375,2.01131 1.011948,3.31756 0.361573,1.30625 1.241238,3.66875 1.954812,5.25 1.163363,2.57796 1.297722,3.0558 1.300453,4.625 0.0025,1.40157 -0.112989,1.93666 -0.579746,2.6875 -0.320534,0.51562 -0.71424,0.9318 -0.8749,0.92485 -0.160661,-0.007 -1.296642,-0.52456 -2.524404,-1.15021 z"
       id="path5016"
       inkscape:connector-curvature="0"
       transform="translate(-721.24005,321.49105)" />
    <path
       style="fill:#ff0000;fill-opacity:1;stroke:#000000;stroke-width:0;stroke-miterlimit:4;stroke-opacity:1;stroke-dasharray:none"
       d="m -29.075758,353.95042 c -0.275,-0.0664 -0.76484,-0.17768 -1.088533,-0.24729 -0.527128,-0.11336 -0.572099,-0.2232 -0.431023,-1.05277 0.774707,-4.55549 0.940075,-6.88247 1.105157,-15.5512 l 0.178531,-9.375 -1.319566,-1.91902 c -0.725761,-1.05547 -1.319566,-2.04827 -1.319566,-2.20623 0,-0.15796 -0.493553,-1.05015 -1.096784,-1.98265 -0.603231,-0.9325 -1.176994,-1.9647 -1.275029,-2.29378 -0.09803,-0.32908 -0.568916,-1.65588 -1.046402,-2.94846 -0.811264,-2.19612 -0.87106,-2.56368 -0.912471,-5.6089 l -0.04431,-3.25877 5.550011,-1.2788 5.550012,-1.2788 0.411452,1.26271 c 0.226299,0.69448 0.678164,1.82812 1.004143,2.51918 0.325979,0.69106 0.759833,2.04106 0.964119,3 0.701922,3.29488 1.470789,5.20686 3.013754,7.49447 0.700525,1.03861 1.92039,2.65317 2.438809,3.2279 0.237765,0.2636 0.740575,0.93869 1.117355,1.50021 0.37678,0.56152 1.08942,1.52719 1.583644,2.14594 1.846846,2.31218 3.046726,4.72862 3.475836,7 0.168847,0.89375 0.410242,1.6625 0.53643,1.70833 0.12619,0.0458 0.231937,0.21459 0.234995,0.375 0.003,0.16042 0.231067,0.57292 0.5066897,0.91667 1.43792,1.79334 3.269555,4.61275 5.03481,7.75 0.58026,1.03125 1.3133,2.25632 1.6289775,2.72239 0.84287,1.24439 0.7368175,1.87791 -0.525715,3.14045 -1.2496,1.24959 -2.322985,1.63629 -4.5253225,1.63027 -2.3605277,-0.006 -5.5794617,-1.75337 -7.0794217,-3.84203 -1.000572,-1.39327 -2.287298,-2.09902 -3.12831,-1.71583 -0.635175,0.28941 -0.824329,1.01274 -1.302869,4.98224 -0.177164,1.46958 -0.488971,1.83237 -2.248533,2.61613 -0.975617,0.43458 -1.801991,0.56723 -3.865866,0.62055 -1.44375,0.0373 -2.85,0.0135 -3.125,-0.0529 z"
       id="path5018"
       inkscape:connector-curvature="0"
       transform="translate(-721.24005,321.49105)" />
    <path
       style="fill:#ff0000;fill-opacity:1;stroke:#000000;stroke-width:0;stroke-miterlimit:4;stroke-opacity:1;stroke-dasharray:none"
       d="m 4.6742417,334.68195 c -0.4125,-0.50712 -0.91875,-1.10276 -1.125,-1.32364 -0.869396,-0.93108 -3.16143677,-3.66376 -6.612853,-7.88415 -3.728192,-4.55884 -4.2244875,-5.173 -5.6926733,-7.04469 -3.1620554,-4.03109 -5.3698864,-6.78242 -5.8075764,-7.23721 -1.293371,-1.3439 -1.911072,-2.16601 -2.278034,-3.0319 -0.399915,-0.94363 -1.136237,-4.84433 -0.952025,-5.04338 0.05456,-0.059 2.544709,-0.74561 5.533676,-1.52592 l 5.4344857,-1.41873 0.3215027,2.01756 c 0.230963,1.44939 0.633803,2.6368 1.4304648,4.21644 0.6099292,1.20938 1.2242442,2.33814 1.3651447,2.50835 0.1409005,0.17021 0.7901638,1.0363 1.442807,1.92463 1.27343728,1.73332 3.18248028,3.69751 6.6915553,6.88485 2.3520055,2.13636 4.8177805,4.125 5.114708,4.125 0.099562,0 0.8454028,0.56522 1.6574198,1.25604 1.891923,1.60954 1.91174,1.62487 2.525998,1.95361 0.284957,0.1525 0.925852,0.87084 1.424212,1.59631 1.2049,1.754 1.841755,2.57152 2.957523,3.79652 0.512235,0.56239 1.067035,1.34826 1.232892,1.74638 0.274983,0.66007 0.242128,0.77498 -0.372822,1.30394 -1.128135,0.97038 -2.45939,1.19214 -6.84158,1.13967 -3.8797578,-0.0465 -4.5486803,0.0383 -6.3248253,0.80127 -0.2473725,0.10627 -0.630255,-0.15271 -1.125,-0.76095 l 0,0 z"
       id="path5020"
       inkscape:connector-curvature="0"
       transform="translate(-721.24005,321.49105)" />
    <path
       style="fill:#ff0000;fill-opacity:1;stroke:#000000;stroke-width:0;stroke-miterlimit:4;stroke-opacity:1;stroke-dasharray:none"
       d="m 34.180962,331.17142 c -0.271305,-0.0717 -1.359593,-0.63377 -2.41842,-1.24899 -1.427643,-0.82952 -2.23399,-1.51651 -3.120275,-2.65843 -2.749968,-3.54313 -6.483081,-6.44564 -8.927443,-6.94113 -2.243074,-0.45468 -4.166751,-1.52198 -6.313965,-3.50313 -0.700361,-0.64619 -2.073083,-1.57762 -3.050495,-2.06984 -2.2826018,-1.1495 -3.3207186,-2.07606 -4.4644093,-3.98468 -0.5078915,-0.84758 -1.4501988,-2.21606 -2.0940165,-3.04106 -0.6438175,-0.825 -1.3051324,-1.75662 -1.4695885,-2.07027 -0.6703706,-1.27851 -1.48122794,-4.27761 -1.56203137,-5.77746 l -0.0860767,-1.59772 1.62500007,-0.4638 c 0.89375,-0.25509 1.709375,-0.46424 1.8125,-0.46477 0.103125,-5.4e-4 0.1875,0.48277 0.1875,1.07402 0,0.59125 0.098672,1.18187 0.2192697,1.3125 0.1205985,0.13062 0.415147,0.85625 0.654552,1.6125 1.2805562,4.04511 4.124098,8.31891 5.9126096,8.88656 0.302572,0.096 0.767783,0.37738 1.033802,0.62521 0.355904,0.33158 0.988359,0.47395 2.394218,0.53894 1.050802,0.0486 1.99328,0.0249 2.094397,-0.0525 0.101117,-0.0775 -0.09576,-0.66611 -0.4375,-1.30807 -0.341742,-0.64196 -0.621348,-1.30174 -0.621348,-1.46617 0,-0.7138 -1.460395,-3.10976 -2.403441,-3.94315 -0.565643,-0.49987 -1.512351,-1.77409 -2.103795,-2.83159 -0.74901,-1.33924 -1.2904293,-2.01183 -1.7840593,-2.2163 -0.3897878,-0.16145 -0.708705,-0.45218 -0.708705,-0.64607 0,-0.19388 -0.16875,-0.41727 -0.375,-0.49641 -0.20625,-0.0792 -0.375,-0.3003 -0.375,-0.49144 0,-0.19115 -0.365625,-0.50309 -0.8125,-0.69321 -0.9646455,-0.4104 -0.9584688,-0.41361 2.4224675,-1.25683 2.5714108,-0.64133 2.8900328,-0.63889 2.8900328,0.0221 0,0.64581 1.491586,0.1857 2.494793,-0.76956 0.839284,-0.79917 1.257865,-0.9259 9.003322,-2.72584 4.467712,-1.03824 8.170362,-1.84046 8.22811,-1.78271 0.263065,0.26307 -1.553788,3.25925 -2.89725,4.77787 -0.387188,0.43767 -0.911653,1.04219 -1.165483,1.34339 -0.253827,0.3012 -1.083947,1.74311 -1.844707,3.20424 -0.760763,1.46114 -1.565585,2.86555 -1.788495,3.12093 -0.321905,0.36878 -0.40529,1.0398 -0.40529,3.26143 0,3.06367 0.303309,3.94427 1.517557,4.40592 0.339025,0.1289 0.728793,0.48951 0.866148,0.80135 0.137357,0.31184 0.58485,1.18255 0.994427,1.93492 0.409575,0.75236 0.868058,1.74176 1.018845,2.19865 0.422568,1.2804 3.330455,4.04669 5.292,5.03432 2.424128,1.22054 4.936023,4.12841 4.936023,5.71413 0,0.25298 0.121615,0.58157 0.270255,0.73021 0.572255,0.57226 -1.83663,3.82187 -2.841455,3.83316 -0.16709,0.002 -0.5288,0.0475 -0.8038,0.10134 -0.275,0.0539 -0.721975,0.0392 -0.99328,-0.0325 l 0,0 z"
       id="path5022"
       inkscape:connector-curvature="0"
       transform="translate(-721.24005,321.49105)" />
    <path
       style="fill:#ff0000;fill-opacity:1;stroke:#000000;stroke-width:0;stroke-miterlimit:4;stroke-opacity:1;stroke-dasharray:none"
       d="m 62.992972,334.23081 c -1.408252,-0.65861 -4.143288,-1.60323 -6.5,-2.24496 -7.976311,-2.17194 -8.454988,-2.46792 -10.383594,-6.42056 -0.682539,-1.39885 -1.195507,-2.96015 -1.549494,-4.71613 -0.291044,-1.44375 -0.632603,-3.075 -0.759019,-3.625 -0.452164,-1.96724 -0.29423,-3.71917 0.533331,-5.91614 0.431725,-1.14612 0.937975,-2.26147 1.125,-2.47855 0.187025,-0.21707 0.340046,-0.48096 0.340046,-0.5864 0,-0.10545 0.210336,-0.49034 0.467414,-0.85532 0.257078,-0.36497 0.894734,-1.73234 1.417013,-3.03859 0.975729,-2.44035 1.641952,-3.59056 3.837321,-6.625 1.524723,-2.10747 1.876616,-2.82898 2.255684,-4.625 0.159614,-0.75625 0.592938,-2.19063 0.962941,-3.1875 l 0.672734,-1.8125 1.505946,7.4e-4 c 1.54325,7.6e-4 8.163934,0.58796 10.068447,0.89299 0.584375,0.0936 1.0625,0.28314 1.0625,0.42121 0,0.70408 -2.658153,4.59395 -3.671356,5.37257 -2.098285,1.61248 -2.711435,2.29143 -4.441078,4.91767 -3.099919,4.70683 -4.494073,8.08461 -4.763439,11.54094 -0.218705,2.80628 -0.320794,3.20936 -0.727376,2.87193 -0.457462,-0.37966 -0.646751,0.67081 -0.646751,3.58916 0,2.26834 0.0093,2.30332 0.8125,3.04491 1.258168,1.16169 2.67643,2.01515 4.264916,2.56645 2.503961,0.86902 4.352615,2.28508 6.832531,5.23369 1.647059,1.95835 3.090053,4.41675 3.090053,5.26447 0,0.68821 -0.89605,1.24811 -2.26624,1.41607 -0.950947,0.11656 -1.454811,-0.0259 -3.54003,-1.00115 z"
       id="path5024"
       inkscape:connector-curvature="0"
       transform="translate(-721.24005,321.49105)" />
    <path
       style="fill:#ff0000;fill-opacity:1;stroke:#000000;stroke-width:0;stroke-miterlimit:4;stroke-opacity:1;stroke-dasharray:none"
       d="m 76.174242,325.71791 c -1.2375,-0.73269 -2.970845,-1.74956 -3.851877,-2.25971 -0.881033,-0.51016 -1.982925,-1.18614 -2.448651,-1.50219 -4.351795,-2.95321 -6.358766,-7.39668 -5.601683,-12.40224 0.58472,-3.86594 1.673997,-6.40986 3.811072,-8.90044 0.505361,-0.58896 1.407606,-1.86256 2.004989,-2.83023 0.597382,-0.96766 1.281355,-2.06079 1.519938,-2.42917 0.555645,-0.85792 0.865296,-1.55276 1.551841,-3.48223 0.305775,-0.85935 0.60631,-1.61281 0.667856,-1.67436 0.105051,-0.10505 7.986061,1.42405 9.00284,1.74676 0.656649,0.20841 0.603348,0.4501 -0.659407,2.99006 -0.615231,1.2375 -1.119348,2.37945 -1.12026,2.53767 -9e-4,0.15823 -0.281809,0.88948 -0.624216,1.625 -0.342407,0.73553 -0.623657,1.62566 -0.625,1.97806 -0.0015,0.38331 -0.303757,0.9294 -0.752442,1.35927 -0.4125,0.3952 -0.75,0.80871 -0.75,0.91891 0,0.20757 -0.550695,0.93862 -1.316526,1.74769 -0.242839,0.25655 -0.805339,1.16181 -1.25,2.0117 -0.683242,1.30589 -0.805333,1.79901 -0.788194,3.18348 0.02327,1.87953 0.35807,2.6524 1.84331,4.25511 0.569263,0.61428 1.551538,2.18928 2.182832,3.5 0.631294,1.31071 1.216606,2.43936 1.300693,2.50811 0.08409,0.0688 0.372258,0.51875 0.640381,1 0.268122,0.48125 0.57884,0.9875 0.690484,1.125 2.212175,2.7245 2.197745,3.03184 -0.17798,3.79077 -0.9625,0.30746 -2.03125,0.55366 -2.375,0.54709 -0.34375,-0.007 -1.6375,-0.61142 -2.875,-1.34411 z"
       id="path5026"
       inkscape:connector-curvature="0"
       transform="translate(-721.24005,321.49105)" />
    <path
       style="fill:#ff0000;fill-opacity:1;stroke:#000000;stroke-width:0;stroke-miterlimit:4;stroke-opacity:1;stroke-dasharray:none"
       d="m 39.799242,310.92638 c -0.20625,-0.0674 -0.851899,-0.3374 -1.434776,-0.59992 -0.582876,-0.26251 -1.124757,-0.4773 -1.20418,-0.4773 -0.217901,0 -1.921713,-1.30026 -2.453314,-1.87224 -1.893104,-2.0369 -1.738324,-5.43244 0.398708,-8.74683 0.175209,-0.27173 0.746005,-1.14564 1.268437,-1.942 0.839084,-1.27906 2.421952,-4.71813 2.424267,-5.26717 4.75e-4,-0.11178 0.293472,-0.80083 0.651111,-1.53123 l 0.650254,-1.32799 3.287246,-0.42745 c 1.807986,-0.23509 3.645006,-0.38979 4.082268,-0.34377 l 0.795022,0.0837 -0.741296,1.75 c -0.407713,0.9625 -0.893584,2.0875 -1.079714,2.5 -0.18613,0.4125 -0.420586,1.03125 -0.521014,1.375 -0.100427,0.34375 -0.38342,1.075 -0.628871,1.625 -0.245451,0.55 -0.749397,2.29375 -1.119878,3.875 -0.370482,1.58125 -0.831254,3.53096 -1.023937,4.33269 -0.192683,0.80173 -0.350333,1.67632 -0.350333,1.94353 0,0.26721 -0.39375,1.05824 -0.875,1.75786 -0.48125,0.69961 -0.875,1.52819 -0.875,1.84128 0,0.72721 -0.761427,1.6116 -1.25,1.45186 z"
       id="path5028"
       inkscape:connector-curvature="0"
       transform="translate(-721.24005,321.49105)" />
    <path
       style="fill:none;stroke:#000000;stroke-width:2.79999995;stroke-linecap:butt;stroke-linejoin:miter;stroke-miterlimit:4;stroke-opacity:1;stroke-dasharray:none"
       d="m 42.426407,334.96264 c 0,0 -13.835883,-0.5996 -19.697975,4.04061 -7.354613,5.82164 -30.3045761,26.26396 -12.626907,25.25381 17.67767,-1.01015 41.921331,-12.62691 41.921331,-12.62691"
       id="path4587"
       inkscape:connector-curvature="0"
       transform="translate(-721.24005,321.49105)"
       sodipodi:nodetypes="cssc" />
    <path
       style="fill:#ffffff;fill-opacity:1;stroke:#000000;stroke-width:2.20000005;stroke-linecap:butt;stroke-linejoin:miter;stroke-miterlimit:4;stroke-opacity:1;stroke-dasharray:none"
       d="m 133.93187,349.20195 c -22.7974,-10.08307 -24.69182,-8.41299 -24.69182,-8.41299"
       id="path4591"
       inkscape:connector-curvature="0"
       transform="translate(-721.24005,321.49105)"
       sodipodi:nodetypes="cc" />
    <path
       style="fill:url(#radialGradient6515);fill-opacity:1;stroke:#000000;stroke-width:1.89999998;stroke-linecap:butt;stroke-linejoin:miter;stroke-miterlimit:4;stroke-opacity:1;stroke-dasharray:none"
       d="m 122.73353,330.03814 c -19.95051,-13.88959 -20.32932,-14.52094 -20.32932,-14.52094 0,0 -4.040606,19.44544 20.32932,14.52094 z"
       id="path4593"
       inkscape:connector-curvature="0"
       transform="translate(-721.24005,321.49105)" />
    <rect
       style="fill:#ffffff;fill-opacity:1;stroke:#000000;stroke-width:1.89999998;stroke-miterlimit:4;stroke-opacity:1;stroke-dasharray:none"
       id="rect4595"
       width="5.3571429"
       height="12.5"
       x="-865.89478"
       y="-24.039843"
       transform="matrix(0.6703341,-0.74205942,0.74205942,0.6703341,0,0)"
       ry="2.6785715"
       rx="2.6785715" />
    <rect
       style="fill:#ffffff;fill-opacity:1;stroke:#000000;stroke-width:1.90000045;stroke-miterlimit:4;stroke-opacity:1;stroke-dasharray:none"
       id="rect4595-0"
       width="5.2388134"
       height="12.234669"
       x="-859.98511"
       y="-21.831121"
       transform="matrix(0.66997501,-0.74238366,0.74173531,0.67069272,0,0)"
       ry="2.67857"
       rx="2.6785703" />
    <rect
       style="fill:#ffffff;fill-opacity:1;stroke:#000000;stroke-width:1.90000463;stroke-miterlimit:4;stroke-opacity:1;stroke-dasharray:none"
       id="rect4595-0-5"
       width="4.9972467"
       height="11.693209"
       x="-853.84991"
       y="-19.854336"
       transform="matrix(0.66918139,-0.7430991,0.74102092,0.67148195,0,0)"
       ry="2.6785643"
       rx="2.6785645" />
    <rect
       style="fill:#ffffff;fill-opacity:1;stroke:#000000;stroke-width:1.90002453;stroke-miterlimit:4;stroke-opacity:1;stroke-dasharray:none"
       id="rect4595-0-4"
       width="4.5985398"
       height="10.800067"
       x="-848.2038"
       y="-18.798502"
       transform="matrix(0.66766639,-0.74446061,0.73966437,0.67297594,0,0)"
       ry="2.6785374"
       rx="2.6785369" />
    <rect
       style="fill:#ffffff;fill-opacity:1;stroke:#000000;stroke-width:1.90004075;stroke-miterlimit:4;stroke-opacity:1;stroke-dasharray:none"
       id="rect4595-0-4-3"
       width="4.4239588"
       height="10.40971"
       x="-842.96918"
       y="-17.177385"
       transform="matrix(0.66688747,-0.74515844,0.73897061,0.67373767,0,0)"
       ry="2.6785319"
       rx="2.6785309" />
    <rect
       style="fill:#ffffff;fill-opacity:1;stroke:#000000;stroke-width:1.90007257;stroke-miterlimit:4;stroke-opacity:1;stroke-dasharray:none"
       id="rect4595-0-4-3-2"
       width="4.1897697"
       height="9.8865004"
       x="-838.24872"
       y="-16.091423"
       transform="matrix(0.66572132,-0.74620046,0.73793658,0.67487007,0,0)"
       ry="2.6785192"
       rx="2.6785178" />
    <rect
       style="fill:#ffffff;fill-opacity:1;stroke:#000000;stroke-width:1.70010734;stroke-miterlimit:4;stroke-opacity:1;stroke-dasharray:none"
       id="rect4595-0-4-3-2-5"
       width="3.9535458"
       height="9.3593998"
       x="-833.83795"
       y="-15.488543"
       transform="matrix(0.66437391,-0.74740037,0.73674869,0.67616667,0,0)"
       ry="2.6785028"
       rx="2.6785002" />
    <rect
       style="fill:#ffffff;fill-opacity:1;stroke:#000000;stroke-width:1.50014234;stroke-miterlimit:4;stroke-opacity:1;stroke-dasharray:none"
       id="rect4595-0-4-3-2-5-6"
       width="3.7448997"
       height="8.8945036"
       x="-829.30023"
       y="-14.743584"
       transform="matrix(0.66300876,-0.74861163,0.73555262,0.67746759,0,0)"
       ry="2.6784861"
       rx="2.6784823" />
    <rect
       style="fill:#ffffff;fill-opacity:1;stroke:#000000;stroke-width:1.50020242;stroke-miterlimit:4;stroke-opacity:1;stroke-dasharray:none"
       id="rect4595-0-4-3-2-5-6-0"
       width="3.5528438"
       height="8.4671917"
       x="-824.89233"
       y="-14.112557"
       transform="matrix(0.66157733,-0.74987694,0.73430646,0.67881811,0,0)"
       ry="2.678468"
       rx="2.6784625" />
    <rect
       style="fill:#ffffff;fill-opacity:1;stroke:#000000;stroke-width:1.4002552;stroke-miterlimit:4;stroke-opacity:1;stroke-dasharray:none"
       id="rect4595-0-4-3-2-5-6-0-8"
       width="3.3815958"
       height="8.0867481"
       x="-820.76459"
       y="-13.675718"
       transform="matrix(0.66013147,-0.75115008,0.73305593,0.68016836,0,0)"
       ry="2.6784501"
       rx="2.6784425" />
    <rect
       style="fill:#ffffff;fill-opacity:1;stroke:#000000;stroke-width:1.20029294;stroke-miterlimit:4;stroke-opacity:1;stroke-dasharray:none"
       id="rect4595-0-4-3-2-5-6-0-8-8"
       width="3.2098403"
       height="7.7057481"
       x="-816.64728"
       y="-13.50266"
       transform="matrix(0.65849179,-0.75258791,0.73164766,0.681683,0,0)"
       ry="2.6784272"
       rx="2.6784167" />
    <rect
       style="fill:#ffffff;fill-opacity:1;stroke:#000000;stroke-width:1.20037687;stroke-miterlimit:4;stroke-opacity:1;stroke-dasharray:none"
       id="rect4595-0-4-3-2-5-6-0-8-8-1"
       width="3.0590754"
       height="7.371871"
       x="-812.8681"
       y="-13.394809"
       transform="matrix(0.65686504,-0.75400817,0.73026076,0.68316851,0,0)"
       ry="2.6784053"
       rx="2.6783917" />
    <rect
       style="fill:#ffffff;fill-opacity:1;stroke:#000000;stroke-width:1.20044947;stroke-miterlimit:4;stroke-opacity:1;stroke-dasharray:none"
       id="rect4595-0-4-3-2-5-6-0-8-8-1-5"
       width="2.9111714"
       height="7.0362802"
       x="-809.46344"
       y="-13.00963"
       transform="matrix(0.65559352,-0.75511399,0.72918378,0.68431792,0,0)"
       ry="2.6783919"
       rx="2.6783764" />
    <rect
       style="fill:#ffffff;fill-opacity:1;stroke:#000000;stroke-width:1.20055974;stroke-miterlimit:4;stroke-opacity:1;stroke-dasharray:none"
       id="rect4595-0-4-3-2-5-6-0-8-8-1-5-7"
       width="2.7325284"
       height="6.6314702"
       x="-806.06964"
       y="-13.224356"
       transform="matrix(0.65383661,-0.75663577,0.72770572,0.68588949,0,0)"
       ry="2.6783671"
       rx="2.6783473" />
    <path
       style="fill:none;stroke:#000000;stroke-width:1.29999995;stroke-linecap:butt;stroke-linejoin:miter;stroke-miterlimit:4;stroke-opacity:1;stroke-dasharray:none"
       d="m -533.83584,599.61549 c 26.22224,-9.79593 49.75287,-20.1009 49.75287,-20.1009 l -46.71316,23.53476"
       id="path4833"
       inkscape:connector-curvature="0"
       sodipodi:nodetypes="ccc" />
  </g>
</svg>
